<svg version="1.1" xmlns="http://www.w3.org/2000/svg" xmlns:xlink="http://www.w3.org/1999/xlink" width="96" height="184" viewBox="0,0,96,184"><g transform="translate(-252,-171)"><g data-paper-data="{&quot;isPaintingLayer&quot;:true}" fill-rule="nonzero" stroke="none" stroke-width="1" stroke-linecap="butt" stroke-linejoin="miter" stroke-miterlimit="10" stroke-dasharray="" stroke-dashoffset="0" style="mix-blend-mode: normal"><path d="M260,307c-4.41828,0 -8,0 -8,0v-80c0,0 3.58172,0 8,0h80c4.41828,0 8,0 8,0v80c0,0 -3.58172,0 -8,0z" fill="#4a90d9"/><path d="M272,227c-6.62742,0 -12,0 -12,0v-56c0,0 5.37258,0 12,0h56c6.62742,0 12,0 12,0v56c0,0 -5.37258,0 -12,0z" fill="#5ba0e9"/><path d="M280,207c-2.20914,0 -4,0 -4,0v-20c0,0 1.79086,0 4,0h8c2.20914,0 4,0 4,0v20c0,0 -1.79086,0 -4,0z" fill="#ffffff"/><path d="M312,207c-2.20914,0 -4,0 -4,0v-20c0,0 1.79086,0 4,0h8c2.20914,0 4,0 4,0v20c0,0 -1.79086,0 -4,0z" fill="#ffffff"/><path d="M284,205c-1.10457,0 -2,0 -2,0v-12c0,0 0.89543,0 2,0h4c1.10457,0 2,0 2,0v12c0,0 -0.89543,0 -2,0z" fill="#1a1a2e"/><path d="M316,205c-1.10457,0 -2,0 -2,0v-12c0,0 0.89543,0 2,0h4c1.10457,0 2,0 2,0v12c0,0 -0.89543,0 -2,0z" fill="#1a1a2e"/><path d="M252,287v-12h96v12z" fill="#3a7bc8"/><path d="M272,355c-4.41828,0 -8,0 -8,0v-48c0,0 3.58172,0 8,0h12c4.41828,0 8,0 8,0v48c0,0 -3.58172,0 -8,0z" fill="#3a7bc8"/><path d="M316,355c-4.41828,0 -8,0 -8,0v-48c0,0 3.58172,0 8,0h12c4.41828,0 8,0 8,0v48c0,0 -3.58172,0 -8,0z" fill="#3a7bc8"/><path d="M264,355c-4.41828,0 -8,0 -8,0v-16c0,0 3.58172,0 8,0h24c4.41828,0 8,0 8,0v16c0,0 -3.58172,0 -8,0z" fill="#2d6ab5"/><path d="M312,355c-4.41828,0 -8,0 -8,0v-16c0,0 3.58172,0 8,0h24c4.41828,0 8,0 8,0v16c0,0 -3.58172,0 -8,0z" fill="#2d6ab5"/></g></g></svg>