<svg width="134" height="32" viewBox="0 0 134 32" fill="none" xmlns="http://www.w3.org/2000/svg">
<g clip-path="url(#clip0_183_6396)">
<mask id="mask0_183_6396" style="mask-type:luminance" maskUnits="userSpaceOnUse" x="0" y="0" width="134" height="32">
<path d="M133.782 0H0V32H133.782V0Z" fill="white"/>
</mask>
<g mask="url(#mask0_183_6396)">
<mask id="mask1_183_6396" style="mask-type:luminance" maskUnits="userSpaceOnUse" x="0" y="0" width="134" height="32">
<path d="M133.782 0H0V32H133.782V0Z" fill="white"/>
</mask>
<g mask="url(#mask1_183_6396)">
<path d="M131.946 16.9769C131.854 16.8849 131.705 16.8818 131.61 16.9722C130.407 18.1291 128.892 19.2268 127.473 19.2268C126.054 19.2268 125.334 18.8495 124.928 18.324C124.802 18.1603 124.928 17.9233 125.136 17.9373C125.32 17.9498 125.507 17.9561 125.697 17.9561C130.49 17.9561 131.761 14.7253 131.761 13.3735C131.761 12.7685 131.859 9.86523 127.44 9.86523C123.537 9.86523 121.479 12.9603 121.479 16.8615C121.479 16.8615 121.425 22.1675 127.509 22.1675C130.736 22.1675 133.074 19.8022 133.719 19.0725C133.803 18.9774 133.799 18.8323 133.71 18.7419L131.946 16.9784V16.9769ZM127.56 12.6734C128.683 12.6734 128.89 13.2191 128.901 13.4327C128.956 14.532 127.626 15.1417 126.031 15.1417C125.624 15.1417 125.235 15.1105 124.867 15.0543C124.718 15.031 124.627 14.8766 124.677 14.7331C125.214 13.2067 126.589 12.675 127.56 12.675" fill="#0C70EB"/>
<path d="M60.8847 5.27012C60.8535 5.25609 60.8208 5.24829 60.7865 5.24829H58.7361C58.2371 5.24829 58.2917 5.50868 58.2917 5.8751V10.7991C58.2917 10.8958 58.1841 10.9473 58.1061 10.8911C57.2501 10.269 56.048 9.86204 54.3656 9.86204C51.1411 9.86204 49.7721 11.8438 49.192 13.5714C48.7009 15.034 47.9774 16.5776 46.8173 17.5942C45.7196 18.5547 44.321 19.1504 43.1048 19.1504C41.7265 19.1504 40.9812 18.7761 40.5789 18.2554C40.4541 18.0932 40.5867 17.8593 40.7894 17.8733C40.9702 17.8843 41.1542 17.8905 41.3413 17.8905C46.0985 17.8905 47.36 14.6847 47.36 13.3422C47.36 12.7419 47.4566 9.86048 43.0736 9.86048C40.2608 9.86048 38.3398 11.4805 37.501 13.8521C36.5779 13.2612 35.9324 12.6032 35.5551 12.2243C35.4615 12.1292 35.3071 12.1307 35.2136 12.2274L33.5826 13.8724C33.4704 13.9846 33.5592 14.0969 33.6341 14.1967C35.1684 16.2923 37.3092 17.1389 37.3092 17.1389C37.3092 17.1389 37.1049 22.0677 43.1422 22.0677C46.3387 22.0677 48.7196 19.8754 49.3776 19.1659C49.44 19.0973 49.5475 19.116 49.5881 19.1987C50.3194 20.7174 51.6743 22.0645 54.3671 22.0645C56.0215 22.0645 57.2236 21.6124 58.0921 20.931C58.1716 20.8686 58.287 20.9248 58.287 21.0261C58.287 21.4034 58.287 21.3083 58.287 21.3738C58.287 21.9616 58.708 21.932 58.708 21.932H60.682C61.039 21.932 61.1295 21.7012 61.1295 21.391C61.1295 20.6176 61.131 5.78466 61.131 5.78466C61.131 5.43384 60.9782 5.31066 60.8894 5.26856M43.1937 12.6453C44.307 12.6453 44.5144 13.1863 44.5253 13.3984C44.5783 14.4898 43.2592 15.0932 41.6766 15.0932C41.2712 15.0932 40.8876 15.0621 40.5212 15.0044C40.3715 14.981 40.2826 14.8266 40.3325 14.6847C40.8642 13.1707 42.2285 12.6437 43.1937 12.6437M54.6603 19.2065C52.1125 19.2065 51.6728 16.5511 51.6728 15.8713C51.6728 15.3365 51.8115 12.6375 54.6603 12.6375C57.509 12.6375 57.7101 14.7767 57.7101 15.8713C57.7101 16.9659 57.2065 19.2065 54.6603 19.2065Z" fill="#0C70EB"/>
<path d="M119.491 5.24829H117.223C116.736 5.24829 116.788 5.55702 116.788 5.86107V14.6192C116.788 14.6192 116.781 20.8702 116.781 21.4455C116.781 22.0209 117.193 21.9897 117.193 21.9897H119.387C119.736 21.9897 119.823 21.8307 119.823 21.4611C119.823 17.1951 119.825 5.77375 119.825 5.77375C119.825 5.43228 119.802 5.24829 119.493 5.24829" fill="#0C70EB"/>
<path d="M69.9889 9.8606C68.3174 9.8606 67.1059 10.3237 66.2359 11.016C66.1688 11.0706 66.069 11.0222 66.069 10.9349C66.069 10.4188 66.069 10.634 66.069 10.5685C66.069 9.98066 65.8196 10.0103 65.648 10.0103H63.6881C63.331 10.0103 63.2406 10.2114 63.2406 10.5513C63.2406 10.7494 63.2063 26.2138 63.2063 26.2138C63.2063 26.5646 63.3154 26.7517 63.5462 26.7517H65.5826C66.0815 26.7517 66.0285 26.4118 66.0285 26.1514C66.0285 24.9991 66.0597 21.1525 66.0597 21.1525C66.0597 21.0465 66.1797 20.9857 66.2655 21.048C67.12 21.6624 68.3159 22.0631 69.9858 22.0631C75.4338 22.0631 75.5834 17.5289 75.5834 15.8792C75.5834 13.6901 74.8553 9.8606 69.9858 9.8606M69.6942 19.2097C66.9017 19.2097 66.6444 17.0705 66.6444 15.9759C66.6444 14.8813 67.148 12.7514 69.6942 12.7514C72.2405 12.7514 72.6817 15.2961 72.6817 15.9759C72.6817 16.5107 72.5429 19.2097 69.6942 19.2097Z" fill="#0C70EB"/>
<path d="M101.641 10.0133H92.1409C91.7137 10.0133 91.6155 10.0383 91.6155 10.333V12.3054C91.6155 12.6266 91.7558 12.7108 91.9523 12.7108C92.2454 12.7108 94.7713 12.7139 96.9792 12.7155C97.1866 12.7155 97.291 12.9649 97.146 13.1131L91.221 19.194C91.1773 19.2377 91.1539 19.297 91.1539 19.3578V21.2585C91.1539 22.0272 91.3738 21.9882 91.7714 21.9882H101.524C101.86 21.9882 102.073 21.9882 102.073 21.6576V19.5948C102.073 19.1145 101.849 19.166 101.435 19.166C101.227 19.166 98.25 19.166 95.8753 19.166C95.6663 19.166 95.5619 18.9149 95.71 18.7668L102.006 12.7856C102.05 12.742 102.075 12.6827 102.075 12.6203V10.4062C102.075 9.99929 101.643 10.0118 101.643 10.0118" fill="#0C70EB"/>
<path d="M114.159 10.0133H104.658C104.231 10.0133 104.133 10.0383 104.133 10.333V12.3054C104.133 12.6266 104.273 12.7108 104.47 12.7108C104.763 12.7108 107.289 12.7139 109.497 12.7155C109.704 12.7155 109.809 12.9649 109.663 13.1131L103.738 19.194C103.695 19.2377 103.671 19.297 103.671 19.3578V21.2585C103.671 22.0272 103.891 21.9882 104.289 21.9882H114.042C114.377 21.9882 114.591 21.9882 114.591 21.6576V19.5948C114.591 19.1145 114.366 19.166 113.953 19.166C113.744 19.166 110.767 19.166 108.393 19.166C108.184 19.166 108.079 18.9149 108.227 18.7668L114.524 12.7856C114.567 12.742 114.592 12.6827 114.592 12.6203V10.4062C114.592 9.99929 114.16 10.0118 114.16 10.0118" fill="#0C70EB"/>
<path d="M89.1987 21.4081V10.5372C89.1987 10.0632 88.9274 9.99144 88.89 9.98364C88.8868 9.98364 88.8837 9.98364 88.8806 9.98364H86.4513C85.9118 9.98364 85.9851 10.5684 85.9913 10.612C85.9913 10.6136 85.9913 10.6151 85.9913 10.6182C85.9913 10.6182 85.9913 15.0995 85.9913 15.7543C85.9524 17.312 85.6234 19.2033 82.9399 19.2033C80.4732 19.2033 80.5465 16.9035 80.5465 15.7855V10.5403C80.5465 10.0663 80.2752 9.99456 80.2378 9.98676C80.2347 9.98676 80.2316 9.98676 80.2284 9.98676H77.7992C77.2597 9.98676 77.333 10.5715 77.3392 10.6151C77.3392 10.6167 77.3392 10.6182 77.3392 10.6214V14.6629C77.3392 14.6629 77.3392 15.1306 77.3392 15.8229C77.3392 17.1919 77.032 22.1628 82.9399 22.1628C84.1577 22.1628 85.2492 21.7464 85.9305 21.0651C85.9945 20.9996 86.0911 21.0588 86.0911 21.1399V21.3379C86.0911 21.8431 86.1956 21.9897 86.4233 21.9897C87.0516 21.9897 88.4206 21.9866 88.8323 21.9866C89.2439 21.9866 89.2002 21.4112 89.2002 21.4112" fill="#0C70EB"/>
<path d="M9.54095 31.9999C8.58515 31.9999 7.62934 31.6506 6.90118 30.9505L2.82381 27.0306C1.36749 25.6304 0.369583 23.7172 0.0873635 21.7807C-0.205771 19.763 0.244845 17.7922 1.39244 16.024C0.244845 14.2574 -0.20733 12.285 0.0873635 10.2658C0.369583 8.32924 1.36749 6.41607 2.82381 5.01589L6.94952 1.04921C8.40428 -0.349412 10.7727 -0.349412 12.2291 1.04921L14.8688 3.58607C14.9998 3.71237 15.2009 3.74823 15.3693 3.67183C17.571 2.67237 20.3511 3.2181 21.9212 5.3137C22.4014 5.95454 22.718 6.70297 22.8365 7.48414C22.994 8.51635 22.8302 9.52829 22.3905 10.4186C22.311 10.5808 22.3453 10.7741 22.4779 10.902L25.1161 13.4373C25.8208 14.1155 26.2091 15.0168 26.2091 15.9757C26.2091 16.9346 25.8208 17.8358 25.1161 18.5125L21.3396 22.144C21.2086 22.2703 21.059 22.3779 20.889 22.448C20.3012 22.696 19.6525 22.5603 19.23 22.1549C18.1588 21.1243 16.283 21.3223 15.5206 22.7521C15.4722 22.8441 15.4317 22.9408 15.4005 23.039C15.1401 23.8716 15.3693 24.712 15.9696 25.2905C16.2472 25.5571 16.4047 25.9204 16.4047 26.2978C16.4047 26.6751 16.2487 27.0384 15.9696 27.305L12.1807 30.9489C11.4526 31.649 10.4968 31.9983 9.54095 31.9983M3.56132 18.6591C3.48492 18.5858 3.35394 18.6123 3.31808 18.7106C2.42932 21.1118 3.38045 23.5333 4.92096 25.0145L8.99834 28.9344C9.29771 29.2229 9.78575 29.2229 10.0851 28.9344L12.7467 26.3742C12.8793 26.2479 12.9136 26.0545 12.834 25.8924C12.4208 25.0535 12.2524 24.1086 12.3647 23.1403C12.4707 22.2251 12.8403 21.3472 13.4312 20.6222C14.4572 19.3623 15.9728 18.6576 17.6006 18.6576C18.3927 18.6576 19.1598 18.8244 19.8552 19.1409C20.0252 19.2173 20.2263 19.1846 20.3589 19.0567L23.0002 16.5167C23.1265 16.3951 23.2185 16.2408 23.2403 16.0708C23.2699 15.8385 23.1904 15.6139 23.022 15.4518L19.2565 11.8328C18.6702 11.2684 18.6967 10.3687 19.2752 9.79803C20.1546 8.93266 20.1484 7.54027 19.2565 6.6827C18.3584 5.81889 16.8958 5.81889 15.9961 6.6827C15.7186 6.94933 15.3413 7.10057 14.9483 7.10057C14.5554 7.10057 14.1781 6.95089 13.9005 6.6827L10.135 3.06373C9.83565 2.77528 9.34761 2.77528 9.04824 3.06373L4.92096 7.03041C3.38201 8.51011 2.43088 10.93 3.31496 13.3266C3.35238 13.4264 3.48648 13.4513 3.56288 13.3733C4.05559 12.865 5.65536 11.4243 8.03942 11.4243C9.90113 11.4243 11.1064 12.6592 11.5399 13.1535C12.0638 13.7522 12.6235 14.8187 12.6235 16.0225C12.6235 17.4523 11.9063 18.5359 11.4697 18.9647C10.4952 19.9626 9.18701 20.5629 7.87414 20.5629C5.71929 20.5629 4.06651 19.144 3.56288 18.6576M5.23905 15.8276C5.13614 15.9383 5.13614 16.1035 5.23905 16.2142C5.34819 16.3312 5.46202 16.4466 5.5774 16.5573C6.38664 17.3353 7.14598 17.7236 7.8258 17.7142C8.56176 17.7033 9.10593 17.2231 9.30551 17.0173C9.31642 17.0063 9.32422 16.9985 9.33202 16.9892C9.37255 16.9393 9.65945 16.5604 9.65945 16.0209C9.65945 15.536 9.38035 15.1103 9.27277 14.9871C9.0919 14.7813 8.59762 14.298 7.91312 14.2699C7.0649 14.234 6.17302 14.9107 5.5774 15.4845C5.46202 15.5952 5.34975 15.7091 5.23905 15.8276ZM9.35852 16.9642C9.35852 16.9642 9.34761 16.9752 9.33981 16.9814C9.34761 16.9736 9.35384 16.9689 9.35852 16.9642Z" fill="#0C70EB"/>
</g>
</g>
</g>
<defs>
<clipPath id="clip0_183_6396">
<rect width="133.782" height="32" fill="white"/>
</clipPath>
</defs>
</svg>