<svg width="267" height="50" viewBox="0 0 267 50" fill="none" xmlns="http://www.w3.org/2000/svg"><rect width="267" height="50" rx="7" fill="#2265F8"/><g clip-path="url(#clip0_4300_93957)"><path d="M39.5 15C33.7116 15 29 19.7116 29 25.5C29 27.481 29.5543 29.3392 30.513 30.9204C30.7765 31.352 31.0673 31.7655 31.3899 32.1562C33.3163 34.5006 36.2378 36 39.5045 36C42.7713 36 45.6928 34.5006 47.6192 32.1562C47.9418 31.7655 48.2326 31.352 48.4961 30.9204C49.4548 29.3347 50.0091 27.481 50.0091 25.5C50 19.7116 45.2929 15 39.5 15ZM39.5 34.637C36.4922 34.637 33.8252 33.1694 32.1623 30.9204C33.8297 28.6714 36.4922 27.2038 39.5 27.2038C42.5078 27.2038 45.1703 28.6714 46.8377 30.9204C45.1703 33.1694 42.5078 34.637 39.5 34.637ZM36.7239 23.0692C36.7239 21.5381 37.9688 20.2932 39.5 20.2932C41.0312 20.2932 42.2761 21.5381 42.2761 23.0692C42.2761 24.6004 41.0312 25.8453 39.5 25.8453C37.9688 25.8453 36.7239 24.6004 36.7239 23.0692ZM47.6147 29.6846C46.238 28.008 44.3524 26.7676 42.1988 26.1952C43.0757 25.4364 43.6346 24.3141 43.6346 23.0647C43.6346 20.7839 41.7808 18.9256 39.4955 18.9256C37.2101 18.9256 35.3563 20.7839 35.3563 23.0647C35.3563 24.3141 35.9152 25.4318 36.7921 26.1952C34.6385 26.7676 32.7529 28.008 31.3762 29.6846C30.7265 28.4305 30.354 27.0084 30.354 25.5C30.363 20.4613 34.4613 16.363 39.5 16.363C44.5387 16.363 48.637 20.4613 48.637 25.5C48.637 27.0084 48.2644 28.4305 47.6147 29.6846Z" fill="#FEE479"/></g><path d="M68.2784 30V18.3636H70.0341V28.4886H75.3068V30H68.2784ZM80.8494 30.1761C80.0313 30.1761 79.3172 29.9886 78.7074 29.6136C78.0975 29.2386 77.6241 28.714 77.2869 28.0398C76.9498 27.3655 76.7812 26.5777 76.7812 25.6761C76.7812 24.7708 76.9498 23.9792 77.2869 23.3011C77.6241 22.6231 78.0975 22.0966 78.7074 21.7216C79.3172 21.3466 80.0313 21.1591 80.8494 21.1591C81.6676 21.1591 82.3816 21.3466 82.9915 21.7216C83.6013 22.0966 84.0748 22.6231 84.4119 23.3011C84.7491 23.9792 84.9176 24.7708 84.9176 25.6761C84.9176 26.5777 84.7491 27.3655 84.4119 28.0398C84.0748 28.714 83.6013 29.2386 82.9915 29.6136C82.3816 29.9886 81.6676 30.1761 80.8494 30.1761ZM80.8551 28.75C81.3854 28.75 81.8248 28.6098 82.1733 28.3295C82.5218 28.0492 82.7794 27.6761 82.946 27.2102C83.1165 26.7443 83.2017 26.2311 83.2017 25.6705C83.2017 25.1136 83.1165 24.6023 82.946 24.1364C82.7794 23.6667 82.5218 23.2898 82.1733 23.0057C81.8248 22.7216 81.3854 22.5795 80.8551 22.5795C80.321 22.5795 79.8778 22.7216 79.5256 23.0057C79.1771 23.2898 78.9176 23.6667 78.7472 24.1364C78.5805 24.6023 78.4972 25.1136 78.4972 25.6705C78.4972 26.2311 78.5805 26.7443 78.7472 27.2102C78.9176 27.6761 79.1771 28.0492 79.5256 28.3295C79.8778 28.6098 80.321 28.75 80.8551 28.75ZM90.473 33.4545C89.7798 33.4545 89.1832 33.3636 88.6832 33.1818C88.187 33 87.7817 32.7595 87.4673 32.4602C87.1529 32.161 86.9181 31.8333 86.7628 31.4773L88.223 30.875C88.3253 31.0417 88.4616 31.2178 88.6321 31.4034C88.8063 31.5928 89.0412 31.7538 89.3366 31.8864C89.6359 32.0189 90.0204 32.0852 90.4901 32.0852C91.134 32.0852 91.6662 31.928 92.0866 31.6136C92.5071 31.303 92.7173 30.8068 92.7173 30.125V28.4091H92.6094C92.5071 28.5947 92.3594 28.8011 92.1662 29.0284C91.9768 29.2557 91.7154 29.4527 91.3821 29.6193C91.0488 29.786 90.6151 29.8693 90.081 29.8693C89.3916 29.8693 88.7704 29.7083 88.2173 29.3864C87.6681 29.0606 87.2325 28.5814 86.9105 27.9489C86.5923 27.3125 86.4332 26.5303 86.4332 25.6023C86.4332 24.6742 86.5904 23.8788 86.9048 23.2159C87.223 22.553 87.6586 22.0455 88.2116 21.6932C88.7647 21.3371 89.3916 21.1591 90.0923 21.1591C90.634 21.1591 91.0715 21.25 91.4048 21.4318C91.7382 21.6098 91.9976 21.8182 92.1832 22.0568C92.3726 22.2955 92.5185 22.5057 92.6207 22.6875H92.7457V21.2727H94.4105V30.1932C94.4105 30.9432 94.2363 31.5587 93.8878 32.0398C93.5393 32.5208 93.0677 32.8769 92.473 33.108C91.8821 33.339 91.2154 33.4545 90.473 33.4545ZM90.456 28.4602C90.9446 28.4602 91.3575 28.3466 91.6946 28.1193C92.0355 27.8883 92.2931 27.5587 92.4673 27.1307C92.6454 26.6989 92.7344 26.1818 92.7344 25.5795C92.7344 24.9924 92.6473 24.4754 92.473 24.0284C92.2988 23.5814 92.0431 23.233 91.706 22.983C91.3688 22.7292 90.9522 22.6023 90.456 22.6023C89.9446 22.6023 89.5185 22.7348 89.1776 23C88.8366 23.2614 88.5791 23.6174 88.4048 24.0682C88.2344 24.5189 88.1491 25.0227 88.1491 25.5795C88.1491 26.1515 88.2363 26.6534 88.4105 27.0852C88.5848 27.517 88.8423 27.8542 89.1832 28.0966C89.5279 28.339 89.9522 28.4602 90.456 28.4602ZM100.923 30V21.2727H102.622V30H100.923ZM101.781 19.9261C101.486 19.9261 101.232 19.8277 101.02 19.6307C100.812 19.4299 100.707 19.1913 100.707 18.9148C100.707 18.6345 100.812 18.3958 101.02 18.1989C101.232 17.9981 101.486 17.8977 101.781 17.8977C102.077 17.8977 102.329 17.9981 102.537 18.1989C102.749 18.3958 102.855 18.6345 102.855 18.9148C102.855 19.1913 102.749 19.4299 102.537 19.6307C102.329 19.8277 102.077 19.9261 101.781 19.9261ZM106.607 24.8182V30H104.908V21.2727H106.538V22.6932H106.646C106.847 22.2311 107.161 21.8598 107.589 21.5795C108.021 21.2992 108.565 21.1591 109.22 21.1591C109.815 21.1591 110.336 21.2841 110.783 21.5341C111.23 21.7803 111.576 22.1477 111.822 22.6364C112.069 23.125 112.192 23.7292 112.192 24.4489V30H110.493V24.6534C110.493 24.0208 110.328 23.5265 109.999 23.1705C109.669 22.8106 109.216 22.6307 108.641 22.6307C108.247 22.6307 107.896 22.7159 107.589 22.8864C107.286 23.0568 107.046 23.3068 106.868 23.6364C106.694 23.9621 106.607 24.3561 106.607 24.8182ZM120.597 30L118.028 21.2727H119.784L121.494 27.6818H121.58L123.295 21.2727H125.051L126.756 27.6534H126.841L128.54 21.2727H130.295L127.733 30H126L124.227 23.6989H124.097L122.324 30H120.597ZM131.908 30V21.2727H133.607V30H131.908ZM132.766 19.9261C132.47 19.9261 132.216 19.8277 132.004 19.6307C131.796 19.4299 131.692 19.1913 131.692 18.9148C131.692 18.6345 131.796 18.3958 132.004 18.1989C132.216 17.9981 132.47 17.8977 132.766 17.8977C133.061 17.8977 133.313 17.9981 133.521 18.1989C133.733 18.3958 133.839 18.6345 133.839 18.9148C133.839 19.1913 133.733 19.4299 133.521 19.6307C133.313 19.8277 133.061 19.9261 132.766 19.9261ZM139.966 21.2727V22.6364H135.199V21.2727H139.966ZM136.477 19.1818H138.176V27.4375C138.176 27.767 138.225 28.0152 138.324 28.1818C138.422 28.3447 138.549 28.4564 138.705 28.517C138.864 28.5739 139.036 28.6023 139.222 28.6023C139.358 28.6023 139.477 28.5928 139.58 28.5739C139.682 28.5549 139.761 28.5398 139.818 28.5284L140.125 29.9318C140.027 29.9697 139.886 30.0076 139.705 30.0455C139.523 30.0871 139.295 30.1098 139.023 30.1136C138.576 30.1212 138.159 30.0417 137.773 29.875C137.386 29.7083 137.074 29.4508 136.835 29.1023C136.597 28.7538 136.477 28.3163 136.477 27.7898V19.1818ZM143.732 24.8182V30H142.033V18.3636H143.709V22.6932H143.817C144.021 22.2235 144.334 21.8504 144.754 21.5739C145.175 21.2973 145.724 21.1591 146.402 21.1591C147 21.1591 147.523 21.2822 147.97 21.5284C148.421 21.7746 148.769 22.142 149.016 22.6307C149.266 23.1155 149.391 23.7216 149.391 24.4489V30H147.692V24.6534C147.692 24.0133 147.527 23.517 147.197 23.1648C146.868 22.8087 146.41 22.6307 145.822 22.6307C145.421 22.6307 145.061 22.7159 144.743 22.8864C144.429 23.0568 144.18 23.3068 143.999 23.6364C143.821 23.9621 143.732 24.3561 143.732 24.8182ZM165.693 22.1477H163.92C163.852 21.7689 163.725 21.4356 163.54 21.1477C163.354 20.8598 163.127 20.6155 162.858 20.4148C162.589 20.214 162.288 20.0625 161.955 19.9602C161.625 19.858 161.275 19.8068 160.903 19.8068C160.233 19.8068 159.633 19.9754 159.102 20.3125C158.576 20.6496 158.159 21.1439 157.852 21.7955C157.549 22.447 157.398 23.2424 157.398 24.1818C157.398 25.1288 157.549 25.928 157.852 26.5795C158.159 27.2311 158.578 27.7235 159.108 28.0568C159.638 28.3902 160.235 28.5568 160.898 28.5568C161.265 28.5568 161.614 28.5076 161.943 28.4091C162.277 28.3068 162.578 28.1572 162.847 27.9602C163.116 27.7633 163.343 27.5227 163.528 27.2386C163.718 26.9508 163.848 26.6212 163.92 26.25L165.693 26.2557C165.598 26.8277 165.415 27.3542 165.142 27.8352C164.873 28.3125 164.527 28.7254 164.102 29.0739C163.682 29.4186 163.201 29.6856 162.659 29.875C162.117 30.0644 161.527 30.1591 160.886 30.1591C159.879 30.1591 158.981 29.9205 158.193 29.4432C157.405 28.9621 156.784 28.2746 156.33 27.3807C155.879 26.4867 155.653 25.4205 155.653 24.1818C155.653 22.9394 155.881 21.8731 156.335 20.983C156.79 20.089 157.411 19.4034 158.199 18.9261C158.987 18.4451 159.883 18.2045 160.886 18.2045C161.504 18.2045 162.08 18.2936 162.614 18.4716C163.152 18.6458 163.634 18.9034 164.062 19.2443C164.491 19.5814 164.845 19.9943 165.125 20.483C165.405 20.9678 165.595 21.5227 165.693 22.1477ZM169.357 18.3636V30H167.658V18.3636H169.357ZM175.403 30.1761C174.544 30.1761 173.803 29.9924 173.182 29.625C172.564 29.2538 172.087 28.733 171.75 28.0625C171.417 27.3883 171.25 26.5985 171.25 25.6932C171.25 24.7992 171.417 24.0114 171.75 23.3295C172.087 22.6477 172.557 22.1155 173.159 21.733C173.765 21.3504 174.473 21.1591 175.284 21.1591C175.777 21.1591 176.254 21.2405 176.716 21.4034C177.178 21.5663 177.593 21.822 177.96 22.1705C178.328 22.5189 178.617 22.9716 178.83 23.5284C179.042 24.0814 179.148 24.7538 179.148 25.5455V26.1477H172.21V24.875H177.483C177.483 24.428 177.392 24.0322 177.21 23.6875C177.028 23.339 176.773 23.0644 176.443 22.8636C176.117 22.6629 175.735 22.5625 175.295 22.5625C174.818 22.5625 174.402 22.6799 174.045 22.9148C173.693 23.1458 173.42 23.4489 173.227 23.8239C173.038 24.1951 172.943 24.5985 172.943 25.0341V26.0284C172.943 26.6117 173.045 27.108 173.25 27.517C173.458 27.9261 173.748 28.2386 174.119 28.4545C174.491 28.6667 174.924 28.7727 175.42 28.7727C175.742 28.7727 176.036 28.7273 176.301 28.6364C176.566 28.5417 176.795 28.4015 176.989 28.2159C177.182 28.0303 177.33 27.8011 177.432 27.5284L179.04 27.8182C178.911 28.2917 178.68 28.7064 178.347 29.0625C178.017 29.4148 177.602 29.6894 177.102 29.8864C176.606 30.0795 176.04 30.1761 175.403 30.1761ZM188.249 21.2727L185.084 30H183.266L180.095 21.2727H181.919L184.129 27.9886H184.22L186.425 21.2727H188.249ZM193.31 30.1761C192.45 30.1761 191.709 29.9924 191.088 29.625C190.471 29.2538 189.993 28.733 189.656 28.0625C189.323 27.3883 189.156 26.5985 189.156 25.6932C189.156 24.7992 189.323 24.0114 189.656 23.3295C189.993 22.6477 190.463 22.1155 191.065 21.733C191.671 21.3504 192.38 21.1591 193.19 21.1591C193.683 21.1591 194.16 21.2405 194.622 21.4034C195.084 21.5663 195.499 21.822 195.866 22.1705C196.234 22.5189 196.524 22.9716 196.736 23.5284C196.948 24.0814 197.054 24.7538 197.054 25.5455V26.1477H190.116V24.875H195.389C195.389 24.428 195.298 24.0322 195.116 23.6875C194.935 23.339 194.679 23.0644 194.349 22.8636C194.024 22.6629 193.641 22.5625 193.202 22.5625C192.724 22.5625 192.308 22.6799 191.952 22.9148C191.599 23.1458 191.327 23.4489 191.134 23.8239C190.944 24.1951 190.849 24.5985 190.849 25.0341V26.0284C190.849 26.6117 190.952 27.108 191.156 27.517C191.365 27.9261 191.654 28.2386 192.026 28.4545C192.397 28.6667 192.83 28.7727 193.327 28.7727C193.649 28.7727 193.942 28.7273 194.207 28.6364C194.473 28.5417 194.702 28.4015 194.895 28.2159C195.088 28.0303 195.236 27.8011 195.338 27.5284L196.946 27.8182C196.817 28.2917 196.586 28.7064 196.253 29.0625C195.923 29.4148 195.509 29.6894 195.009 29.8864C194.512 30.0795 193.946 30.1761 193.31 30.1761ZM198.939 30V21.2727H200.581V22.6591H200.672C200.831 22.1894 201.111 21.8201 201.513 21.5511C201.918 21.2784 202.376 21.142 202.888 21.142C202.994 21.142 203.119 21.1458 203.263 21.1534C203.411 21.161 203.526 21.1705 203.609 21.1818V22.8068C203.541 22.7879 203.42 22.767 203.246 22.7443C203.071 22.7178 202.897 22.7045 202.723 22.7045C202.321 22.7045 201.964 22.7898 201.649 22.9602C201.339 23.1269 201.092 23.3598 200.911 23.6591C200.729 23.9545 200.638 24.2917 200.638 24.6705V30H198.939Z" fill="white"/><g clip-path="url(#clip1_4300_93957)"><path d="M237.284 22L232.154 27.1296L227.025 22L226.27 22.7552L231.399 27.8848L232.154 28.64L232.91 27.8848L238.039 22.7552L237.284 22Z" fill="white"/></g><defs><clipPath id="clip0_4300_93957"><rect width="21" height="21" fill="white" transform="translate(29 15)"/></clipPath><clipPath id="clip1_4300_93957"><rect width="11.7696" height="6.64" fill="white" transform="translate(226.27 22)"/></clipPath></defs></svg>