<svg xmlns="http://www.w3.org/2000/svg" xmlns:xlink="http://www.w3.org/1999/xlink" version="1.2" width="215.90mm" height="279.40mm" viewBox="0.0000 -0.0000 123.3869 159.6772">
<style type="text/css">
<![CDATA[
tspan { white-space: pre; }
]]>
</style>
<g transform="translate(52.1608, 15.6389)">
<text font-family="serif" font-size="4.4166" text-anchor="start" fill="currentColor">
<tspan>Ode to Joy</tspan>
</text>
</g>
<g transform="translate(94.3776, 19.1389)">
<text font-family="serif" font-size="2.2003" text-anchor="start" fill="currentColor">
<tspan>Ludwig van Beethoven</tspan>
</text>
</g>
<g transform="translate(37.9755, 23.8897)">
<rect x="0.0000" y="-2.0000" width="0.1905" height="4.0501" ry="0.0000" fill="currentColor"/>
</g>
<g transform="translate(18.0594, 25.8897)">
<line stroke-linejoin="round" stroke-linecap="round" stroke-width="0.1003" stroke="currentColor" x1="0.0501" y1="0" x2="96.7049" y2="0"/>
</g>
<g transform="translate(18.0594, 24.8897)">
<line stroke-linejoin="round" stroke-linecap="round" stroke-width="0.1003" stroke="currentColor" x1="0.0501" y1="0" x2="96.7049" y2="0"/>
</g>
<g transform="translate(18.0594, 23.8897)">
<line stroke-linejoin="round" stroke-linecap="round" stroke-width="0.1003" stroke="currentColor" x1="0.0501" y1="0" x2="96.7049" y2="0"/>
</g>
<g transform="translate(18.0594, 22.8897)">
<line stroke-linejoin="round" stroke-linecap="round" stroke-width="0.1003" stroke="currentColor" x1="0.0501" y1="0" x2="96.7049" y2="0"/>
</g>
<g transform="translate(18.0594, 21.8897)">
<line stroke-linejoin="round" stroke-linecap="round" stroke-width="0.1003" stroke="currentColor" x1="0.0501" y1="0" x2="96.7049" y2="0"/>
</g>
<g transform="translate(114.6239, 20.1137)">
<rect x="0.0000" y="5.8261" width="0.1905" height="4.9499" ry="0.0000" fill="currentColor"/>
</g>
<g transform="translate(114.1325, 20.1137)">
<rect x="0.0000" y="5.8261" width="0.1905" height="4.9499" ry="0.0000" fill="currentColor"/>
</g>
<g transform="translate(8.5725, 29.8897)">
<rect x="101.7511" y="-0.1001" width="2.0661" height="0.2003" ry="0.1001" fill="currentColor"/>
</g>
<g transform="translate(8.5725, 29.8897)">
<rect x="96.3288" y="-0.1001" width="2.0661" height="0.2003" ry="0.1001" fill="currentColor"/>
</g>
<g transform="translate(8.5725, 29.8897)">
<rect x="84.9253" y="-0.1001" width="2.9430" height="0.2003" ry="0.1001" fill="currentColor"/>
</g>
<g transform="translate(8.5725, 29.8897)">
<rect x="73.6239" y="-0.1001" width="2.9430" height="0.2003" ry="0.1001" fill="currentColor"/>
</g>
<g transform="translate(8.5725, 29.8897)">
<rect x="62.5255" y="-0.1001" width="2.9430" height="0.2003" ry="0.1001" fill="currentColor"/>
</g>
<g transform="translate(8.5725, 29.8897)">
<rect x="58.1510" y="-0.1001" width="2.0661" height="0.2003" ry="0.1001" fill="currentColor"/>
</g>
<g transform="translate(8.5725, 29.8897)">
<rect x="52.7470" y="-0.1001" width="2.0661" height="0.2003" ry="0.1001" fill="currentColor"/>
</g>
<g transform="translate(8.5725, 29.8897)">
<rect x="41.3449" y="-0.1001" width="2.9430" height="0.2003" ry="0.1001" fill="currentColor"/>
</g>
<g transform="translate(8.5725, 29.8897)">
<rect x="30.0435" y="-0.1001" width="2.9430" height="0.2003" ry="0.1001" fill="currentColor"/>
</g>
<g transform="translate(8.5725, 29.8897)">
<rect x="18.9451" y="-0.1001" width="2.9430" height="0.2003" ry="0.1001" fill="currentColor"/>
</g>
<g transform="translate(18.0594, 34.8897)">
<line stroke-linejoin="round" stroke-linecap="round" stroke-width="0.1003" stroke="currentColor" x1="0.0501" y1="0" x2="96.7049" y2="0"/>
</g>
<g transform="translate(18.0594, 33.8897)">
<line stroke-linejoin="round" stroke-linecap="round" stroke-width="0.1003" stroke="currentColor" x1="0.0501" y1="0" x2="96.7049" y2="0"/>
</g>
<g transform="translate(18.0594, 32.8897)">
<line stroke-linejoin="round" stroke-linecap="round" stroke-width="0.1003" stroke="currentColor" x1="0.0501" y1="0" x2="96.7049" y2="0"/>
</g>
<g transform="translate(18.0594, 31.8897)">
<line stroke-linejoin="round" stroke-linecap="round" stroke-width="0.1003" stroke="currentColor" x1="0.0501" y1="0" x2="96.7049" y2="0"/>
</g>
<g transform="translate(18.0594, 30.8897)">
<line stroke-linejoin="round" stroke-linecap="round" stroke-width="0.1003" stroke="currentColor" x1="0.0501" y1="0" x2="96.7049" y2="0"/>
</g>
<g transform="translate(114.6239, 32.8897)">
<rect x="0.0000" y="-2.0501" width="0.1905" height="4.0501" ry="0.0000" fill="currentColor"/>
</g>
<g transform="translate(114.1325, 32.8897)">
<rect x="0.0000" y="-2.0501" width="0.1905" height="4.0501" ry="0.0000" fill="currentColor"/>
</g>
<g transform="translate(114.6239, 23.8897)">
<rect x="0.0000" y="-2.0000" width="0.1905" height="4.0501" ry="0.0000" fill="currentColor"/>
</g>
<g transform="translate(114.1325, 23.8897)">
<rect x="0.0000" y="-2.0000" width="0.1905" height="4.0501" ry="0.0000" fill="currentColor"/>
</g>
<g transform="translate(104.0454, 20.1137)">
<rect x="0.0000" y="5.8261" width="0.1905" height="4.9499" ry="0.0000" fill="currentColor"/>
</g>
<g transform="translate(104.0454, 32.8897)">
<rect x="0.0000" y="-2.0501" width="0.1905" height="4.0501" ry="0.0000" fill="currentColor"/>
</g>
<g transform="translate(104.0454, 23.8897)">
<rect x="0.0000" y="-2.0000" width="0.1905" height="4.0501" ry="0.0000" fill="currentColor"/>
</g>
<g transform="translate(93.0060, 20.1137)">
<rect x="0.0000" y="5.8261" width="0.1905" height="4.9499" ry="0.0000" fill="currentColor"/>
</g>
<g transform="translate(93.0060, 32.8897)">
<rect x="0.0000" y="-2.0501" width="0.1905" height="4.0501" ry="0.0000" fill="currentColor"/>
</g>
<g transform="translate(93.0060, 23.8897)">
<rect x="0.0000" y="-2.0000" width="0.1905" height="4.0501" ry="0.0000" fill="currentColor"/>
</g>
<g transform="translate(81.5559, 20.1137)">
<rect x="0.0000" y="5.8261" width="0.1905" height="4.9499" ry="0.0000" fill="currentColor"/>
</g>
<g transform="translate(81.5559, 32.8897)">
<rect x="0.0000" y="-2.0501" width="0.1905" height="4.0501" ry="0.0000" fill="currentColor"/>
</g>
<g transform="translate(81.5559, 23.8897)">
<rect x="0.0000" y="-2.0000" width="0.1905" height="4.0501" ry="0.0000" fill="currentColor"/>
</g>
<g transform="translate(70.5146, 20.1137)">
<rect x="0.0000" y="5.8261" width="0.1905" height="4.9499" ry="0.0000" fill="currentColor"/>
</g>
<g transform="translate(70.5146, 32.8897)">
<rect x="0.0000" y="-2.0501" width="0.1905" height="4.0501" ry="0.0000" fill="currentColor"/>
</g>
<g transform="translate(70.5146, 23.8897)">
<rect x="0.0000" y="-2.0000" width="0.1905" height="4.0501" ry="0.0000" fill="currentColor"/>
</g>
<g transform="translate(60.4650, 20.1137)">
<rect x="0.0000" y="5.8261" width="0.1905" height="4.9499" ry="0.0000" fill="currentColor"/>
</g>
<g transform="translate(60.4650, 32.8897)">
<rect x="0.0000" y="-2.0501" width="0.1905" height="4.0501" ry="0.0000" fill="currentColor"/>
</g>
<g transform="translate(60.4650, 23.8897)">
<rect x="0.0000" y="-2.0000" width="0.1905" height="4.0501" ry="0.0000" fill="currentColor"/>
</g>
<g transform="translate(49.4256, 20.1137)">
<rect x="0.0000" y="5.8261" width="0.1905" height="4.9499" ry="0.0000" fill="currentColor"/>
</g>
<g transform="translate(49.4256, 32.8897)">
<rect x="0.0000" y="-2.0501" width="0.1905" height="4.0501" ry="0.0000" fill="currentColor"/>
</g>
<g transform="translate(49.4256, 23.8897)">
<rect x="0.0000" y="-2.0000" width="0.1905" height="4.0501" ry="0.0000" fill="currentColor"/>
</g>
<g transform="translate(37.9755, 20.1137)">
<rect x="0.0000" y="5.8261" width="0.1905" height="4.9499" ry="0.0000" fill="currentColor"/>
</g>
<g transform="translate(37.9755, 32.8897)">
<rect x="0.0000" y="-2.0501" width="0.1905" height="4.0501" ry="0.0000" fill="currentColor"/>
</g>
<g transform="translate(71.5885, 23.8897)">
<path transform="scale(0.0040, -0.0040)" d="M0 -46c0 91 116 182 217 182c63 0 109 -35 109 -90c0 -87 -110 -182 -220 -182c-67 0 -106 39 -106 90z" fill="currentColor"/>
</g>
<g transform="translate(30.5511, 23.8897)">
<path transform="scale(0.0040, -0.0040)" d="M0 -46c0 91 116 182 217 182c63 0 109 -35 109 -90c0 -87 -110 -182 -220 -182c-67 0 -106 39 -106 90z" fill="currentColor"/>
</g>
<g transform="translate(30.6163, 23.8897)">
<rect x="-0.0652" y="0.1862" width="0.1304" height="3.1471" ry="0.0402" fill="currentColor"/>
</g>
<g transform="translate(33.0941, 23.3897)">
<path transform="scale(0.0040, -0.0040)" d="M0 -46c0 91 116 182 217 182c63 0 109 -35 109 -90c0 -87 -110 -182 -220 -182c-67 0 -106 39 -106 90z" fill="currentColor"/>
</g>
<g transform="translate(33.1592, 23.8897)">
<rect x="-0.0652" y="-0.3138" width="0.1304" height="3.3138" ry="0.0402" fill="currentColor"/>
</g>
<g transform="translate(35.6371, 22.8897)">
<path transform="scale(0.0040, -0.0040)" d="M0 -46c0 91 116 182 217 182c63 0 109 -35 109 -90c0 -87 -110 -182 -220 -182c-67 0 -106 39 -106 90z" fill="currentColor"/>
</g>
<g transform="translate(35.7022, 23.8897)">
<rect x="-0.0652" y="-0.8138" width="0.1304" height="3.3138" ry="0.0402" fill="currentColor"/>
</g>
<g transform="translate(39.1065, 22.8897)">
<path transform="scale(0.0040, -0.0040)" d="M0 -46c0 91 116 182 217 182c63 0 109 -35 109 -90c0 -87 -110 -182 -220 -182c-67 0 -106 39 -106 90z" fill="currentColor"/>
</g>
<g transform="translate(39.1065, 31.8897)">
<path transform="scale(0.0040, -0.0040)" d="M347 -26c0 102 -89 139 -133 139c-23 0 -70 -10 -70 -89c0 -91 76 -136 132 -136c22 0 71 8 71 86zM245 136c144 0 246 -65 246 -136s-102 -136 -246 -136s-245 65 -245 136s101 136 245 136z" fill="currentColor"/>
</g>
<g transform="translate(39.1065, 30.8897)">
<path transform="scale(0.0040, -0.0040)" d="M347 -26c0 102 -89 139 -133 139c-23 0 -70 -10 -70 -89c0 -91 76 -136 132 -136c22 0 71 8 71 86zM245 136c144 0 246 -65 246 -136s-102 -136 -246 -136s-245 65 -245 136s101 136 245 136z" fill="currentColor"/>
</g>
<g transform="translate(39.1065, 29.3897)">
<path transform="scale(0.0040, -0.0040)" d="M347 -26c0 102 -89 139 -133 139c-23 0 -70 -10 -70 -89c0 -91 76 -136 132 -136c22 0 71 8 71 86zM245 136c144 0 246 -65 246 -136s-102 -136 -246 -136s-245 65 -245 136s101 136 245 136z" fill="currentColor"/>
</g>
<g transform="translate(39.1717, 23.8897)">
<rect x="-0.0652" y="-0.8138" width="0.1304" height="3.3138" ry="0.0402" fill="currentColor"/>
</g>
<g transform="translate(41.6495, 23.3897)">
<path transform="scale(0.0040, -0.0040)" d="M0 -46c0 91 116 182 217 182c63 0 109 -35 109 -90c0 -87 -110 -182 -220 -182c-67 0 -106 39 -106 90z" fill="currentColor"/>
</g>
<g transform="translate(41.7147, 23.8897)">
<rect x="-0.0652" y="-0.3138" width="0.1304" height="3.3138" ry="0.0402" fill="currentColor"/>
</g>
<g transform="translate(44.1925, 23.8897)">
<path transform="scale(0.0040, -0.0040)" d="M0 -46c0 91 116 182 217 182c63 0 109 -35 109 -90c0 -87 -110 -182 -220 -182c-67 0 -106 39 -106 90z" fill="currentColor"/>
</g>
<g transform="translate(44.2577, 23.8897)">
<rect x="-0.0652" y="0.1862" width="0.1304" height="3.1471" ry="0.0402" fill="currentColor"/>
</g>
<g transform="translate(46.7173, 24.3897)">
<path transform="scale(0.0040, -0.0040)" d="M0 -46c0 91 116 182 217 182c63 0 109 -35 109 -90c0 -87 -110 -182 -220 -182c-67 0 -106 39 -106 90z" fill="currentColor"/>
</g>
<g transform="translate(47.9563, 23.8897)">
<rect x="-0.0652" y="-3.0000" width="0.1304" height="3.3138" ry="0.0402" fill="currentColor"/>
</g>
<g transform="translate(50.4079, 24.8897)">
<path transform="scale(0.0040, -0.0040)" d="M0 -46c0 91 116 182 217 182c63 0 109 -35 109 -90c0 -87 -110 -182 -220 -182c-67 0 -106 39 -106 90z" fill="currentColor"/>
</g>
<g transform="translate(50.4079, 31.3897)">
<path transform="scale(0.0040, -0.0040)" d="M347 -26c0 102 -89 139 -133 139c-23 0 -70 -10 -70 -89c0 -91 76 -136 132 -136c22 0 71 8 71 86zM245 136c144 0 246 -65 246 -136s-102 -136 -246 -136s-245 65 -245 136s101 136 245 136z" fill="currentColor"/>
</g>
<g transform="translate(50.4079, 30.3897)">
<path transform="scale(0.0040, -0.0040)" d="M347 -26c0 102 -89 139 -133 139c-23 0 -70 -10 -70 -89c0 -91 76 -136 132 -136c22 0 71 8 71 86zM245 136c144 0 246 -65 246 -136s-102 -136 -246 -136s-245 65 -245 136s101 136 245 136z" fill="currentColor"/>
</g>
<g transform="translate(50.4079, 29.3897)">
<path transform="scale(0.0040, -0.0040)" d="M347 -26c0 102 -89 139 -133 139c-23 0 -70 -10 -70 -89c0 -91 76 -136 132 -136c22 0 71 8 71 86zM245 136c144 0 246 -65 246 -136s-102 -136 -246 -136s-245 65 -245 136s101 136 245 136z" fill="currentColor"/>
</g>
<g transform="translate(28.0733, 23.8897)">
<rect x="-0.0652" y="0.1862" width="0.1304" height="3.1471" ry="0.0402" fill="currentColor"/>
</g>
<g transform="translate(51.6469, 23.8897)">
<rect x="-0.0652" y="-2.5000" width="0.1304" height="3.3138" ry="0.0402" fill="currentColor"/>
</g>
<g transform="translate(24.6128, 32.8897)">
<path transform="scale(0.0040, -0.0040)" d="M196 117h117c0 -48 27 -94 72 -94c8 0 12 -5 12 -11s-4 -12 -12 -12c-44 0 -87 13 -131 13s-87 -13 -131 -13c-8 0 -12 6 -12 12s4 11 12 11c45 0 73 46 73 94zM225 487c36 0 69 14 76 14c8 0 14 -6 14 -12c0 -2 -1 -3 -2 -5l-284 -330h167v131c0 34 34 27 68 72
c22 30 23 56 36 56c6 0 13 -5 13 -14v-245h72c10 0 15 -7 15 -14s-5 -15 -15 -15h-72v-8h-117v8h-167c-23 0 -31 14 -31 23c0 12 140 143 140 336c0 9 6 16 13 16c5 0 39 -13 74 -13z" fill="currentColor"/>
</g>
<g transform="translate(24.6128, 34.8897)">
<path transform="scale(0.0040, -0.0040)" d="M196 117h117c0 -48 27 -94 72 -94c8 0 12 -5 12 -11s-4 -12 -12 -12c-44 0 -87 13 -131 13s-87 -13 -131 -13c-8 0 -12 6 -12 12s4 11 12 11c45 0 73 46 73 94zM225 487c36 0 69 14 76 14c8 0 14 -6 14 -12c0 -2 -1 -3 -2 -5l-284 -330h167v131c0 34 34 27 68 72
c22 30 23 56 36 56c6 0 13 -5 13 -14v-245h72c10 0 15 -7 15 -14s-5 -15 -15 -15h-72v-8h-117v8h-167c-23 0 -31 14 -31 23c0 12 140 143 140 336c0 9 6 16 13 16c5 0 39 -13 74 -13z" fill="currentColor"/>
</g>
<g transform="translate(52.9509, 24.8897)">
<path transform="scale(0.0040, -0.0040)" d="M0 -46c0 91 116 182 217 182c63 0 109 -35 109 -90c0 -87 -110 -182 -220 -182c-67 0 -106 39 -106 90z" fill="currentColor"/>
</g>
<g transform="translate(54.1899, 23.8897)">
<rect x="-0.0652" y="-2.5000" width="0.1304" height="3.3138" ry="0.0402" fill="currentColor"/>
</g>
<g transform="translate(55.4939, 24.3897)">
<path transform="scale(0.0040, -0.0040)" d="M0 -46c0 91 116 182 217 182c63 0 109 -35 109 -90c0 -87 -110 -182 -220 -182c-67 0 -106 39 -106 90z" fill="currentColor"/>
</g>
<g transform="translate(56.7329, 23.8897)">
<rect x="-0.0652" y="-3.0000" width="0.1304" height="3.3138" ry="0.0402" fill="currentColor"/>
</g>
<g transform="translate(58.0551, 23.8897)">
<path transform="scale(0.0040, -0.0040)" d="M0 -46c0 91 116 182 217 182c63 0 109 -35 109 -90c0 -87 -110 -182 -220 -182c-67 0 -106 39 -106 90z" fill="currentColor"/>
</g>
<g transform="translate(58.1203, 23.8897)">
<rect x="-0.0652" y="0.1862" width="0.1304" height="3.1471" ry="0.0402" fill="currentColor"/>
</g>
<g transform="translate(61.6638, 23.8897)">
<path transform="scale(0.0040, -0.0040)" d="M0 -46c0 91 116 182 217 182c63 0 109 -35 109 -90c0 -87 -110 -182 -220 -182c-67 0 -106 39 -106 90z" fill="currentColor"/>
</g>
<g transform="translate(22.3628, 31.8897)">
<path transform="scale(0.0040, -0.0040)" d="M0 119c0 8 5 15 13 18l46 17v158c0 10 8 19 18 19s19 -9 19 -19v-145l83 31v158c0 10 9 19 19 19s18 -9 18 -19v-145l32 12c2 1 5 1 7 1c11 0 20 -9 20 -20v-60c0 -8 -5 -16 -13 -19l-46 -16v-160l32 11c2 1 5 1 7 1c11 0 20 -9 20 -20v-60c0 -8 -5 -15 -13 -18l-46 -17
v-158c0 -10 -8 -19 -18 -19s-19 9 -19 19v145l-83 -31v-158c0 -10 -9 -19 -19 -19s-18 9 -18 19v145l-32 -12c-2 -1 -5 -1 -7 -1c-11 0 -20 9 -20 20v60c0 8 5 16 13 19l46 16v160l-32 -11c-2 -1 -5 -1 -7 -1c-11 0 -20 9 -20 20v60zM179 95l-83 -30v-160l83 30v160z" fill="currentColor"/>
</g>
<g transform="translate(61.6638, 31.3897)">
<path transform="scale(0.0040, -0.0040)" d="M72 -106c40 0 204 110 231 143c7 9 11 19 11 28c0 22 -18 41 -42 41c-40 0 -204 -110 -231 -143c-7 -9 -10 -19 -10 -28c0 -22 17 -41 41 -41zM0 -67c0 71 46 203 258 203c41 0 86 -10 86 -69c0 -71 -46 -203 -258 -203c-41 0 -86 10 -86 69z" fill="currentColor"/>
</g>
<g transform="translate(61.6638, 30.3897)">
<path transform="scale(0.0040, -0.0040)" d="M72 -106c40 0 204 110 231 143c7 9 11 19 11 28c0 22 -18 41 -42 41c-40 0 -204 -110 -231 -143c-7 -9 -10 -19 -10 -28c0 -22 17 -41 41 -41zM0 -67c0 71 46 203 258 203c41 0 86 -10 86 -69c0 -71 -46 -203 -258 -203c-41 0 -86 10 -86 69z" fill="currentColor"/>
</g>
<g transform="translate(61.6638, 29.3897)">
<path transform="scale(0.0040, -0.0040)" d="M72 -106c40 0 204 110 231 143c7 9 11 19 11 28c0 22 -18 41 -42 41c-40 0 -204 -110 -231 -143c-7 -9 -10 -19 -10 -28c0 -22 17 -41 41 -41zM0 -67c0 71 46 203 258 203c41 0 86 -10 86 -69c0 -71 -46 -203 -258 -203c-41 0 -86 10 -86 69z" fill="currentColor"/>
</g>
<g transform="translate(18.8594, 31.8897)">
<path transform="scale(0.0040, -0.0040)" d="M557 -125c0 28 23 51 51 51s51 -23 51 -51s-23 -51 -51 -51s-51 23 -51 51zM557 125c0 28 23 51 51 51s51 -23 51 -51s-23 -51 -51 -51s-51 23 -51 51zM232 263c172 0 293 -88 293 -251c0 -263 -263 -414 -516 -521c-3 -3 -6 -4 -9 -4c-7 0 -13 6 -13 13c0 3 1 6 4 9
c202 118 412 265 412 493c0 120 -63 235 -171 235c-74 0 -129 -54 -154 -126c11 5 22 8 34 8c55 0 100 -45 100 -100c0 -58 -44 -106 -100 -106c-60 0 -112 47 -112 106c0 133 102 244 232 244z" fill="currentColor"/>
</g>
<g transform="translate(63.4180, 23.3897)">
<path transform="scale(0.0040, -0.0040)" d="M0 0c0 31 25 56 56 56s56 -25 56 -56s-25 -56 -56 -56s-56 25 -56 56z" fill="currentColor"/>
</g>
<g transform="translate(61.7290, 23.8897)">
<rect x="-0.0652" y="0.1862" width="0.1304" height="3.1471" ry="0.0402" fill="currentColor"/>
</g>
<g transform="translate(61.7290, 32.8897)">
<rect x="-0.0652" y="-3.2410" width="0.1304" height="5.2410" ry="0.0402" fill="currentColor"/>
</g>
<g transform="translate(28.0081, 29.3897)">
<path transform="scale(0.0040, -0.0040)" d="M347 -26c0 102 -89 139 -133 139c-23 0 -70 -10 -70 -89c0 -91 76 -136 132 -136c22 0 71 8 71 86zM245 136c144 0 246 -65 246 -136s-102 -136 -246 -136s-245 65 -245 136s101 136 245 136z" fill="currentColor"/>
</g>
<g transform="translate(64.7007, 24.3897)">
<path transform="scale(0.0040, -0.0040)" d="M0 -46c0 91 116 182 217 182c63 0 109 -35 109 -90c0 -87 -110 -182 -220 -182c-67 0 -106 39 -106 90z" fill="currentColor"/>
</g>
<g transform="translate(65.9397, 23.8897)">
<rect x="-0.0652" y="-3.0000" width="0.1304" height="3.3138" ry="0.0402" fill="currentColor"/>
</g>
<g transform="translate(66.0049, 20.9299)">
<path transform="scale(0.0040, -0.0040)" d="M0 0v-375h-16v375h16zM123 -729c0 10 42 87 42 196c0 103 -94 208 -165 283v250c0 -197 207 -336 207 -533c0 -71 -15 -141 -41 -207c-5 -8 -13 -12 -20 -12c-12 0 -23 9 -23 23z" fill="currentColor"/>
</g>
<g transform="translate(67.0679, 24.3897)">
<path transform="scale(0.0040, -0.0040)" d="M72 -106c40 0 204 110 231 143c7 9 11 19 11 28c0 22 -18 41 -42 41c-40 0 -204 -110 -231 -143c-7 -9 -10 -19 -10 -28c0 -22 17 -41 41 -41zM0 -67c0 71 46 203 258 203c41 0 86 -10 86 -69c0 -71 -46 -203 -258 -203c-41 0 -86 10 -86 69z" fill="currentColor"/>
</g>
<g transform="translate(67.0679, 31.8897)">
<path transform="scale(0.0040, -0.0040)" d="M72 -106c40 0 204 110 231 143c7 9 11 19 11 28c0 22 -18 41 -42 41c-40 0 -204 -110 -231 -143c-7 -9 -10 -19 -10 -28c0 -22 17 -41 41 -41zM0 -67c0 71 46 203 258 203c41 0 86 -10 86 -69c0 -71 -46 -203 -258 -203c-41 0 -86 10 -86 69z" fill="currentColor"/>
</g>
<g transform="translate(67.0679, 30.8897)">
<path transform="scale(0.0040, -0.0040)" d="M72 -106c40 0 204 110 231 143c7 9 11 19 11 28c0 22 -18 41 -42 41c-40 0 -204 -110 -231 -143c-7 -9 -10 -19 -10 -28c0 -22 17 -41 41 -41zM0 -67c0 71 46 203 258 203c41 0 86 -10 86 -69c0 -71 -46 -203 -258 -203c-41 0 -86 10 -86 69z" fill="currentColor"/>
</g>
<g transform="translate(67.0679, 29.3897)">
<path transform="scale(0.0040, -0.0040)" d="M72 -106c40 0 204 110 231 143c7 9 11 19 11 28c0 22 -18 41 -42 41c-40 0 -204 -110 -231 -143c-7 -9 -10 -19 -10 -28c0 -22 17 -41 41 -41zM0 -67c0 71 46 203 258 203c41 0 86 -10 86 -69c0 -71 -46 -203 -258 -203c-41 0 -86 10 -86 69z" fill="currentColor"/>
</g>
<g transform="translate(68.3801, 23.8897)">
<rect x="-0.0652" y="-3.0000" width="0.1304" height="3.2410" ry="0.0402" fill="currentColor"/>
</g>
<g transform="translate(67.1331, 32.8897)">
<rect x="-0.0652" y="-3.2410" width="0.1304" height="5.7410" ry="0.0402" fill="currentColor"/>
</g>
<g transform="translate(28.0081, 30.3897)">
<path transform="scale(0.0040, -0.0040)" d="M347 -26c0 102 -89 139 -133 139c-23 0 -70 -10 -70 -89c0 -91 76 -136 132 -136c22 0 71 8 71 86zM245 136c144 0 246 -65 246 -136s-102 -136 -246 -136s-245 65 -245 136s101 136 245 136z" fill="currentColor"/>
</g>
<g transform="translate(28.0081, 31.3897)">
<path transform="scale(0.0040, -0.0040)" d="M347 -26c0 102 -89 139 -133 139c-23 0 -70 -10 -70 -89c0 -91 76 -136 132 -136c22 0 71 8 71 86zM245 136c144 0 246 -65 246 -136s-102 -136 -246 -136s-245 65 -245 136s101 136 245 136z" fill="currentColor"/>
</g>
<g transform="translate(71.5885, 31.3897)">
<path transform="scale(0.0040, -0.0040)" d="M347 -26c0 102 -89 139 -133 139c-23 0 -70 -10 -70 -89c0 -91 76 -136 132 -136c22 0 71 8 71 86zM245 136c144 0 246 -65 246 -136s-102 -136 -246 -136s-245 65 -245 136s101 136 245 136z" fill="currentColor"/>
</g>
<g transform="translate(71.5885, 30.3897)">
<path transform="scale(0.0040, -0.0040)" d="M347 -26c0 102 -89 139 -133 139c-23 0 -70 -10 -70 -89c0 -91 76 -136 132 -136c22 0 71 8 71 86zM245 136c144 0 246 -65 246 -136s-102 -136 -246 -136s-245 65 -245 136s101 136 245 136z" fill="currentColor"/>
</g>
<g transform="translate(71.5885, 29.3897)">
<path transform="scale(0.0040, -0.0040)" d="M347 -26c0 102 -89 139 -133 139c-23 0 -70 -10 -70 -89c0 -91 76 -136 132 -136c22 0 71 8 71 86zM245 136c144 0 246 -65 246 -136s-102 -136 -246 -136s-245 65 -245 136s101 136 245 136z" fill="currentColor"/>
</g>
<g transform="translate(24.6128, 23.8897)">
<path transform="scale(0.0040, -0.0040)" d="M196 117h117c0 -48 27 -94 72 -94c8 0 12 -5 12 -11s-4 -12 -12 -12c-44 0 -87 13 -131 13s-87 -13 -131 -13c-8 0 -12 6 -12 12s4 11 12 11c45 0 73 46 73 94zM225 487c36 0 69 14 76 14c8 0 14 -6 14 -12c0 -2 -1 -3 -2 -5l-284 -330h167v131c0 34 34 27 68 72
c22 30 23 56 36 56c6 0 13 -5 13 -14v-245h72c10 0 15 -7 15 -14s-5 -15 -15 -15h-72v-8h-117v8h-167c-23 0 -31 14 -31 23c0 12 140 143 140 336c0 9 6 16 13 16c5 0 39 -13 74 -13z" fill="currentColor"/>
</g>
<g transform="translate(24.6128, 25.8897)">
<path transform="scale(0.0040, -0.0040)" d="M196 117h117c0 -48 27 -94 72 -94c8 0 12 -5 12 -11s-4 -12 -12 -12c-44 0 -87 13 -131 13s-87 -13 -131 -13c-8 0 -12 6 -12 12s4 11 12 11c45 0 73 46 73 94zM225 487c36 0 69 14 76 14c8 0 14 -6 14 -12c0 -2 -1 -3 -2 -5l-284 -330h167v131c0 34 34 27 68 72
c22 30 23 56 36 56c6 0 13 -5 13 -14v-245h72c10 0 15 -7 15 -14s-5 -15 -15 -15h-72v-8h-117v8h-167c-23 0 -31 14 -31 23c0 12 140 143 140 336c0 9 6 16 13 16c5 0 39 -13 74 -13z" fill="currentColor"/>
</g>
<g transform="translate(71.6537, 23.8897)">
<rect x="-0.0652" y="0.1862" width="0.1304" height="3.1471" ry="0.0402" fill="currentColor"/>
</g>
<g transform="translate(22.3628, 21.8897)">
<path transform="scale(0.0040, -0.0040)" d="M0 119c0 8 5 15 13 18l46 17v158c0 10 8 19 18 19s19 -9 19 -19v-145l83 31v158c0 10 9 19 19 19s18 -9 18 -19v-145l32 12c2 1 5 1 7 1c11 0 20 -9 20 -20v-60c0 -8 -5 -16 -13 -19l-46 -16v-160l32 11c2 1 5 1 7 1c11 0 20 -9 20 -20v-60c0 -8 -5 -15 -13 -18l-46 -17
v-158c0 -10 -8 -19 -18 -19s-19 9 -19 19v145l-83 -31v-158c0 -10 -9 -19 -19 -19s-18 9 -18 19v145l-32 -12c-2 -1 -5 -1 -7 -1c-11 0 -20 9 -20 20v60c0 8 5 16 13 19l46 16v160l-32 -11c-2 -1 -5 -1 -7 -1c-11 0 -20 9 -20 20v60zM179 95l-83 -30v-160l83 30v160z" fill="currentColor"/>
</g>
<g transform="translate(110.7332, 32.8897)">
<rect x="-0.0652" y="-3.2410" width="0.1304" height="5.2410" ry="0.0402" fill="currentColor"/>
</g>
<g transform="translate(74.1315, 23.8897)">
<path transform="scale(0.0040, -0.0040)" d="M0 -46c0 91 116 182 217 182c63 0 109 -35 109 -90c0 -87 -110 -182 -220 -182c-67 0 -106 39 -106 90z" fill="currentColor"/>
</g>
<g transform="translate(74.1967, 23.8897)">
<rect x="-0.0652" y="0.1862" width="0.1304" height="3.1471" ry="0.0402" fill="currentColor"/>
</g>
<g transform="translate(76.6745, 23.3897)">
<path transform="scale(0.0040, -0.0040)" d="M0 -46c0 91 116 182 217 182c63 0 109 -35 109 -90c0 -87 -110 -182 -220 -182c-67 0 -106 39 -106 90z" fill="currentColor"/>
</g>
<g transform="translate(76.7397, 23.8897)">
<rect x="-0.0652" y="-0.3138" width="0.1304" height="3.3138" ry="0.0402" fill="currentColor"/>
</g>
<g transform="translate(79.2175, 22.8897)">
<path transform="scale(0.0040, -0.0040)" d="M0 -46c0 91 116 182 217 182c63 0 109 -35 109 -90c0 -87 -110 -182 -220 -182c-67 0 -106 39 -106 90z" fill="currentColor"/>
</g>
<g transform="translate(79.2827, 23.8897)">
<rect x="-0.0652" y="-0.8138" width="0.1304" height="3.3138" ry="0.0402" fill="currentColor"/>
</g>
<g transform="translate(111.9802, 23.8897)">
<rect x="-0.0652" y="-2.5000" width="0.1304" height="3.2410" ry="0.0402" fill="currentColor"/>
</g>
<g transform="translate(82.6870, 22.8897)">
<path transform="scale(0.0040, -0.0040)" d="M0 -46c0 91 116 182 217 182c63 0 109 -35 109 -90c0 -87 -110 -182 -220 -182c-67 0 -106 39 -106 90z" fill="currentColor"/>
</g>
<g transform="translate(18.8594, 24.8897)">
<path transform="scale(0.0040, -0.0040)" d="M266 -635h-6c-108 0 -195 88 -195 197c0 58 53 103 112 103c54 0 95 -47 95 -103c0 -52 -43 -95 -95 -95c-11 0 -21 2 -31 6c26 -39 68 -65 117 -65h4zM401 151c19 -89 48 -242 60 -354c76 27 112 94 112 163c0 89 -60 179 -172 191zM74 28c0 -112 98 -247 278 -247
c21 0 44 2 68 6c-7 64 -29 203 -63 364c-79 -8 -124 -61 -124 -119c0 -44 25 -91 81 -123c5 -5 7 -10 7 -15c0 -11 -10 -22 -22 -22c-15 0 -126 62 -126 187c0 88 58 174 160 197c-14 58 -29 117 -46 175c-107 -121 -213 -243 -213 -403zM357 1194c28 0 143 -206 143 -361
c0 -143 -86 -255 -180 -364c21 -68 39 -138 56 -207c5 0 10 1 14 1c155 0 255 -129 255 -262c0 -113 -74 -212 -180 -245c3 -35 5 -70 5 -105c0 -19 -1 -39 -2 -58c-7 -119 -88 -225 -202 -228l1 43c93 2 153 92 159 191c1 18 2 37 2 55c0 31 -1 61 -4 92
c-28 -5 -55 -8 -80 -8c-239 0 -342 217 -342 374c0 177 131 306 248 441c-29 96 -52 170 -52 346c0 189 144 295 159 295zM247 782c0 -55 12 -115 35 -190c82 100 147 202 147 326c0 40 -6 82 -21 127c-49 -24 -161 -97 -161 -263z" fill="currentColor"/>
</g>
<g transform="translate(82.6870, 31.8897)">
<path transform="scale(0.0040, -0.0040)" d="M347 -26c0 102 -89 139 -133 139c-23 0 -70 -10 -70 -89c0 -91 76 -136 132 -136c22 0 71 8 71 86zM245 136c144 0 246 -65 246 -136s-102 -136 -246 -136s-245 65 -245 136s101 136 245 136z" fill="currentColor"/>
</g>
<g transform="translate(82.6870, 30.8897)">
<path transform="scale(0.0040, -0.0040)" d="M347 -26c0 102 -89 139 -133 139c-23 0 -70 -10 -70 -89c0 -91 76 -136 132 -136c22 0 71 8 71 86zM245 136c144 0 246 -65 246 -136s-102 -136 -246 -136s-245 65 -245 136s101 136 245 136z" fill="currentColor"/>
</g>
<g transform="translate(82.6870, 29.3897)">
<path transform="scale(0.0040, -0.0040)" d="M347 -26c0 102 -89 139 -133 139c-23 0 -70 -10 -70 -89c0 -91 76 -136 132 -136c22 0 71 8 71 86zM245 136c144 0 246 -65 246 -136s-102 -136 -246 -136s-245 65 -245 136s101 136 245 136z" fill="currentColor"/>
</g>
<g transform="translate(28.0081, 23.8897)">
<path transform="scale(0.0040, -0.0040)" d="M0 -46c0 91 116 182 217 182c63 0 109 -35 109 -90c0 -87 -110 -182 -220 -182c-67 0 -106 39 -106 90z" fill="currentColor"/>
</g>
<g transform="translate(82.7521, 23.8897)">
<rect x="-0.0652" y="-0.8138" width="0.1304" height="3.3138" ry="0.0402" fill="currentColor"/>
</g>
<g transform="translate(110.6680, 29.3897)">
<path transform="scale(0.0040, -0.0040)" d="M72 -106c40 0 204 110 231 143c7 9 11 19 11 28c0 22 -18 41 -42 41c-40 0 -204 -110 -231 -143c-7 -9 -10 -19 -10 -28c0 -22 17 -41 41 -41zM0 -67c0 71 46 203 258 203c41 0 86 -10 86 -69c0 -71 -46 -203 -258 -203c-41 0 -86 10 -86 69z" fill="currentColor"/>
</g>
<g transform="translate(110.6680, 30.3897)">
<path transform="scale(0.0040, -0.0040)" d="M72 -106c40 0 204 110 231 143c7 9 11 19 11 28c0 22 -18 41 -42 41c-40 0 -204 -110 -231 -143c-7 -9 -10 -19 -10 -28c0 -22 17 -41 41 -41zM0 -67c0 71 46 203 258 203c41 0 86 -10 86 -69c0 -71 -46 -203 -258 -203c-41 0 -86 10 -86 69z" fill="currentColor"/>
</g>
<g transform="translate(85.2299, 23.3897)">
<path transform="scale(0.0040, -0.0040)" d="M0 -46c0 91 116 182 217 182c63 0 109 -35 109 -90c0 -87 -110 -182 -220 -182c-67 0 -106 39 -106 90z" fill="currentColor"/>
</g>
<g transform="translate(85.2951, 23.8897)">
<rect x="-0.0652" y="-0.3138" width="0.1304" height="3.3138" ry="0.0402" fill="currentColor"/>
</g>
<g transform="translate(110.6680, 31.3897)">
<path transform="scale(0.0040, -0.0040)" d="M72 -106c40 0 204 110 231 143c7 9 11 19 11 28c0 22 -18 41 -42 41c-40 0 -204 -110 -231 -143c-7 -9 -10 -19 -10 -28c0 -22 17 -41 41 -41zM0 -67c0 71 46 203 258 203c41 0 86 -10 86 -69c0 -71 -46 -203 -258 -203c-41 0 -86 10 -86 69z" fill="currentColor"/>
</g>
<g transform="translate(87.7729, 23.8897)">
<path transform="scale(0.0040, -0.0040)" d="M0 -46c0 91 116 182 217 182c63 0 109 -35 109 -90c0 -87 -110 -182 -220 -182c-67 0 -106 39 -106 90z" fill="currentColor"/>
</g>
<g transform="translate(87.8381, 23.8897)">
<rect x="-0.0652" y="0.1862" width="0.1304" height="3.1471" ry="0.0402" fill="currentColor"/>
</g>
<g transform="translate(110.6680, 24.8897)">
<path transform="scale(0.0040, -0.0040)" d="M72 -106c40 0 204 110 231 143c7 9 11 19 11 28c0 22 -18 41 -42 41c-40 0 -204 -110 -231 -143c-7 -9 -10 -19 -10 -28c0 -22 17 -41 41 -41zM0 -67c0 71 46 203 258 203c41 0 86 -10 86 -69c0 -71 -46 -203 -258 -203c-41 0 -86 10 -86 69z" fill="currentColor"/>
</g>
<g transform="translate(90.2977, 24.3897)">
<path transform="scale(0.0040, -0.0040)" d="M0 -46c0 91 116 182 217 182c63 0 109 -35 109 -90c0 -87 -110 -182 -220 -182c-67 0 -106 39 -106 90z" fill="currentColor"/>
</g>
<g transform="translate(91.5367, 23.8897)">
<rect x="-0.0652" y="-3.0000" width="0.1304" height="3.3138" ry="0.0402" fill="currentColor"/>
</g>
<g transform="translate(93.9883, 24.8897)">
<path transform="scale(0.0040, -0.0040)" d="M0 -46c0 91 116 182 217 182c63 0 109 -35 109 -90c0 -87 -110 -182 -220 -182c-67 0 -106 39 -106 90z" fill="currentColor"/>
</g>
<g transform="translate(109.6050, 21.4299)">
<path transform="scale(0.0040, -0.0040)" d="M0 0v-375h-16v375h16zM123 -729c0 10 42 87 42 196c0 103 -94 208 -165 283v250c0 -197 207 -336 207 -533c0 -71 -15 -141 -41 -207c-5 -8 -13 -12 -20 -12c-12 0 -23 9 -23 23z" fill="currentColor"/>
</g>
<g transform="translate(93.9883, 31.3897)">
<path transform="scale(0.0040, -0.0040)" d="M347 -26c0 102 -89 139 -133 139c-23 0 -70 -10 -70 -89c0 -91 76 -136 132 -136c22 0 71 8 71 86zM245 136c144 0 246 -65 246 -136s-102 -136 -246 -136s-245 65 -245 136s101 136 245 136z" fill="currentColor"/>
</g>
<g transform="translate(93.9883, 30.3897)">
<path transform="scale(0.0040, -0.0040)" d="M347 -26c0 102 -89 139 -133 139c-23 0 -70 -10 -70 -89c0 -91 76 -136 132 -136c22 0 71 8 71 86zM245 136c144 0 246 -65 246 -136s-102 -136 -246 -136s-245 65 -245 136s101 136 245 136z" fill="currentColor"/>
</g>
<g transform="translate(93.9883, 29.3897)">
<path transform="scale(0.0040, -0.0040)" d="M347 -26c0 102 -89 139 -133 139c-23 0 -70 -10 -70 -89c0 -91 76 -136 132 -136c22 0 71 8 71 86zM245 136c144 0 246 -65 246 -136s-102 -136 -246 -136s-245 65 -245 136s101 136 245 136z" fill="currentColor"/>
</g>
<g transform="translate(95.2273, 23.8897)">
<rect x="-0.0652" y="-2.5000" width="0.1304" height="3.3138" ry="0.0402" fill="currentColor"/>
</g>
<g transform="translate(96.5313, 24.8897)">
<path transform="scale(0.0040, -0.0040)" d="M0 -46c0 91 116 182 217 182c63 0 109 -35 109 -90c0 -87 -110 -182 -220 -182c-67 0 -106 39 -106 90z" fill="currentColor"/>
</g>
<g transform="translate(97.7703, 23.8897)">
<rect x="-0.0652" y="-2.5000" width="0.1304" height="3.3138" ry="0.0402" fill="currentColor"/>
</g>
<g transform="translate(109.5398, 23.8897)">
<rect x="-0.0652" y="-2.5000" width="0.1304" height="3.3138" ry="0.0402" fill="currentColor"/>
</g>
<g transform="translate(99.0743, 24.3897)">
<path transform="scale(0.0040, -0.0040)" d="M0 -46c0 91 116 182 217 182c63 0 109 -35 109 -90c0 -87 -110 -182 -220 -182c-67 0 -106 39 -106 90z" fill="currentColor"/>
</g>
<g transform="translate(100.3133, 23.8897)">
<rect x="-0.0652" y="-3.0000" width="0.1304" height="3.3138" ry="0.0402" fill="currentColor"/>
</g>
<g transform="translate(108.3008, 24.8897)">
<path transform="scale(0.0040, -0.0040)" d="M0 -46c0 91 116 182 217 182c63 0 109 -35 109 -90c0 -87 -110 -182 -220 -182c-67 0 -106 39 -106 90z" fill="currentColor"/>
</g>
<g transform="translate(101.6355, 23.8897)">
<path transform="scale(0.0040, -0.0040)" d="M0 -46c0 91 116 182 217 182c63 0 109 -35 109 -90c0 -87 -110 -182 -220 -182c-67 0 -106 39 -106 90z" fill="currentColor"/>
</g>
<g transform="translate(101.7007, 23.8897)">
<rect x="-0.0652" y="0.1862" width="0.1304" height="3.1471" ry="0.0402" fill="currentColor"/>
</g>
<g transform="translate(105.2457, 24.3897)">
<path transform="scale(0.0040, -0.0040)" d="M0 -46c0 91 116 182 217 182c63 0 109 -35 109 -90c0 -87 -110 -182 -220 -182c-67 0 -106 39 -106 90z" fill="currentColor"/>
</g>
<g transform="translate(17.9990, 28.3897)">
<rect x="0.0000" y="-6.5501" width="0.1605" height="13.1003" ry="0.0501" fill="currentColor"/>
</g>
<g transform="translate(105.2457, 31.8897)">
<path transform="scale(0.0040, -0.0040)" d="M72 -106c40 0 204 110 231 143c7 9 11 19 11 28c0 22 -18 41 -42 41c-40 0 -204 -110 -231 -143c-7 -9 -10 -19 -10 -28c0 -22 17 -41 41 -41zM0 -67c0 71 46 203 258 203c41 0 86 -10 86 -69c0 -71 -46 -203 -258 -203c-41 0 -86 10 -86 69z" fill="currentColor"/>
</g>
<g transform="translate(105.2457, 30.8897)">
<path transform="scale(0.0040, -0.0040)" d="M72 -106c40 0 204 110 231 143c7 9 11 19 11 28c0 22 -18 41 -42 41c-40 0 -204 -110 -231 -143c-7 -9 -10 -19 -10 -28c0 -22 17 -41 41 -41zM0 -67c0 71 46 203 258 203c41 0 86 -10 86 -69c0 -71 -46 -203 -258 -203c-41 0 -86 10 -86 69z" fill="currentColor"/>
</g>
<g transform="translate(105.2457, 29.3897)">
<path transform="scale(0.0040, -0.0040)" d="M72 -106c40 0 204 110 231 143c7 9 11 19 11 28c0 22 -18 41 -42 41c-40 0 -204 -110 -231 -143c-7 -9 -10 -19 -10 -28c0 -22 17 -41 41 -41zM0 -67c0 71 46 203 258 203c41 0 86 -10 86 -69c0 -71 -46 -203 -258 -203c-41 0 -86 10 -86 69z" fill="currentColor"/>
</g>
<g transform="translate(17.6990, 28.3897)">
<path transform="scale(0.0040, -0.0040)" d="M-84 -360c0 252 -129 357 -129 360c0 21 129 93 129 360c0 246 -105 537 -105 807c0 339 183 474 189 474c9 0 15 -6 15 -15c0 -24 -132 -93 -132 -366c0 -243 99 -525 99 -792c0 -168 -39 -330 -171 -468c132 -138 171 -300 171 -468c0 -267 -99 -549 -99 -792
c0 -273 132 -342 132 -366c0 -9 -6 -15 -15 -15c-6 0 -189 135 -189 474c0 270 105 561 105 807z" fill="currentColor"/>
</g>
<g transform="translate(106.9999, 24.3897)">
<path transform="scale(0.0040, -0.0040)" d="M0 0c0 31 25 56 56 56s56 -25 56 -56s-25 -56 -56 -56s-56 25 -56 56z" fill="currentColor"/>
</g>
<g transform="translate(106.4847, 23.8897)">
<rect x="-0.0652" y="-3.0000" width="0.1304" height="3.3138" ry="0.0402" fill="currentColor"/>
</g>
<g transform="translate(105.3108, 32.8897)">
<rect x="-0.0652" y="-3.2410" width="0.1304" height="5.7410" ry="0.0402" fill="currentColor"/>
</g>
<g transform="translate(9.3425, 29.1384)">
<text font-family="serif" font-size="2.2003" text-anchor="start" fill="currentColor">
<tspan>Piano</tspan>
</text>
</g>
<g transform="translate(33.2114, 44.8897)">
<rect x="0.0000" y="-2.0000" width="0.1905" height="4.0501" ry="0.0000" fill="currentColor"/>
</g>
<g transform="translate(16.1735, 46.8897)">
<line stroke-linejoin="round" stroke-linecap="round" stroke-width="0.1003" stroke="currentColor" x1="0.0501" y1="0" x2="98.5908" y2="0"/>
</g>
<g transform="translate(16.1735, 45.8897)">
<line stroke-linejoin="round" stroke-linecap="round" stroke-width="0.1003" stroke="currentColor" x1="0.0501" y1="0" x2="98.5908" y2="0"/>
</g>
<g transform="translate(16.1735, 44.8897)">
<line stroke-linejoin="round" stroke-linecap="round" stroke-width="0.1003" stroke="currentColor" x1="0.0501" y1="0" x2="98.5908" y2="0"/>
</g>
<g transform="translate(16.1735, 43.8897)">
<line stroke-linejoin="round" stroke-linecap="round" stroke-width="0.1003" stroke="currentColor" x1="0.0501" y1="0" x2="98.5908" y2="0"/>
</g>
<g transform="translate(16.1735, 42.8897)">
<line stroke-linejoin="round" stroke-linecap="round" stroke-width="0.1003" stroke="currentColor" x1="0.0501" y1="0" x2="98.5908" y2="0"/>
</g>
<g transform="translate(114.2127, 40.6357)">
<rect x="0.0000" y="6.3041" width="0.6017" height="4.9499" ry="0.0000" fill="currentColor"/>
</g>
<g transform="translate(113.7214, 40.6357)">
<rect x="0.0000" y="6.3041" width="0.1905" height="4.9499" ry="0.0000" fill="currentColor"/>
</g>
<g transform="translate(8.5725, 50.8897)">
<rect x="100.1582" y="-0.1001" width="2.9430" height="0.2003" ry="0.1001" fill="currentColor"/>
</g>
<g transform="translate(8.5725, 50.8897)">
<rect x="95.6014" y="-0.1001" width="2.0661" height="0.2003" ry="0.1001" fill="currentColor"/>
</g>
<g transform="translate(8.5725, 50.8897)">
<rect x="90.4435" y="-0.1001" width="2.0661" height="0.2003" ry="0.1001" fill="currentColor"/>
</g>
<g transform="translate(8.5725, 50.8897)">
<rect x="79.8379" y="-0.1001" width="2.9430" height="0.2003" ry="0.1001" fill="currentColor"/>
</g>
<g transform="translate(8.5725, 50.8897)">
<rect x="69.3289" y="-0.1001" width="2.9430" height="0.2003" ry="0.1001" fill="currentColor"/>
</g>
<g transform="translate(8.5725, 50.8897)">
<rect x="59.0284" y="-0.1001" width="2.9430" height="0.2003" ry="0.1001" fill="currentColor"/>
</g>
<g transform="translate(8.5725, 56.8897)">
<rect x="36.9678" y="-0.1001" width="2.0661" height="0.2003" ry="0.1001" fill="currentColor"/>
</g>
<g transform="translate(8.5725, 56.8897)">
<rect x="25.2328" y="-0.1001" width="2.0661" height="0.2003" ry="0.1001" fill="currentColor"/>
</g>
<g transform="translate(8.5725, 56.8897)">
<rect x="14.7413" y="-0.1001" width="2.0661" height="0.2003" ry="0.1001" fill="currentColor"/>
</g>
<g transform="translate(16.1735, 55.8897)">
<line stroke-linejoin="round" stroke-linecap="round" stroke-width="0.1003" stroke="currentColor" x1="0.0501" y1="0" x2="98.5908" y2="0"/>
</g>
<g transform="translate(16.1735, 54.8897)">
<line stroke-linejoin="round" stroke-linecap="round" stroke-width="0.1003" stroke="currentColor" x1="0.0501" y1="0" x2="98.5908" y2="0"/>
</g>
<g transform="translate(16.1735, 53.8897)">
<line stroke-linejoin="round" stroke-linecap="round" stroke-width="0.1003" stroke="currentColor" x1="0.0501" y1="0" x2="98.5908" y2="0"/>
</g>
<g transform="translate(16.1735, 52.8897)">
<line stroke-linejoin="round" stroke-linecap="round" stroke-width="0.1003" stroke="currentColor" x1="0.0501" y1="0" x2="98.5908" y2="0"/>
</g>
<g transform="translate(16.1735, 51.8897)">
<line stroke-linejoin="round" stroke-linecap="round" stroke-width="0.1003" stroke="currentColor" x1="0.0501" y1="0" x2="98.5908" y2="0"/>
</g>
<g transform="translate(114.2127, 53.8897)">
<rect x="0.0000" y="-2.0501" width="0.6017" height="4.0501" ry="0.0000" fill="currentColor"/>
</g>
<g transform="translate(113.7214, 53.8897)">
<rect x="0.0000" y="-2.0501" width="0.1905" height="4.0501" ry="0.0000" fill="currentColor"/>
</g>
<g transform="translate(114.2127, 44.8897)">
<rect x="0.0000" y="-2.0000" width="0.6017" height="4.0501" ry="0.0000" fill="currentColor"/>
</g>
<g transform="translate(113.7214, 44.8897)">
<rect x="0.0000" y="-2.0000" width="0.1905" height="4.0501" ry="0.0000" fill="currentColor"/>
</g>
<g transform="translate(107.6635, 40.6357)">
<rect x="0.0000" y="6.3041" width="0.1905" height="4.9499" ry="0.0000" fill="currentColor"/>
</g>
<g transform="translate(107.6635, 53.8897)">
<rect x="0.0000" y="-2.0501" width="0.1905" height="4.0501" ry="0.0000" fill="currentColor"/>
</g>
<g transform="translate(107.6635, 44.8897)">
<rect x="0.0000" y="-2.0000" width="0.1905" height="4.0501" ry="0.0000" fill="currentColor"/>
</g>
<g transform="translate(98.2097, 40.6357)">
<rect x="0.0000" y="6.3041" width="0.1905" height="4.9499" ry="0.0000" fill="currentColor"/>
</g>
<g transform="translate(98.2097, 53.8897)">
<rect x="0.0000" y="-2.0501" width="0.1905" height="4.0501" ry="0.0000" fill="currentColor"/>
</g>
<g transform="translate(98.2097, 44.8897)">
<rect x="0.0000" y="-2.0000" width="0.1905" height="4.0501" ry="0.0000" fill="currentColor"/>
</g>
<g transform="translate(87.9626, 40.6357)">
<rect x="0.0000" y="6.3041" width="0.1905" height="4.9499" ry="0.0000" fill="currentColor"/>
</g>
<g transform="translate(87.9626, 53.8897)">
<rect x="0.0000" y="-2.0501" width="0.1905" height="4.0501" ry="0.0000" fill="currentColor"/>
</g>
<g transform="translate(87.9626, 44.8897)">
<rect x="0.0000" y="-2.0000" width="0.1905" height="4.0501" ry="0.0000" fill="currentColor"/>
</g>
<g transform="translate(77.3105, 40.6357)">
<rect x="0.0000" y="6.3041" width="0.1905" height="4.9499" ry="0.0000" fill="currentColor"/>
</g>
<g transform="translate(77.3105, 53.8897)">
<rect x="0.0000" y="-2.0501" width="0.1905" height="4.0501" ry="0.0000" fill="currentColor"/>
</g>
<g transform="translate(77.3105, 44.8897)">
<rect x="0.0000" y="-2.0000" width="0.1905" height="4.0501" ry="0.0000" fill="currentColor"/>
</g>
<g transform="translate(67.0671, 40.6357)">
<rect x="0.0000" y="6.3041" width="0.1905" height="4.9499" ry="0.0000" fill="currentColor"/>
</g>
<g transform="translate(66.5757, 40.6357)">
<rect x="0.0000" y="6.3041" width="0.1905" height="4.9499" ry="0.0000" fill="currentColor"/>
</g>
<g transform="translate(67.0671, 53.8897)">
<rect x="0.0000" y="-2.0501" width="0.1905" height="4.0501" ry="0.0000" fill="currentColor"/>
</g>
<g transform="translate(66.5757, 53.8897)">
<rect x="0.0000" y="-2.0501" width="0.1905" height="4.0501" ry="0.0000" fill="currentColor"/>
</g>
<g transform="translate(67.0671, 44.8897)">
<rect x="0.0000" y="-2.0000" width="0.1905" height="4.0501" ry="0.0000" fill="currentColor"/>
</g>
<g transform="translate(66.5757, 44.8897)">
<rect x="0.0000" y="-2.0000" width="0.1905" height="4.0501" ry="0.0000" fill="currentColor"/>
</g>
<g transform="translate(56.7170, 40.6357)">
<rect x="0.0000" y="6.3041" width="0.1905" height="4.9499" ry="0.0000" fill="currentColor"/>
</g>
<g transform="translate(56.7170, 53.8897)">
<rect x="0.0000" y="-2.0501" width="0.1905" height="4.0501" ry="0.0000" fill="currentColor"/>
</g>
<g transform="translate(56.7170, 44.8897)">
<rect x="0.0000" y="-2.0000" width="0.1905" height="4.0501" ry="0.0000" fill="currentColor"/>
</g>
<g transform="translate(44.9463, 40.6357)">
<rect x="0.0000" y="6.3041" width="0.1905" height="4.9499" ry="0.0000" fill="currentColor"/>
</g>
<g transform="translate(44.9463, 53.8897)">
<rect x="0.0000" y="-2.0501" width="0.1905" height="4.0501" ry="0.0000" fill="currentColor"/>
</g>
<g transform="translate(44.9463, 44.8897)">
<rect x="0.0000" y="-2.0000" width="0.1905" height="4.0501" ry="0.0000" fill="currentColor"/>
</g>
<g transform="translate(33.2114, 40.6357)">
<rect x="0.0000" y="6.3041" width="0.1905" height="4.9499" ry="0.0000" fill="currentColor"/>
</g>
<g transform="translate(33.2114, 53.8897)">
<rect x="0.0000" y="-2.0501" width="0.1905" height="4.0501" ry="0.0000" fill="currentColor"/>
</g>
<g transform="translate(68.0914, 51.3897)">
<path transform="scale(0.0040, -0.0040)" d="M347 -26c0 102 -89 139 -133 139c-23 0 -70 -10 -70 -89c0 -91 76 -136 132 -136c22 0 71 8 71 86zM245 136c144 0 246 -65 246 -136s-102 -136 -246 -136s-245 65 -245 136s101 136 245 136z" fill="currentColor"/>
</g>
<g transform="translate(24.9704, 53.8897)">
<rect x="-0.0652" y="-0.0000" width="0.1304" height="3.2410" ry="0.0402" fill="currentColor"/>
</g>
<g transform="translate(26.0141, 45.3897)">
<path transform="scale(0.0040, -0.0040)" d="M0 -46c0 91 116 182 217 182c63 0 109 -35 109 -90c0 -87 -110 -182 -220 -182c-67 0 -106 39 -106 90z" fill="currentColor"/>
</g>
<g transform="translate(27.2531, 44.8897)">
<rect x="-0.0652" y="-3.0000" width="0.1304" height="3.3138" ry="0.0402" fill="currentColor"/>
</g>
<g transform="translate(28.3882, 44.8897)">
<path transform="scale(0.0040, -0.0040)" d="M0 -46c0 91 116 182 217 182c63 0 109 -35 109 -90c0 -87 -110 -182 -220 -182c-67 0 -106 39 -106 90z" fill="currentColor"/>
</g>
<g transform="translate(28.3882, 53.8897)">
<path transform="scale(0.0040, -0.0040)" d="M72 -106c40 0 204 110 231 143c7 9 11 19 11 28c0 22 -18 41 -42 41c-40 0 -204 -110 -231 -143c-7 -9 -10 -19 -10 -28c0 -22 17 -41 41 -41zM0 -67c0 71 46 203 258 203c41 0 86 -10 86 -69c0 -71 -46 -203 -258 -203c-41 0 -86 10 -86 69z" fill="currentColor"/>
</g>
<g transform="translate(28.3882, 52.3897)">
<path transform="scale(0.0040, -0.0040)" d="M72 -106c40 0 204 110 231 143c7 9 11 19 11 28c0 22 -18 41 -42 41c-40 0 -204 -110 -231 -143c-7 -9 -10 -19 -10 -28c0 -22 17 -41 41 -41zM0 -67c0 71 46 203 258 203c41 0 86 -10 86 -69c0 -71 -46 -203 -258 -203c-41 0 -86 10 -86 69z" fill="currentColor"/>
</g>
<g transform="translate(28.3882, 51.3897)">
<path transform="scale(0.0040, -0.0040)" d="M72 -106c40 0 204 110 231 143c7 9 11 19 11 28c0 22 -18 41 -42 41c-40 0 -204 -110 -231 -143c-7 -9 -10 -19 -10 -28c0 -22 17 -41 41 -41zM0 -67c0 71 46 203 258 203c41 0 86 -10 86 -69c0 -71 -46 -203 -258 -203c-41 0 -86 10 -86 69z" fill="currentColor"/>
</g>
<g transform="translate(28.4534, 44.8897)">
<rect x="-0.0652" y="0.1862" width="0.1304" height="3.1471" ry="0.0402" fill="currentColor"/>
</g>
<g transform="translate(28.4534, 53.8897)">
<rect x="-0.0652" y="-2.2410" width="0.1304" height="5.5743" ry="0.0402" fill="currentColor"/>
</g>
<g transform="translate(104.5183, 53.8897)">
<path stroke-width="0.0802" stroke-linejoin="round" stroke-linecap="round" stroke="currentColor" fill="currentColor" d="M0.8887 -4.5000C1.7400 -5.3092 4.6326 -5.3092 5.4839 -4.5000L5.4839 -4.5000C4.6326 -5.1888 1.7400 -5.1888 0.8887 -4.5000z"/>
</g>
<g transform="translate(30.6545, 45.8897)">
<path transform="scale(0.0040, -0.0040)" d="M0 -46c0 91 116 182 217 182c63 0 109 -35 109 -90c0 -87 -110 -182 -220 -182c-67 0 -106 39 -106 90z" fill="currentColor"/>
</g>
<g transform="translate(31.8935, 44.8897)">
<rect x="-0.0652" y="-2.5000" width="0.1304" height="3.3138" ry="0.0402" fill="currentColor"/>
</g>
<g transform="translate(104.5183, 53.8897)">
<path stroke-width="0.0802" stroke-linejoin="round" stroke-linecap="round" stroke="currentColor" fill="currentColor" d="M1.5774 -3.2250C2.2186 -3.9167 3.8617 -3.9167 4.5029 -3.2250L4.5029 -3.2250C3.8617 -3.7963 2.2186 -3.7963 1.5774 -3.2250z"/>
</g>
<g transform="translate(104.5183, 53.8897)">
<path stroke-width="0.0802" stroke-linejoin="round" stroke-linecap="round" stroke="currentColor" fill="currentColor" d="M0.8887 -0.7750C1.7400 0.0342 4.6326 0.0342 5.4839 -0.7750L5.4839 -0.7750C4.6326 -0.0862 1.7400 -0.0862 0.8887 -0.7750z"/>
</g>
<g transform="translate(34.1497, 45.3897)">
<path transform="scale(0.0040, -0.0040)" d="M0 -46c0 91 116 182 217 182c63 0 109 -35 109 -90c0 -87 -110 -182 -220 -182c-67 0 -106 39 -106 90z" fill="currentColor"/>
</g>
<g transform="translate(23.6582, 57.3897)">
<path transform="scale(0.0040, -0.0040)" d="M72 -106c40 0 204 110 231 143c7 9 11 19 11 28c0 22 -18 41 -42 41c-40 0 -204 -110 -231 -143c-7 -9 -10 -19 -10 -28c0 -22 17 -41 41 -41zM0 -67c0 71 46 203 258 203c41 0 86 -10 86 -69c0 -71 -46 -203 -258 -203c-41 0 -86 10 -86 69z" fill="currentColor"/>
</g>
<g transform="translate(34.1497, 57.3897)">
<path transform="scale(0.0040, -0.0040)" d="M72 -106c40 0 204 110 231 143c7 9 11 19 11 28c0 22 -18 41 -42 41c-40 0 -204 -110 -231 -143c-7 -9 -10 -19 -10 -28c0 -22 17 -41 41 -41zM0 -67c0 71 46 203 258 203c41 0 86 -10 86 -69c0 -71 -46 -203 -258 -203c-41 0 -86 10 -86 69z" fill="currentColor"/>
</g>
<g transform="translate(23.6582, 45.3897)">
<path transform="scale(0.0040, -0.0040)" d="M0 -46c0 91 116 182 217 182c63 0 109 -35 109 -90c0 -87 -110 -182 -220 -182c-67 0 -106 39 -106 90z" fill="currentColor"/>
</g>
<g transform="translate(35.3887, 44.8897)">
<rect x="-0.0652" y="-3.0000" width="0.1304" height="3.3138" ry="0.0402" fill="currentColor"/>
</g>
<g transform="translate(35.4619, 53.8897)">
<rect x="-0.0652" y="-0.0000" width="0.1304" height="3.2410" ry="0.0402" fill="currentColor"/>
</g>
<g transform="translate(104.5183, 44.8897)">
<path stroke-width="0.0802" stroke-linejoin="round" stroke-linecap="round" stroke="currentColor" fill="currentColor" d="M1.5774 1.2123C2.2186 1.9039 3.8617 1.9039 4.5029 1.2123L4.5029 1.2123C3.8617 1.7836 2.2186 1.7836 1.5774 1.2123z"/>
</g>
<g transform="translate(48.2588, 47.8897)">
<polygon stroke-linejoin="round" stroke-linecap="round" stroke-width="0.0803" fill="currentColor" stroke="currentColor" points="1.8899 -0.3897 1.8899 0.0100 0.0402 0.1998 0.0402 -0.1998"/>
</g>
<g transform="translate(36.5238, 44.8897)">
<path transform="scale(0.0040, -0.0040)" d="M0 -46c0 91 116 182 217 182c63 0 109 -35 109 -90c0 -87 -110 -182 -220 -182c-67 0 -106 39 -106 90z" fill="currentColor"/>
</g>
<g transform="translate(36.5890, 44.8897)">
<rect x="-0.0652" y="0.1862" width="0.1304" height="2.8074" ry="0.0402" fill="currentColor"/>
</g>
<g transform="translate(36.5238, 47.8897)">
<polygon stroke-linejoin="round" stroke-linecap="round" stroke-width="0.0803" fill="currentColor" stroke="currentColor" points="1.8899 -0.3897 1.8899 0.0100 0.0402 0.1998 0.0402 -0.1998"/>
</g>
<g transform="translate(38.3235, 44.3897)">
<path transform="scale(0.0040, -0.0040)" d="M0 -46c0 91 116 182 217 182c63 0 109 -35 109 -90c0 -87 -110 -182 -220 -182c-67 0 -106 39 -106 90z" fill="currentColor"/>
</g>
<g transform="translate(38.3887, 44.8897)">
<rect x="-0.0652" y="-0.3138" width="0.1304" height="3.1304" ry="0.0402" fill="currentColor"/>
</g>
<g transform="translate(40.1232, 44.8897)">
<path transform="scale(0.0040, -0.0040)" d="M0 -46c0 91 116 182 217 182c63 0 109 -35 109 -90c0 -87 -110 -182 -220 -182c-67 0 -106 39 -106 90z" fill="currentColor"/>
</g>
<g transform="translate(40.1232, 53.8897)">
<path transform="scale(0.0040, -0.0040)" d="M72 -106c40 0 204 110 231 143c7 9 11 19 11 28c0 22 -18 41 -42 41c-40 0 -204 -110 -231 -143c-7 -9 -10 -19 -10 -28c0 -22 17 -41 41 -41zM0 -67c0 71 46 203 258 203c41 0 86 -10 86 -69c0 -71 -46 -203 -258 -203c-41 0 -86 10 -86 69z" fill="currentColor"/>
</g>
<g transform="translate(40.1232, 52.3897)">
<path transform="scale(0.0040, -0.0040)" d="M72 -106c40 0 204 110 231 143c7 9 11 19 11 28c0 22 -18 41 -42 41c-40 0 -204 -110 -231 -143c-7 -9 -10 -19 -10 -28c0 -22 17 -41 41 -41zM0 -67c0 71 46 203 258 203c41 0 86 -10 86 -69c0 -71 -46 -203 -258 -203c-41 0 -86 10 -86 69z" fill="currentColor"/>
</g>
<g transform="translate(40.1232, 51.3897)">
<path transform="scale(0.0040, -0.0040)" d="M72 -106c40 0 204 110 231 143c7 9 11 19 11 28c0 22 -18 41 -42 41c-40 0 -204 -110 -231 -143c-7 -9 -10 -19 -10 -28c0 -22 17 -41 41 -41zM0 -67c0 71 46 203 258 203c41 0 86 -10 86 -69c0 -71 -46 -203 -258 -203c-41 0 -86 10 -86 69z" fill="currentColor"/>
</g>
<g transform="translate(40.1884, 44.8897)">
<rect x="-0.0652" y="0.1862" width="0.1304" height="3.1471" ry="0.0402" fill="currentColor"/>
</g>
<g transform="translate(40.1884, 53.8897)">
<rect x="-0.0652" y="-2.2410" width="0.1304" height="5.5743" ry="0.0402" fill="currentColor"/>
</g>
<g transform="translate(42.3894, 45.8897)">
<path transform="scale(0.0040, -0.0040)" d="M0 -46c0 91 116 182 217 182c63 0 109 -35 109 -90c0 -87 -110 -182 -220 -182c-67 0 -106 39 -106 90z" fill="currentColor"/>
</g>
<g transform="translate(43.6285, 44.8897)">
<rect x="-0.0652" y="-2.5000" width="0.1304" height="3.3138" ry="0.0402" fill="currentColor"/>
</g>
<g transform="translate(45.8846, 45.3897)">
<path transform="scale(0.0040, -0.0040)" d="M0 -46c0 91 116 182 217 182c63 0 109 -35 109 -90c0 -87 -110 -182 -220 -182c-67 0 -106 39 -106 90z" fill="currentColor"/>
</g>
<g transform="translate(45.8846, 57.3897)">
<path transform="scale(0.0040, -0.0040)" d="M72 -106c40 0 204 110 231 143c7 9 11 19 11 28c0 22 -18 41 -42 41c-40 0 -204 -110 -231 -143c-7 -9 -10 -19 -10 -28c0 -22 17 -41 41 -41zM0 -67c0 71 46 203 258 203c41 0 86 -10 86 -69c0 -71 -46 -203 -258 -203c-41 0 -86 10 -86 69z" fill="currentColor"/>
</g>
<g transform="translate(47.1236, 44.8897)">
<rect x="-0.0652" y="-3.0000" width="0.1304" height="3.3138" ry="0.0402" fill="currentColor"/>
</g>
<g transform="translate(47.1968, 53.8897)">
<rect x="-0.0652" y="-0.0000" width="0.1304" height="3.2410" ry="0.0402" fill="currentColor"/>
</g>
<g transform="translate(48.2588, 44.8897)">
<path transform="scale(0.0040, -0.0040)" d="M0 -46c0 91 116 182 217 182c63 0 109 -35 109 -90c0 -87 -110 -182 -220 -182c-67 0 -106 39 -106 90z" fill="currentColor"/>
</g>
<g transform="translate(48.3240, 44.8897)">
<rect x="-0.0652" y="0.1862" width="0.1304" height="2.8074" ry="0.0402" fill="currentColor"/>
</g>
<g transform="translate(50.0585, 44.3897)">
<path transform="scale(0.0040, -0.0040)" d="M0 -46c0 91 116 182 217 182c63 0 109 -35 109 -90c0 -87 -110 -182 -220 -182c-67 0 -106 39 -106 90z" fill="currentColor"/>
</g>
<g transform="translate(50.1236, 44.8897)">
<rect x="-0.0652" y="-0.3138" width="0.1304" height="3.1304" ry="0.0402" fill="currentColor"/>
</g>
<g transform="translate(51.8582, 44.8897)">
<path transform="scale(0.0040, -0.0040)" d="M0 -46c0 91 116 182 217 182c63 0 109 -35 109 -90c0 -87 -110 -182 -220 -182c-67 0 -106 39 -106 90z" fill="currentColor"/>
</g>
<g transform="translate(51.8582, 53.8897)">
<path transform="scale(0.0040, -0.0040)" d="M72 -106c40 0 204 110 231 143c7 9 11 19 11 28c0 22 -18 41 -42 41c-40 0 -204 -110 -231 -143c-7 -9 -10 -19 -10 -28c0 -22 17 -41 41 -41zM0 -67c0 71 46 203 258 203c41 0 86 -10 86 -69c0 -71 -46 -203 -258 -203c-41 0 -86 10 -86 69z" fill="currentColor"/>
</g>
<g transform="translate(51.8582, 52.3897)">
<path transform="scale(0.0040, -0.0040)" d="M72 -106c40 0 204 110 231 143c7 9 11 19 11 28c0 22 -18 41 -42 41c-40 0 -204 -110 -231 -143c-7 -9 -10 -19 -10 -28c0 -22 17 -41 41 -41zM0 -67c0 71 46 203 258 203c41 0 86 -10 86 -69c0 -71 -46 -203 -258 -203c-41 0 -86 10 -86 69z" fill="currentColor"/>
</g>
<g transform="translate(51.8582, 51.3897)">
<path transform="scale(0.0040, -0.0040)" d="M72 -106c40 0 204 110 231 143c7 9 11 19 11 28c0 22 -18 41 -42 41c-40 0 -204 -110 -231 -143c-7 -9 -10 -19 -10 -28c0 -22 17 -41 41 -41zM0 -67c0 71 46 203 258 203c41 0 86 -10 86 -69c0 -71 -46 -203 -258 -203c-41 0 -86 10 -86 69z" fill="currentColor"/>
</g>
<g transform="translate(51.9233, 44.8897)">
<rect x="-0.0652" y="0.1862" width="0.1304" height="3.1471" ry="0.0402" fill="currentColor"/>
</g>
<g transform="translate(51.9233, 53.8897)">
<rect x="-0.0652" y="-2.2410" width="0.1304" height="5.5743" ry="0.0402" fill="currentColor"/>
</g>
<g transform="translate(54.1958, 45.3897)">
<path transform="scale(0.0040, -0.0040)" d="M0 -46c0 91 116 182 217 182c63 0 109 -35 109 -90c0 -87 -110 -182 -220 -182c-67 0 -106 39 -106 90z" fill="currentColor"/>
</g>
<g transform="translate(55.4349, 44.8897)">
<rect x="-0.0652" y="-3.0000" width="0.1304" height="3.3138" ry="0.0402" fill="currentColor"/>
</g>
<g transform="translate(58.9576, 45.8897)">
<path transform="scale(0.0040, -0.0040)" d="M0 -46c0 91 116 182 217 182c63 0 109 -35 109 -90c0 -87 -110 -182 -220 -182c-67 0 -106 39 -106 90z" fill="currentColor"/>
</g>
<g transform="translate(58.9576, 54.3897)">
<path transform="scale(0.0040, -0.0040)" d="M72 -106c40 0 204 110 231 143c7 9 11 19 11 28c0 22 -18 41 -42 41c-40 0 -204 -110 -231 -143c-7 -9 -10 -19 -10 -28c0 -22 17 -41 41 -41zM0 -67c0 71 46 203 258 203c41 0 86 -10 86 -69c0 -71 -46 -203 -258 -203c-41 0 -86 10 -86 69z" fill="currentColor"/>
</g>
<g transform="translate(60.1966, 44.8897)">
<rect x="-0.0652" y="-2.5000" width="0.1304" height="3.3138" ry="0.0402" fill="currentColor"/>
</g>
<g transform="translate(60.2698, 53.8897)">
<rect x="-0.0652" y="-3.0000" width="0.1304" height="3.2410" ry="0.0402" fill="currentColor"/>
</g>
<g transform="translate(57.5076, 54.3897)">
<path transform="scale(0.0040, -0.0040)" d="M0 119c0 8 5 15 13 18l46 17v158c0 10 8 19 18 19s19 -9 19 -19v-145l83 31v158c0 10 9 19 19 19s18 -9 18 -19v-145l32 12c2 1 5 1 7 1c11 0 20 -9 20 -20v-60c0 -8 -5 -16 -13 -19l-46 -16v-160l32 11c2 1 5 1 7 1c11 0 20 -9 20 -20v-60c0 -8 -5 -15 -13 -18l-46 -17
v-158c0 -10 -8 -19 -18 -19s-19 9 -19 19v145l-83 -31v-158c0 -10 -9 -19 -19 -19s-18 9 -18 19v145l-32 -12c-2 -1 -5 -1 -7 -1c-11 0 -20 9 -20 20v60c0 8 5 16 13 19l46 16v160l-32 -11c-2 -1 -5 -1 -7 -1c-11 0 -20 9 -20 20v60zM179 95l-83 -30v-160l83 30v160z" fill="currentColor"/>
</g>
<g transform="translate(61.3135, 45.3897)">
<path transform="scale(0.0040, -0.0040)" d="M0 -46c0 91 116 182 217 182c63 0 109 -35 109 -90c0 -87 -110 -182 -220 -182c-67 0 -106 39 -106 90z" fill="currentColor"/>
</g>
<g transform="translate(62.5525, 44.8897)">
<rect x="-0.0652" y="-3.0000" width="0.1304" height="3.3138" ry="0.0402" fill="currentColor"/>
</g>
<g transform="translate(63.4194, 47.3897)">
<path transform="scale(0.0040, -0.0040)" d="M72 -106c40 0 204 110 231 143c7 9 11 19 11 28c0 22 -18 41 -42 41c-40 0 -204 -110 -231 -143c-7 -9 -10 -19 -10 -28c0 -22 17 -41 41 -41zM0 -67c0 71 46 203 258 203c41 0 86 -10 86 -69c0 -71 -46 -203 -258 -203c-41 0 -86 10 -86 69z" fill="currentColor"/>
</g>
<g transform="translate(63.4194, 53.8897)">
<path transform="scale(0.0040, -0.0040)" d="M72 -106c40 0 204 110 231 143c7 9 11 19 11 28c0 22 -18 41 -42 41c-40 0 -204 -110 -231 -143c-7 -9 -10 -19 -10 -28c0 -22 17 -41 41 -41zM0 -67c0 71 46 203 258 203c41 0 86 -10 86 -69c0 -71 -46 -203 -258 -203c-41 0 -86 10 -86 69z" fill="currentColor"/>
</g>
<g transform="translate(63.4194, 52.8897)">
<path transform="scale(0.0040, -0.0040)" d="M72 -106c40 0 204 110 231 143c7 9 11 19 11 28c0 22 -18 41 -42 41c-40 0 -204 -110 -231 -143c-7 -9 -10 -19 -10 -28c0 -22 17 -41 41 -41zM0 -67c0 71 46 203 258 203c41 0 86 -10 86 -69c0 -71 -46 -203 -258 -203c-41 0 -86 10 -86 69z" fill="currentColor"/>
</g>
<g transform="translate(63.4194, 51.8897)">
<path transform="scale(0.0040, -0.0040)" d="M72 -106c40 0 204 110 231 143c7 9 11 19 11 28c0 22 -18 41 -42 41c-40 0 -204 -110 -231 -143c-7 -9 -10 -19 -10 -28c0 -22 17 -41 41 -41zM0 -67c0 71 46 203 258 203c41 0 86 -10 86 -69c0 -71 -46 -203 -258 -203c-41 0 -86 10 -86 69z" fill="currentColor"/>
</g>
<g transform="translate(64.7316, 44.8897)">
<rect x="-0.0652" y="-1.0000" width="0.1304" height="3.2410" ry="0.0402" fill="currentColor"/>
</g>
<g transform="translate(63.4846, 53.8897)">
<rect x="-0.0652" y="-1.7410" width="0.1304" height="5.0743" ry="0.0402" fill="currentColor"/>
</g>
<g transform="translate(68.0914, 44.8897)">
<path transform="scale(0.0040, -0.0040)" d="M0 -46c0 91 116 182 217 182c63 0 109 -35 109 -90c0 -87 -110 -182 -220 -182c-67 0 -106 39 -106 90z" fill="currentColor"/>
</g>
<g transform="translate(68.0914, 52.3897)">
<path transform="scale(0.0040, -0.0040)" d="M347 -26c0 102 -89 139 -133 139c-23 0 -70 -10 -70 -89c0 -91 76 -136 132 -136c22 0 71 8 71 86zM245 136c144 0 246 -65 246 -136s-102 -136 -246 -136s-245 65 -245 136s101 136 245 136z" fill="currentColor"/>
</g>
<g transform="translate(68.0914, 50.3897)">
<path transform="scale(0.0040, -0.0040)" d="M347 -26c0 102 -89 139 -133 139c-23 0 -70 -10 -70 -89c0 -91 76 -136 132 -136c22 0 71 8 71 86zM245 136c144 0 246 -65 246 -136s-102 -136 -246 -136s-245 65 -245 136s101 136 245 136z" fill="currentColor"/>
</g>
<g transform="translate(68.1566, 44.8897)">
<rect x="-0.0652" y="0.1862" width="0.1304" height="3.1471" ry="0.0402" fill="currentColor"/>
</g>
<g transform="translate(24.8972, 44.8897)">
<rect x="-0.0652" y="-3.0000" width="0.1304" height="3.3138" ry="0.0402" fill="currentColor"/>
</g>
<g transform="translate(70.4473, 44.8897)">
<path transform="scale(0.0040, -0.0040)" d="M0 -46c0 91 116 182 217 182c63 0 109 -35 109 -90c0 -87 -110 -182 -220 -182c-67 0 -106 39 -106 90z" fill="currentColor"/>
</g>
<g transform="translate(70.5125, 44.8897)">
<rect x="-0.0652" y="0.1862" width="0.1304" height="3.1471" ry="0.0402" fill="currentColor"/>
</g>
<g transform="translate(72.8032, 44.3897)">
<path transform="scale(0.0040, -0.0040)" d="M0 -46c0 91 116 182 217 182c63 0 109 -35 109 -90c0 -87 -110 -182 -220 -182c-67 0 -106 39 -106 90z" fill="currentColor"/>
</g>
<g transform="translate(72.8684, 44.8897)">
<rect x="-0.0652" y="-0.3138" width="0.1304" height="3.3138" ry="0.0402" fill="currentColor"/>
</g>
<g transform="translate(75.1591, 43.8897)">
<path transform="scale(0.0040, -0.0040)" d="M0 -46c0 91 116 182 217 182c63 0 109 -35 109 -90c0 -87 -110 -182 -220 -182c-67 0 -106 39 -106 90z" fill="currentColor"/>
</g>
<g transform="translate(75.2243, 44.8897)">
<rect x="-0.0652" y="-0.8138" width="0.1304" height="3.3138" ry="0.0402" fill="currentColor"/>
</g>
<g transform="translate(78.3920, 43.8897)">
<path transform="scale(0.0040, -0.0040)" d="M0 -46c0 91 116 182 217 182c63 0 109 -35 109 -90c0 -87 -110 -182 -220 -182c-67 0 -106 39 -106 90z" fill="currentColor"/>
</g>
<g transform="translate(20.4769, 52.8897)">
<path transform="scale(0.0040, -0.0040)" d="M0 119c0 8 5 15 13 18l46 17v158c0 10 8 19 18 19s19 -9 19 -19v-145l83 31v158c0 10 9 19 19 19s18 -9 18 -19v-145l32 12c2 1 5 1 7 1c11 0 20 -9 20 -20v-60c0 -8 -5 -16 -13 -19l-46 -16v-160l32 11c2 1 5 1 7 1c11 0 20 -9 20 -20v-60c0 -8 -5 -15 -13 -18l-46 -17
v-158c0 -10 -8 -19 -18 -19s-19 9 -19 19v145l-83 -31v-158c0 -10 -9 -19 -19 -19s-18 9 -18 19v145l-32 -12c-2 -1 -5 -1 -7 -1c-11 0 -20 9 -20 20v60c0 8 5 16 13 19l46 16v160l-32 -11c-2 -1 -5 -1 -7 -1c-11 0 -20 9 -20 20v60zM179 95l-83 -30v-160l83 30v160z" fill="currentColor"/>
</g>
<g transform="translate(78.3920, 52.8897)">
<path transform="scale(0.0040, -0.0040)" d="M347 -26c0 102 -89 139 -133 139c-23 0 -70 -10 -70 -89c0 -91 76 -136 132 -136c22 0 71 8 71 86zM245 136c144 0 246 -65 246 -136s-102 -136 -246 -136s-245 65 -245 136s101 136 245 136z" fill="currentColor"/>
</g>
<g transform="translate(78.3920, 51.8897)">
<path transform="scale(0.0040, -0.0040)" d="M347 -26c0 102 -89 139 -133 139c-23 0 -70 -10 -70 -89c0 -91 76 -136 132 -136c22 0 71 8 71 86zM245 136c144 0 246 -65 246 -136s-102 -136 -246 -136s-245 65 -245 136s101 136 245 136z" fill="currentColor"/>
</g>
<g transform="translate(78.3920, 50.3897)">
<path transform="scale(0.0040, -0.0040)" d="M347 -26c0 102 -89 139 -133 139c-23 0 -70 -10 -70 -89c0 -91 76 -136 132 -136c22 0 71 8 71 86zM245 136c144 0 246 -65 246 -136s-102 -136 -246 -136s-245 65 -245 136s101 136 245 136z" fill="currentColor"/>
</g>
<g transform="translate(16.9735, 52.8897)">
<path transform="scale(0.0040, -0.0040)" d="M557 -125c0 28 23 51 51 51s51 -23 51 -51s-23 -51 -51 -51s-51 23 -51 51zM557 125c0 28 23 51 51 51s51 -23 51 -51s-23 -51 -51 -51s-51 23 -51 51zM232 263c172 0 293 -88 293 -251c0 -263 -263 -414 -516 -521c-3 -3 -6 -4 -9 -4c-7 0 -13 6 -13 13c0 3 1 6 4 9
c202 118 412 265 412 493c0 120 -63 235 -171 235c-74 0 -129 -54 -154 -126c11 5 22 8 34 8c55 0 100 -45 100 -100c0 -58 -44 -106 -100 -106c-60 0 -112 47 -112 106c0 133 102 244 232 244z" fill="currentColor"/>
</g>
<g transform="translate(78.4571, 44.8897)">
<rect x="-0.0652" y="-0.8138" width="0.1304" height="3.3138" ry="0.0402" fill="currentColor"/>
</g>
<g transform="translate(80.7479, 44.3897)">
<path transform="scale(0.0040, -0.0040)" d="M0 -46c0 91 116 182 217 182c63 0 109 -35 109 -90c0 -87 -110 -182 -220 -182c-67 0 -106 39 -106 90z" fill="currentColor"/>
</g>
<g transform="translate(80.8130, 44.8897)">
<rect x="-0.0652" y="-0.3138" width="0.1304" height="3.3138" ry="0.0402" fill="currentColor"/>
</g>
<g transform="translate(83.1038, 44.8897)">
<path transform="scale(0.0040, -0.0040)" d="M0 -46c0 91 116 182 217 182c63 0 109 -35 109 -90c0 -87 -110 -182 -220 -182c-67 0 -106 39 -106 90z" fill="currentColor"/>
</g>
<g transform="translate(83.1690, 44.8897)">
<rect x="-0.0652" y="0.1862" width="0.1304" height="3.1471" ry="0.0402" fill="currentColor"/>
</g>
<g transform="translate(85.4415, 45.3897)">
<path transform="scale(0.0040, -0.0040)" d="M0 -46c0 91 116 182 217 182c63 0 109 -35 109 -90c0 -87 -110 -182 -220 -182c-67 0 -106 39 -106 90z" fill="currentColor"/>
</g>
<g transform="translate(86.6805, 44.8897)">
<rect x="-0.0652" y="-3.0000" width="0.1304" height="3.3138" ry="0.0402" fill="currentColor"/>
</g>
<g transform="translate(8.9139, 50.1030)">
<text font-family="serif" font-size="2.2003" text-anchor="start" fill="currentColor">
<tspan>Pno.</tspan>
</text>
</g>
<g transform="translate(88.9009, 45.8897)">
<path transform="scale(0.0040, -0.0040)" d="M0 -46c0 91 116 182 217 182c63 0 109 -35 109 -90c0 -87 -110 -182 -220 -182c-67 0 -106 39 -106 90z" fill="currentColor"/>
</g>
<g transform="translate(20.4769, 42.8897)">
<path transform="scale(0.0040, -0.0040)" d="M0 119c0 8 5 15 13 18l46 17v158c0 10 8 19 18 19s19 -9 19 -19v-145l83 31v158c0 10 9 19 19 19s18 -9 18 -19v-145l32 12c2 1 5 1 7 1c11 0 20 -9 20 -20v-60c0 -8 -5 -16 -13 -19l-46 -16v-160l32 11c2 1 5 1 7 1c11 0 20 -9 20 -20v-60c0 -8 -5 -15 -13 -18l-46 -17
v-158c0 -10 -8 -19 -18 -19s-19 9 -19 19v145l-83 -31v-158c0 -10 -9 -19 -19 -19s-18 9 -18 19v145l-32 -12c-2 -1 -5 -1 -7 -1c-11 0 -20 9 -20 20v60c0 8 5 16 13 19l46 16v160l-32 -11c-2 -1 -5 -1 -7 -1c-11 0 -20 9 -20 20v60zM179 95l-83 -30v-160l83 30v160z" fill="currentColor"/>
</g>
<g transform="translate(88.9009, 52.3897)">
<path transform="scale(0.0040, -0.0040)" d="M347 -26c0 102 -89 139 -133 139c-23 0 -70 -10 -70 -89c0 -91 76 -136 132 -136c22 0 71 8 71 86zM245 136c144 0 246 -65 246 -136s-102 -136 -246 -136s-245 65 -245 136s101 136 245 136z" fill="currentColor"/>
</g>
<g transform="translate(88.9009, 51.3897)">
<path transform="scale(0.0040, -0.0040)" d="M347 -26c0 102 -89 139 -133 139c-23 0 -70 -10 -70 -89c0 -91 76 -136 132 -136c22 0 71 8 71 86zM245 136c144 0 246 -65 246 -136s-102 -136 -246 -136s-245 65 -245 136s101 136 245 136z" fill="currentColor"/>
</g>
<g transform="translate(88.9009, 50.3897)">
<path transform="scale(0.0040, -0.0040)" d="M347 -26c0 102 -89 139 -133 139c-23 0 -70 -10 -70 -89c0 -91 76 -136 132 -136c22 0 71 8 71 86zM245 136c144 0 246 -65 246 -136s-102 -136 -246 -136s-245 65 -245 136s101 136 245 136z" fill="currentColor"/>
</g>
<g transform="translate(16.9735, 45.8897)">
<path transform="scale(0.0040, -0.0040)" d="M266 -635h-6c-108 0 -195 88 -195 197c0 58 53 103 112 103c54 0 95 -47 95 -103c0 -52 -43 -95 -95 -95c-11 0 -21 2 -31 6c26 -39 68 -65 117 -65h4zM401 151c19 -89 48 -242 60 -354c76 27 112 94 112 163c0 89 -60 179 -172 191zM74 28c0 -112 98 -247 278 -247
c21 0 44 2 68 6c-7 64 -29 203 -63 364c-79 -8 -124 -61 -124 -119c0 -44 25 -91 81 -123c5 -5 7 -10 7 -15c0 -11 -10 -22 -22 -22c-15 0 -126 62 -126 187c0 88 58 174 160 197c-14 58 -29 117 -46 175c-107 -121 -213 -243 -213 -403zM357 1194c28 0 143 -206 143 -361
c0 -143 -86 -255 -180 -364c21 -68 39 -138 56 -207c5 0 10 1 14 1c155 0 255 -129 255 -262c0 -113 -74 -212 -180 -245c3 -35 5 -70 5 -105c0 -19 -1 -39 -2 -58c-7 -119 -88 -225 -202 -228l1 43c93 2 153 92 159 191c1 18 2 37 2 55c0 31 -1 61 -4 92
c-28 -5 -55 -8 -80 -8c-239 0 -342 217 -342 374c0 177 131 306 248 441c-29 96 -52 170 -52 346c0 189 144 295 159 295zM247 782c0 -55 12 -115 35 -190c82 100 147 202 147 326c0 40 -6 82 -21 127c-49 -24 -161 -97 -161 -263z" fill="currentColor"/>
</g>
<g transform="translate(90.1399, 44.8897)">
<rect x="-0.0652" y="-2.5000" width="0.1304" height="3.3138" ry="0.0402" fill="currentColor"/>
</g>
<g transform="translate(91.2568, 45.8897)">
<path transform="scale(0.0040, -0.0040)" d="M0 -46c0 91 116 182 217 182c63 0 109 -35 109 -90c0 -87 -110 -182 -220 -182c-67 0 -106 39 -106 90z" fill="currentColor"/>
</g>
<g transform="translate(92.4959, 44.8897)">
<rect x="-0.0652" y="-2.5000" width="0.1304" height="3.3138" ry="0.0402" fill="currentColor"/>
</g>
<g transform="translate(93.6128, 45.3897)">
<path transform="scale(0.0040, -0.0040)" d="M0 -46c0 91 116 182 217 182c63 0 109 -35 109 -90c0 -87 -110 -182 -220 -182c-67 0 -106 39 -106 90z" fill="currentColor"/>
</g>
<g transform="translate(94.8518, 44.8897)">
<rect x="-0.0652" y="-3.0000" width="0.1304" height="3.3138" ry="0.0402" fill="currentColor"/>
</g>
<g transform="translate(95.9869, 44.8897)">
<path transform="scale(0.0040, -0.0040)" d="M0 -46c0 91 116 182 217 182c63 0 109 -35 109 -90c0 -87 -110 -182 -220 -182c-67 0 -106 39 -106 90z" fill="currentColor"/>
</g>
<g transform="translate(96.0521, 44.8897)">
<rect x="-0.0652" y="0.1862" width="0.1304" height="3.1471" ry="0.0402" fill="currentColor"/>
</g>
<g transform="translate(99.3604, 45.3897)">
<path transform="scale(0.0040, -0.0040)" d="M0 -46c0 91 116 182 217 182c63 0 109 -35 109 -90c0 -87 -110 -182 -220 -182c-67 0 -106 39 -106 90z" fill="currentColor"/>
</g>
<g transform="translate(99.3604, 52.8897)">
<path transform="scale(0.0040, -0.0040)" d="M72 -106c40 0 204 110 231 143c7 9 11 19 11 28c0 22 -18 41 -42 41c-40 0 -204 -110 -231 -143c-7 -9 -10 -19 -10 -28c0 -22 17 -41 41 -41zM0 -67c0 71 46 203 258 203c41 0 86 -10 86 -69c0 -71 -46 -203 -258 -203c-41 0 -86 10 -86 69z" fill="currentColor"/>
</g>
<g transform="translate(99.3604, 51.8897)">
<path transform="scale(0.0040, -0.0040)" d="M72 -106c40 0 204 110 231 143c7 9 11 19 11 28c0 22 -18 41 -42 41c-40 0 -204 -110 -231 -143c-7 -9 -10 -19 -10 -28c0 -22 17 -41 41 -41zM0 -67c0 71 46 203 258 203c41 0 86 -10 86 -69c0 -71 -46 -203 -258 -203c-41 0 -86 10 -86 69z" fill="currentColor"/>
</g>
<g transform="translate(99.3604, 50.3897)">
<path transform="scale(0.0040, -0.0040)" d="M72 -106c40 0 204 110 231 143c7 9 11 19 11 28c0 22 -18 41 -42 41c-40 0 -204 -110 -231 -143c-7 -9 -10 -19 -10 -28c0 -22 17 -41 41 -41zM0 -67c0 71 46 203 258 203c41 0 86 -10 86 -69c0 -71 -46 -203 -258 -203c-41 0 -86 10 -86 69z" fill="currentColor"/>
</g>
<g transform="translate(101.1146, 45.3897)">
<path transform="scale(0.0040, -0.0040)" d="M0 0c0 31 25 56 56 56s56 -25 56 -56s-25 -56 -56 -56s-56 25 -56 56z" fill="currentColor"/>
</g>
<g transform="translate(100.5994, 44.8897)">
<rect x="-0.0652" y="-3.0000" width="0.1304" height="3.3138" ry="0.0402" fill="currentColor"/>
</g>
<g transform="translate(99.4255, 53.8897)">
<rect x="-0.0652" y="-3.2410" width="0.1304" height="5.7410" ry="0.0402" fill="currentColor"/>
</g>
<g transform="translate(102.1510, 45.8897)">
<path transform="scale(0.0040, -0.0040)" d="M0 -46c0 91 116 182 217 182c63 0 109 -35 109 -90c0 -87 -110 -182 -220 -182c-67 0 -106 39 -106 90z" fill="currentColor"/>
</g>
<g transform="translate(103.3901, 44.8897)">
<rect x="-0.0652" y="-2.5000" width="0.1304" height="3.3138" ry="0.0402" fill="currentColor"/>
</g>
<g transform="translate(103.4552, 42.4299)">
<path transform="scale(0.0040, -0.0040)" d="M0 0v-375h-16v375h16zM123 -729c0 10 42 87 42 196c0 103 -94 208 -165 283v250c0 -197 207 -336 207 -533c0 -71 -15 -141 -41 -207c-5 -8 -13 -12 -20 -12c-12 0 -23 9 -23 23z" fill="currentColor"/>
</g>
<g transform="translate(104.5183, 45.8897)">
<path transform="scale(0.0040, -0.0040)" d="M72 -106c40 0 204 110 231 143c7 9 11 19 11 28c0 22 -18 41 -42 41c-40 0 -204 -110 -231 -143c-7 -9 -10 -19 -10 -28c0 -22 17 -41 41 -41zM0 -67c0 71 46 203 258 203c41 0 86 -10 86 -69c0 -71 -46 -203 -258 -203c-41 0 -86 10 -86 69z" fill="currentColor"/>
</g>
<g transform="translate(104.5183, 52.3897)">
<path transform="scale(0.0040, -0.0040)" d="M72 -106c40 0 204 110 231 143c7 9 11 19 11 28c0 22 -18 41 -42 41c-40 0 -204 -110 -231 -143c-7 -9 -10 -19 -10 -28c0 -22 17 -41 41 -41zM0 -67c0 71 46 203 258 203c41 0 86 -10 86 -69c0 -71 -46 -203 -258 -203c-41 0 -86 10 -86 69z" fill="currentColor"/>
</g>
<g transform="translate(104.5183, 51.3897)">
<path transform="scale(0.0040, -0.0040)" d="M72 -106c40 0 204 110 231 143c7 9 11 19 11 28c0 22 -18 41 -42 41c-40 0 -204 -110 -231 -143c-7 -9 -10 -19 -10 -28c0 -22 17 -41 41 -41zM0 -67c0 71 46 203 258 203c41 0 86 -10 86 -69c0 -71 -46 -203 -258 -203c-41 0 -86 10 -86 69z" fill="currentColor"/>
</g>
<g transform="translate(104.5183, 50.3897)">
<path transform="scale(0.0040, -0.0040)" d="M72 -106c40 0 204 110 231 143c7 9 11 19 11 28c0 22 -18 41 -42 41c-40 0 -204 -110 -231 -143c-7 -9 -10 -19 -10 -28c0 -22 17 -41 41 -41zM0 -67c0 71 46 203 258 203c41 0 86 -10 86 -69c0 -71 -46 -203 -258 -203c-41 0 -86 10 -86 69z" fill="currentColor"/>
</g>
<g transform="translate(105.8305, 44.8897)">
<rect x="-0.0652" y="-2.5000" width="0.1304" height="3.2410" ry="0.0402" fill="currentColor"/>
</g>
<g transform="translate(104.5834, 53.8897)">
<rect x="-0.0652" y="-3.2410" width="0.1304" height="5.2410" ry="0.0402" fill="currentColor"/>
</g>
<g transform="translate(109.2212, 45.8897)">
<path transform="scale(0.0040, -0.0040)" d="M347 -26c0 102 -89 139 -133 139c-23 0 -70 -10 -70 -89c0 -91 76 -136 132 -136c22 0 71 8 71 86zM245 136c144 0 246 -65 246 -136s-102 -136 -246 -136s-245 65 -245 136s101 136 245 136z" fill="currentColor"/>
</g>
<g transform="translate(16.1130, 49.3897)">
<rect x="0.0000" y="-6.5501" width="0.1605" height="13.1003" ry="0.0501" fill="currentColor"/>
</g>
<g transform="translate(109.2212, 52.3897)">
<path transform="scale(0.0040, -0.0040)" d="M347 -26c0 102 -89 139 -133 139c-23 0 -70 -10 -70 -89c0 -91 76 -136 132 -136c22 0 71 8 71 86zM245 136c144 0 246 -65 246 -136s-102 -136 -246 -136s-245 65 -245 136s101 136 245 136z" fill="currentColor"/>
</g>
<g transform="translate(109.2212, 51.3897)">
<path transform="scale(0.0040, -0.0040)" d="M347 -26c0 102 -89 139 -133 139c-23 0 -70 -10 -70 -89c0 -91 76 -136 132 -136c22 0 71 8 71 86zM245 136c144 0 246 -65 246 -136s-102 -136 -246 -136s-245 65 -245 136s101 136 245 136z" fill="currentColor"/>
</g>
<g transform="translate(109.2212, 50.3897)">
<path transform="scale(0.0040, -0.0040)" d="M347 -26c0 102 -89 139 -133 139c-23 0 -70 -10 -70 -89c0 -91 76 -136 132 -136c22 0 71 8 71 86zM245 136c144 0 246 -65 246 -136s-102 -136 -246 -136s-245 65 -245 136s101 136 245 136z" fill="currentColor"/>
</g>
<g transform="translate(15.8130, 49.3897)">
<path transform="scale(0.0040, -0.0040)" d="M-84 -360c0 252 -129 357 -129 360c0 21 129 93 129 360c0 246 -105 537 -105 807c0 339 183 474 189 474c9 0 15 -6 15 -15c0 -24 -132 -93 -132 -366c0 -243 99 -525 99 -792c0 -168 -39 -330 -171 -468c132 -138 171 -300 171 -468c0 -267 -99 -549 -99 -792
c0 -273 132 -342 132 -366c0 -9 -6 -15 -15 -15c-6 0 -189 135 -189 474c0 270 105 561 105 807z" fill="currentColor"/>
</g>
<g transform="translate(15.3162, 41.8158)">
<text font-family="serif" font-size="1.7465" text-anchor="start" fill="currentColor">
<tspan>9</tspan>
</text>
</g>
<g transform="translate(54.0296, 150.6299)">
<a xlink:href="https://lilypond.org">
<rect x="0.0000" y="-0.4748" width="15.3276" height="2.0024" fill="none" stroke="none" stroke-width="0.0"/>
</a>
</g>
<g transform="translate(54.0296, 150.6299)">
<text font-family="serif" font-size="2.2003" text-anchor="start" fill="currentColor">
<tspan>LilyPond v2.26.0</tspan>
</text>
</g>
</svg>
