<svg xmlns="http://www.w3.org/2000/svg" xmlns:xlink="http://www.w3.org/1999/xlink" version="1.2" width="210.00mm" height="297.00mm" viewBox="0.0000 -0.0000 120.0151 169.7356">
<style type="text/css">
<![CDATA[
tspan { white-space: pre; }
]]>
</style>
<g transform="translate(50.4749, 12.7814)">
<text font-family="serif" font-size="4.4166" text-anchor="start" fill="currentColor">
<tspan>Ode to Joy</tspan>
</text>
</g>
<g transform="translate(91.0057, 16.2814)">
<text font-family="serif" font-size="2.2003" text-anchor="start" fill="currentColor">
<tspan>Ludwig van Beethoven</tspan>
</text>
</g>
<g transform="translate(40.3235, 21.0322)">
<rect x="0.0000" y="-2.0000" width="0.1905" height="4.0501" ry="0.0000" fill="currentColor"/>
</g>
<g transform="translate(17.1450, 23.0322)">
<line stroke-linejoin="round" stroke-linecap="round" stroke-width="0.1003" stroke="currentColor" x1="0.0501" y1="0" x2="94.2474" y2="0"/>
</g>
<g transform="translate(17.1450, 22.0322)">
<line stroke-linejoin="round" stroke-linecap="round" stroke-width="0.1003" stroke="currentColor" x1="0.0501" y1="0" x2="94.2474" y2="0"/>
</g>
<g transform="translate(17.1450, 21.0322)">
<line stroke-linejoin="round" stroke-linecap="round" stroke-width="0.1003" stroke="currentColor" x1="0.0501" y1="0" x2="94.2474" y2="0"/>
</g>
<g transform="translate(17.1450, 20.0322)">
<line stroke-linejoin="round" stroke-linecap="round" stroke-width="0.1003" stroke="currentColor" x1="0.0501" y1="0" x2="94.2474" y2="0"/>
</g>
<g transform="translate(17.1450, 19.0322)">
<line stroke-linejoin="round" stroke-linecap="round" stroke-width="0.1003" stroke="currentColor" x1="0.0501" y1="0" x2="94.2474" y2="0"/>
</g>
<g transform="translate(111.2520, 17.2562)">
<rect x="0.0000" y="5.8261" width="0.1905" height="4.9499" ry="0.0000" fill="currentColor"/>
</g>
<g transform="translate(8.5725, 27.0322)">
<rect x="88.8240" y="-0.1001" width="2.9430" height="0.2003" ry="0.1001" fill="currentColor"/>
</g>
<g transform="translate(8.5725, 27.0322)">
<rect x="74.4777" y="-0.1001" width="2.9430" height="0.2003" ry="0.1001" fill="currentColor"/>
</g>
<g transform="translate(8.5725, 27.0322)">
<rect x="68.6018" y="-0.1001" width="2.0661" height="0.2003" ry="0.1001" fill="currentColor"/>
</g>
<g transform="translate(8.5725, 27.0322)">
<rect x="61.7790" y="-0.1001" width="2.0661" height="0.2003" ry="0.1001" fill="currentColor"/>
</g>
<g transform="translate(8.5725, 27.0322)">
<rect x="47.1290" y="-0.1001" width="2.9430" height="0.2003" ry="0.1001" fill="currentColor"/>
</g>
<g transform="translate(8.5725, 27.0322)">
<rect x="32.5933" y="-0.1001" width="2.9430" height="0.2003" ry="0.1001" fill="currentColor"/>
</g>
<g transform="translate(8.5725, 27.0322)">
<rect x="18.2470" y="-0.1001" width="2.9430" height="0.2003" ry="0.1001" fill="currentColor"/>
</g>
<g transform="translate(17.1450, 32.0322)">
<line stroke-linejoin="round" stroke-linecap="round" stroke-width="0.1003" stroke="currentColor" x1="0.0501" y1="0" x2="94.2474" y2="0"/>
</g>
<g transform="translate(17.1450, 31.0322)">
<line stroke-linejoin="round" stroke-linecap="round" stroke-width="0.1003" stroke="currentColor" x1="0.0501" y1="0" x2="94.2474" y2="0"/>
</g>
<g transform="translate(17.1450, 30.0322)">
<line stroke-linejoin="round" stroke-linecap="round" stroke-width="0.1003" stroke="currentColor" x1="0.0501" y1="0" x2="94.2474" y2="0"/>
</g>
<g transform="translate(17.1450, 29.0322)">
<line stroke-linejoin="round" stroke-linecap="round" stroke-width="0.1003" stroke="currentColor" x1="0.0501" y1="0" x2="94.2474" y2="0"/>
</g>
<g transform="translate(17.1450, 28.0322)">
<line stroke-linejoin="round" stroke-linecap="round" stroke-width="0.1003" stroke="currentColor" x1="0.0501" y1="0" x2="94.2474" y2="0"/>
</g>
<g transform="translate(111.2520, 30.0322)">
<rect x="0.0000" y="-2.0501" width="0.1905" height="4.0501" ry="0.0000" fill="currentColor"/>
</g>
<g transform="translate(111.2520, 21.0322)">
<rect x="0.0000" y="-2.0000" width="0.1905" height="4.0501" ry="0.0000" fill="currentColor"/>
</g>
<g transform="translate(96.5541, 17.2562)">
<rect x="0.0000" y="5.8261" width="0.1905" height="4.9499" ry="0.0000" fill="currentColor"/>
</g>
<g transform="translate(96.5541, 30.0322)">
<rect x="0.0000" y="-2.0501" width="0.1905" height="4.0501" ry="0.0000" fill="currentColor"/>
</g>
<g transform="translate(96.5541, 21.0322)">
<rect x="0.0000" y="-2.0000" width="0.1905" height="4.0501" ry="0.0000" fill="currentColor"/>
</g>
<g transform="translate(82.2650, 17.2562)">
<rect x="0.0000" y="5.8261" width="0.1905" height="4.9499" ry="0.0000" fill="currentColor"/>
</g>
<g transform="translate(82.2650, 30.0322)">
<rect x="0.0000" y="-2.0501" width="0.1905" height="4.0501" ry="0.0000" fill="currentColor"/>
</g>
<g transform="translate(82.2650, 21.0322)">
<rect x="0.0000" y="-2.0000" width="0.1905" height="4.0501" ry="0.0000" fill="currentColor"/>
</g>
<g transform="translate(69.2952, 17.2562)">
<rect x="0.0000" y="5.8261" width="0.1905" height="4.9499" ry="0.0000" fill="currentColor"/>
</g>
<g transform="translate(69.2952, 30.0322)">
<rect x="0.0000" y="-2.0501" width="0.1905" height="4.0501" ry="0.0000" fill="currentColor"/>
</g>
<g transform="translate(69.2952, 21.0322)">
<rect x="0.0000" y="-2.0000" width="0.1905" height="4.0501" ry="0.0000" fill="currentColor"/>
</g>
<g transform="translate(55.0214, 17.2562)">
<rect x="0.0000" y="5.8261" width="0.1905" height="4.9499" ry="0.0000" fill="currentColor"/>
</g>
<g transform="translate(55.0214, 30.0322)">
<rect x="0.0000" y="-2.0501" width="0.1905" height="4.0501" ry="0.0000" fill="currentColor"/>
</g>
<g transform="translate(55.0214, 21.0322)">
<rect x="0.0000" y="-2.0000" width="0.1905" height="4.0501" ry="0.0000" fill="currentColor"/>
</g>
<g transform="translate(40.3235, 17.2562)">
<rect x="0.0000" y="5.8261" width="0.1905" height="4.9499" ry="0.0000" fill="currentColor"/>
</g>
<g transform="translate(40.3235, 30.0322)">
<rect x="0.0000" y="-2.0501" width="0.1905" height="4.0501" ry="0.0000" fill="currentColor"/>
</g>
<g transform="translate(27.3752, 21.0322)">
<rect x="-0.0652" y="0.1862" width="0.1304" height="3.1471" ry="0.0402" fill="currentColor"/>
</g>
<g transform="translate(30.6145, 21.0322)">
<path transform="scale(0.0040, -0.0040)" d="M0 -46c0 91 116 182 217 182c63 0 109 -35 109 -90c0 -87 -110 -182 -220 -182c-67 0 -106 39 -106 90z" fill="currentColor"/>
</g>
<g transform="translate(30.6797, 21.0322)">
<rect x="-0.0652" y="0.1862" width="0.1304" height="3.1471" ry="0.0402" fill="currentColor"/>
</g>
<g transform="translate(33.9191, 20.5322)">
<path transform="scale(0.0040, -0.0040)" d="M0 -46c0 91 116 182 217 182c63 0 109 -35 109 -90c0 -87 -110 -182 -220 -182c-67 0 -106 39 -106 90z" fill="currentColor"/>
</g>
<g transform="translate(33.9842, 21.0322)">
<rect x="-0.0652" y="-0.3138" width="0.1304" height="3.3138" ry="0.0402" fill="currentColor"/>
</g>
<g transform="translate(37.2236, 20.0322)">
<path transform="scale(0.0040, -0.0040)" d="M0 -46c0 91 116 182 217 182c63 0 109 -35 109 -90c0 -87 -110 -182 -220 -182c-67 0 -106 39 -106 90z" fill="currentColor"/>
</g>
<g transform="translate(37.2887, 21.0322)">
<rect x="-0.0652" y="-0.8138" width="0.1304" height="3.3138" ry="0.0402" fill="currentColor"/>
</g>
<g transform="translate(41.6564, 20.0322)">
<path transform="scale(0.0040, -0.0040)" d="M0 -46c0 91 116 182 217 182c63 0 109 -35 109 -90c0 -87 -110 -182 -220 -182c-67 0 -106 39 -106 90z" fill="currentColor"/>
</g>
<g transform="translate(21.4484, 29.0322)">
<path transform="scale(0.0040, -0.0040)" d="M0 119c0 8 5 15 13 18l46 17v158c0 10 8 19 18 19s19 -9 19 -19v-145l83 31v158c0 10 9 19 19 19s18 -9 18 -19v-145l32 12c2 1 5 1 7 1c11 0 20 -9 20 -20v-60c0 -8 -5 -16 -13 -19l-46 -16v-160l32 11c2 1 5 1 7 1c11 0 20 -9 20 -20v-60c0 -8 -5 -15 -13 -18l-46 -17
v-158c0 -10 -8 -19 -18 -19s-19 9 -19 19v145l-83 -31v-158c0 -10 -9 -19 -19 -19s-18 9 -18 19v145l-32 -12c-2 -1 -5 -1 -7 -1c-11 0 -20 9 -20 20v60c0 8 5 16 13 19l46 16v160l-32 -11c-2 -1 -5 -1 -7 -1c-11 0 -20 9 -20 20v60zM179 95l-83 -30v-160l83 30v160z" fill="currentColor"/>
</g>
<g transform="translate(41.6564, 29.0322)">
<path transform="scale(0.0040, -0.0040)" d="M347 -26c0 102 -89 139 -133 139c-23 0 -70 -10 -70 -89c0 -91 76 -136 132 -136c22 0 71 8 71 86zM245 136c144 0 246 -65 246 -136s-102 -136 -246 -136s-245 65 -245 136s101 136 245 136z" fill="currentColor"/>
</g>
<g transform="translate(41.6564, 28.0322)">
<path transform="scale(0.0040, -0.0040)" d="M347 -26c0 102 -89 139 -133 139c-23 0 -70 -10 -70 -89c0 -91 76 -136 132 -136c22 0 71 8 71 86zM245 136c144 0 246 -65 246 -136s-102 -136 -246 -136s-245 65 -245 136s101 136 245 136z" fill="currentColor"/>
</g>
<g transform="translate(41.6564, 26.5322)">
<path transform="scale(0.0040, -0.0040)" d="M347 -26c0 102 -89 139 -133 139c-23 0 -70 -10 -70 -89c0 -91 76 -136 132 -136c22 0 71 8 71 86zM245 136c144 0 246 -65 246 -136s-102 -136 -246 -136s-245 65 -245 136s101 136 245 136z" fill="currentColor"/>
</g>
<g transform="translate(17.9450, 29.0322)">
<path transform="scale(0.0040, -0.0040)" d="M557 -125c0 28 23 51 51 51s51 -23 51 -51s-23 -51 -51 -51s-51 23 -51 51zM557 125c0 28 23 51 51 51s51 -23 51 -51s-23 -51 -51 -51s-51 23 -51 51zM232 263c172 0 293 -88 293 -251c0 -263 -263 -414 -516 -521c-3 -3 -6 -4 -9 -4c-7 0 -13 6 -13 13c0 3 1 6 4 9
c202 118 412 265 412 493c0 120 -63 235 -171 235c-74 0 -129 -54 -154 -126c11 5 22 8 34 8c55 0 100 -45 100 -100c0 -58 -44 -106 -100 -106c-60 0 -112 47 -112 106c0 133 102 244 232 244z" fill="currentColor"/>
</g>
<g transform="translate(41.7215, 21.0322)">
<rect x="-0.0652" y="-0.8138" width="0.1304" height="3.3138" ry="0.0402" fill="currentColor"/>
</g>
<g transform="translate(27.3100, 26.5322)">
<path transform="scale(0.0040, -0.0040)" d="M347 -26c0 102 -89 139 -133 139c-23 0 -70 -10 -70 -89c0 -91 76 -136 132 -136c22 0 71 8 71 86zM245 136c144 0 246 -65 246 -136s-102 -136 -246 -136s-245 65 -245 136s101 136 245 136z" fill="currentColor"/>
</g>
<g transform="translate(44.9609, 20.5322)">
<path transform="scale(0.0040, -0.0040)" d="M0 -46c0 91 116 182 217 182c63 0 109 -35 109 -90c0 -87 -110 -182 -220 -182c-67 0 -106 39 -106 90z" fill="currentColor"/>
</g>
<g transform="translate(45.0260, 21.0322)">
<rect x="-0.0652" y="-0.3138" width="0.1304" height="3.3138" ry="0.0402" fill="currentColor"/>
</g>
<g transform="translate(48.2654, 21.0322)">
<path transform="scale(0.0040, -0.0040)" d="M0 -46c0 91 116 182 217 182c63 0 109 -35 109 -90c0 -87 -110 -182 -220 -182c-67 0 -106 39 -106 90z" fill="currentColor"/>
</g>
<g transform="translate(48.3305, 21.0322)">
<rect x="-0.0652" y="0.1862" width="0.1304" height="3.1471" ry="0.0402" fill="currentColor"/>
</g>
<g transform="translate(51.5516, 21.5322)">
<path transform="scale(0.0040, -0.0040)" d="M0 -46c0 91 116 182 217 182c63 0 109 -35 109 -90c0 -87 -110 -182 -220 -182c-67 0 -106 39 -106 90z" fill="currentColor"/>
</g>
<g transform="translate(52.7907, 21.0322)">
<rect x="-0.0652" y="-3.0000" width="0.1304" height="3.3138" ry="0.0402" fill="currentColor"/>
</g>
<g transform="translate(56.1921, 22.0322)">
<path transform="scale(0.0040, -0.0040)" d="M0 -46c0 91 116 182 217 182c63 0 109 -35 109 -90c0 -87 -110 -182 -220 -182c-67 0 -106 39 -106 90z" fill="currentColor"/>
</g>
<g transform="translate(27.3100, 27.5322)">
<path transform="scale(0.0040, -0.0040)" d="M347 -26c0 102 -89 139 -133 139c-23 0 -70 -10 -70 -89c0 -91 76 -136 132 -136c22 0 71 8 71 86zM245 136c144 0 246 -65 246 -136s-102 -136 -246 -136s-245 65 -245 136s101 136 245 136z" fill="currentColor"/>
</g>
<g transform="translate(56.1921, 28.5322)">
<path transform="scale(0.0040, -0.0040)" d="M347 -26c0 102 -89 139 -133 139c-23 0 -70 -10 -70 -89c0 -91 76 -136 132 -136c22 0 71 8 71 86zM245 136c144 0 246 -65 246 -136s-102 -136 -246 -136s-245 65 -245 136s101 136 245 136z" fill="currentColor"/>
</g>
<g transform="translate(56.1921, 27.5322)">
<path transform="scale(0.0040, -0.0040)" d="M347 -26c0 102 -89 139 -133 139c-23 0 -70 -10 -70 -89c0 -91 76 -136 132 -136c22 0 71 8 71 86zM245 136c144 0 246 -65 246 -136s-102 -136 -246 -136s-245 65 -245 136s101 136 245 136z" fill="currentColor"/>
</g>
<g transform="translate(56.1921, 26.5322)">
<path transform="scale(0.0040, -0.0040)" d="M347 -26c0 102 -89 139 -133 139c-23 0 -70 -10 -70 -89c0 -91 76 -136 132 -136c22 0 71 8 71 86zM245 136c144 0 246 -65 246 -136s-102 -136 -246 -136s-245 65 -245 136s101 136 245 136z" fill="currentColor"/>
</g>
<g transform="translate(27.3100, 28.5322)">
<path transform="scale(0.0040, -0.0040)" d="M347 -26c0 102 -89 139 -133 139c-23 0 -70 -10 -70 -89c0 -91 76 -136 132 -136c22 0 71 8 71 86zM245 136c144 0 246 -65 246 -136s-102 -136 -246 -136s-245 65 -245 136s101 136 245 136z" fill="currentColor"/>
</g>
<g transform="translate(57.4311, 21.0322)">
<rect x="-0.0652" y="-2.5000" width="0.1304" height="3.3138" ry="0.0402" fill="currentColor"/>
</g>
<g transform="translate(23.6984, 21.0322)">
<path transform="scale(0.0040, -0.0040)" d="M196 117h117c0 -48 27 -94 72 -94c8 0 12 -5 12 -11s-4 -12 -12 -12c-44 0 -87 13 -131 13s-87 -13 -131 -13c-8 0 -12 6 -12 12s4 11 12 11c45 0 73 46 73 94zM225 487c36 0 69 14 76 14c8 0 14 -6 14 -12c0 -2 -1 -3 -2 -5l-284 -330h167v131c0 34 34 27 68 72
c22 30 23 56 36 56c6 0 13 -5 13 -14v-245h72c10 0 15 -7 15 -14s-5 -15 -15 -15h-72v-8h-117v8h-167c-23 0 -31 14 -31 23c0 12 140 143 140 336c0 9 6 16 13 16c5 0 39 -13 74 -13z" fill="currentColor"/>
</g>
<g transform="translate(23.6984, 23.0322)">
<path transform="scale(0.0040, -0.0040)" d="M196 117h117c0 -48 27 -94 72 -94c8 0 12 -5 12 -11s-4 -12 -12 -12c-44 0 -87 13 -131 13s-87 -13 -131 -13c-8 0 -12 6 -12 12s4 11 12 11c45 0 73 46 73 94zM225 487c36 0 69 14 76 14c8 0 14 -6 14 -12c0 -2 -1 -3 -2 -5l-284 -330h167v131c0 34 34 27 68 72
c22 30 23 56 36 56c6 0 13 -5 13 -14v-245h72c10 0 15 -7 15 -14s-5 -15 -15 -15h-72v-8h-117v8h-167c-23 0 -31 14 -31 23c0 12 140 143 140 336c0 9 6 16 13 16c5 0 39 -13 74 -13z" fill="currentColor"/>
</g>
<g transform="translate(59.4966, 22.0322)">
<path transform="scale(0.0040, -0.0040)" d="M0 -46c0 91 116 182 217 182c63 0 109 -35 109 -90c0 -87 -110 -182 -220 -182c-67 0 -106 39 -106 90z" fill="currentColor"/>
</g>
<g transform="translate(60.7356, 21.0322)">
<rect x="-0.0652" y="-2.5000" width="0.1304" height="3.3138" ry="0.0402" fill="currentColor"/>
</g>
<g transform="translate(62.8011, 21.5322)">
<path transform="scale(0.0040, -0.0040)" d="M0 -46c0 91 116 182 217 182c63 0 109 -35 109 -90c0 -87 -110 -182 -220 -182c-67 0 -106 39 -106 90z" fill="currentColor"/>
</g>
<g transform="translate(64.0401, 21.0322)">
<rect x="-0.0652" y="-3.0000" width="0.1304" height="3.3138" ry="0.0402" fill="currentColor"/>
</g>
<g transform="translate(66.1238, 21.0322)">
<path transform="scale(0.0040, -0.0040)" d="M0 -46c0 91 116 182 217 182c63 0 109 -35 109 -90c0 -87 -110 -182 -220 -182c-67 0 -106 39 -106 90z" fill="currentColor"/>
</g>
<g transform="translate(66.1890, 21.0322)">
<rect x="-0.0652" y="0.1862" width="0.1304" height="3.1471" ry="0.0402" fill="currentColor"/>
</g>
<g transform="translate(70.6958, 21.0322)">
<path transform="scale(0.0040, -0.0040)" d="M0 -46c0 91 116 182 217 182c63 0 109 -35 109 -90c0 -87 -110 -182 -220 -182c-67 0 -106 39 -106 90z" fill="currentColor"/>
</g>
<g transform="translate(21.4484, 19.0322)">
<path transform="scale(0.0040, -0.0040)" d="M0 119c0 8 5 15 13 18l46 17v158c0 10 8 19 18 19s19 -9 19 -19v-145l83 31v158c0 10 9 19 19 19s18 -9 18 -19v-145l32 12c2 1 5 1 7 1c11 0 20 -9 20 -20v-60c0 -8 -5 -16 -13 -19l-46 -16v-160l32 11c2 1 5 1 7 1c11 0 20 -9 20 -20v-60c0 -8 -5 -15 -13 -18l-46 -17
v-158c0 -10 -8 -19 -18 -19s-19 9 -19 19v145l-83 -31v-158c0 -10 -9 -19 -19 -19s-18 9 -18 19v145l-32 -12c-2 -1 -5 -1 -7 -1c-11 0 -20 9 -20 20v60c0 8 5 16 13 19l46 16v160l-32 -11c-2 -1 -5 -1 -7 -1c-11 0 -20 9 -20 20v60zM179 95l-83 -30v-160l83 30v160z" fill="currentColor"/>
</g>
<g transform="translate(17.9450, 22.0322)">
<path transform="scale(0.0040, -0.0040)" d="M266 -635h-6c-108 0 -195 88 -195 197c0 58 53 103 112 103c54 0 95 -47 95 -103c0 -52 -43 -95 -95 -95c-11 0 -21 2 -31 6c26 -39 68 -65 117 -65h4zM401 151c19 -89 48 -242 60 -354c76 27 112 94 112 163c0 89 -60 179 -172 191zM74 28c0 -112 98 -247 278 -247
c21 0 44 2 68 6c-7 64 -29 203 -63 364c-79 -8 -124 -61 -124 -119c0 -44 25 -91 81 -123c5 -5 7 -10 7 -15c0 -11 -10 -22 -22 -22c-15 0 -126 62 -126 187c0 88 58 174 160 197c-14 58 -29 117 -46 175c-107 -121 -213 -243 -213 -403zM357 1194c28 0 143 -206 143 -361
c0 -143 -86 -255 -180 -364c21 -68 39 -138 56 -207c5 0 10 1 14 1c155 0 255 -129 255 -262c0 -113 -74 -212 -180 -245c3 -35 5 -70 5 -105c0 -19 -1 -39 -2 -58c-7 -119 -88 -225 -202 -228l1 43c93 2 153 92 159 191c1 18 2 37 2 55c0 31 -1 61 -4 92
c-28 -5 -55 -8 -80 -8c-239 0 -342 217 -342 374c0 177 131 306 248 441c-29 96 -52 170 -52 346c0 189 144 295 159 295zM247 782c0 -55 12 -115 35 -190c82 100 147 202 147 326c0 40 -6 82 -21 127c-49 -24 -161 -97 -161 -263z" fill="currentColor"/>
</g>
<g transform="translate(70.6958, 28.5322)">
<path transform="scale(0.0040, -0.0040)" d="M72 -106c40 0 204 110 231 143c7 9 11 19 11 28c0 22 -18 41 -42 41c-40 0 -204 -110 -231 -143c-7 -9 -10 -19 -10 -28c0 -22 17 -41 41 -41zM0 -67c0 71 46 203 258 203c41 0 86 -10 86 -69c0 -71 -46 -203 -258 -203c-41 0 -86 10 -86 69z" fill="currentColor"/>
</g>
<g transform="translate(70.6958, 27.5322)">
<path transform="scale(0.0040, -0.0040)" d="M72 -106c40 0 204 110 231 143c7 9 11 19 11 28c0 22 -18 41 -42 41c-40 0 -204 -110 -231 -143c-7 -9 -10 -19 -10 -28c0 -22 17 -41 41 -41zM0 -67c0 71 46 203 258 203c41 0 86 -10 86 -69c0 -71 -46 -203 -258 -203c-41 0 -86 10 -86 69z" fill="currentColor"/>
</g>
<g transform="translate(70.6958, 26.5322)">
<path transform="scale(0.0040, -0.0040)" d="M72 -106c40 0 204 110 231 143c7 9 11 19 11 28c0 22 -18 41 -42 41c-40 0 -204 -110 -231 -143c-7 -9 -10 -19 -10 -28c0 -22 17 -41 41 -41zM0 -67c0 71 46 203 258 203c41 0 86 -10 86 -69c0 -71 -46 -203 -258 -203c-41 0 -86 10 -86 69z" fill="currentColor"/>
</g>
<g transform="translate(27.3100, 21.0322)">
<path transform="scale(0.0040, -0.0040)" d="M0 -46c0 91 116 182 217 182c63 0 109 -35 109 -90c0 -87 -110 -182 -220 -182c-67 0 -106 39 -106 90z" fill="currentColor"/>
</g>
<g transform="translate(72.4500, 20.5322)">
<path transform="scale(0.0040, -0.0040)" d="M0 0c0 31 25 56 56 56s56 -25 56 -56s-25 -56 -56 -56s-56 25 -56 56z" fill="currentColor"/>
</g>
<g transform="translate(70.7610, 21.0322)">
<rect x="-0.0652" y="0.1862" width="0.1304" height="3.1471" ry="0.0402" fill="currentColor"/>
</g>
<g transform="translate(23.6984, 30.0322)">
<path transform="scale(0.0040, -0.0040)" d="M196 117h117c0 -48 27 -94 72 -94c8 0 12 -5 12 -11s-4 -12 -12 -12c-44 0 -87 13 -131 13s-87 -13 -131 -13c-8 0 -12 6 -12 12s4 11 12 11c45 0 73 46 73 94zM225 487c36 0 69 14 76 14c8 0 14 -6 14 -12c0 -2 -1 -3 -2 -5l-284 -330h167v131c0 34 34 27 68 72
c22 30 23 56 36 56c6 0 13 -5 13 -14v-245h72c10 0 15 -7 15 -14s-5 -15 -15 -15h-72v-8h-117v8h-167c-23 0 -31 14 -31 23c0 12 140 143 140 336c0 9 6 16 13 16c5 0 39 -13 74 -13z" fill="currentColor"/>
</g>
<g transform="translate(23.6984, 32.0322)">
<path transform="scale(0.0040, -0.0040)" d="M196 117h117c0 -48 27 -94 72 -94c8 0 12 -5 12 -11s-4 -12 -12 -12c-44 0 -87 13 -131 13s-87 -13 -131 -13c-8 0 -12 6 -12 12s4 11 12 11c45 0 73 46 73 94zM225 487c36 0 69 14 76 14c8 0 14 -6 14 -12c0 -2 -1 -3 -2 -5l-284 -330h167v131c0 34 34 27 68 72
c22 30 23 56 36 56c6 0 13 -5 13 -14v-245h72c10 0 15 -7 15 -14s-5 -15 -15 -15h-72v-8h-117v8h-167c-23 0 -31 14 -31 23c0 12 140 143 140 336c0 9 6 16 13 16c5 0 39 -13 74 -13z" fill="currentColor"/>
</g>
<g transform="translate(70.7610, 30.0322)">
<rect x="-0.0652" y="-3.2410" width="0.1304" height="5.2410" ry="0.0402" fill="currentColor"/>
</g>
<g transform="translate(74.8090, 21.5322)">
<path transform="scale(0.0040, -0.0040)" d="M0 -46c0 91 116 182 217 182c63 0 109 -35 109 -90c0 -87 -110 -182 -220 -182c-67 0 -106 39 -106 90z" fill="currentColor"/>
</g>
<g transform="translate(76.0480, 21.0322)">
<rect x="-0.0652" y="-3.0000" width="0.1304" height="3.3138" ry="0.0402" fill="currentColor"/>
</g>
<g transform="translate(76.1132, 18.0724)">
<path transform="scale(0.0040, -0.0040)" d="M0 0v-375h-16v375h16zM123 -729c0 10 42 87 42 196c0 103 -94 208 -165 283v250c0 -197 207 -336 207 -533c0 -71 -15 -141 -41 -207c-5 -8 -13 -12 -20 -12c-12 0 -23 9 -23 23z" fill="currentColor"/>
</g>
<g transform="translate(77.5186, 21.5322)">
<path transform="scale(0.0040, -0.0040)" d="M72 -106c40 0 204 110 231 143c7 9 11 19 11 28c0 22 -18 41 -42 41c-40 0 -204 -110 -231 -143c-7 -9 -10 -19 -10 -28c0 -22 17 -41 41 -41zM0 -67c0 71 46 203 258 203c41 0 86 -10 86 -69c0 -71 -46 -203 -258 -203c-41 0 -86 10 -86 69z" fill="currentColor"/>
</g>
<g transform="translate(77.5186, 29.0322)">
<path transform="scale(0.0040, -0.0040)" d="M72 -106c40 0 204 110 231 143c7 9 11 19 11 28c0 22 -18 41 -42 41c-40 0 -204 -110 -231 -143c-7 -9 -10 -19 -10 -28c0 -22 17 -41 41 -41zM0 -67c0 71 46 203 258 203c41 0 86 -10 86 -69c0 -71 -46 -203 -258 -203c-41 0 -86 10 -86 69z" fill="currentColor"/>
</g>
<g transform="translate(77.5186, 28.0322)">
<path transform="scale(0.0040, -0.0040)" d="M72 -106c40 0 204 110 231 143c7 9 11 19 11 28c0 22 -18 41 -42 41c-40 0 -204 -110 -231 -143c-7 -9 -10 -19 -10 -28c0 -22 17 -41 41 -41zM0 -67c0 71 46 203 258 203c41 0 86 -10 86 -69c0 -71 -46 -203 -258 -203c-41 0 -86 10 -86 69z" fill="currentColor"/>
</g>
<g transform="translate(77.5186, 26.5322)">
<path transform="scale(0.0040, -0.0040)" d="M72 -106c40 0 204 110 231 143c7 9 11 19 11 28c0 22 -18 41 -42 41c-40 0 -204 -110 -231 -143c-7 -9 -10 -19 -10 -28c0 -22 17 -41 41 -41zM0 -67c0 71 46 203 258 203c41 0 86 -10 86 -69c0 -71 -46 -203 -258 -203c-41 0 -86 10 -86 69z" fill="currentColor"/>
</g>
<g transform="translate(78.8308, 21.0322)">
<rect x="-0.0652" y="-3.0000" width="0.1304" height="3.2410" ry="0.0402" fill="currentColor"/>
</g>
<g transform="translate(77.5838, 30.0322)">
<rect x="-0.0652" y="-3.2410" width="0.1304" height="5.7410" ry="0.0402" fill="currentColor"/>
</g>
<g transform="translate(109.0213, 21.0322)">
<rect x="-0.0652" y="-3.0000" width="0.1304" height="3.3138" ry="0.0402" fill="currentColor"/>
</g>
<g transform="translate(83.5407, 21.0322)">
<path transform="scale(0.0040, -0.0040)" d="M0 -46c0 91 116 182 217 182c63 0 109 -35 109 -90c0 -87 -110 -182 -220 -182c-67 0 -106 39 -106 90z" fill="currentColor"/>
</g>
<g transform="translate(107.7823, 21.5322)">
<path transform="scale(0.0040, -0.0040)" d="M0 -46c0 91 116 182 217 182c63 0 109 -35 109 -90c0 -87 -110 -182 -220 -182c-67 0 -106 39 -106 90z" fill="currentColor"/>
</g>
<g transform="translate(83.5407, 28.5322)">
<path transform="scale(0.0040, -0.0040)" d="M347 -26c0 102 -89 139 -133 139c-23 0 -70 -10 -70 -89c0 -91 76 -136 132 -136c22 0 71 8 71 86zM245 136c144 0 246 -65 246 -136s-102 -136 -246 -136s-245 65 -245 136s101 136 245 136z" fill="currentColor"/>
</g>
<g transform="translate(83.5407, 27.5322)">
<path transform="scale(0.0040, -0.0040)" d="M347 -26c0 102 -89 139 -133 139c-23 0 -70 -10 -70 -89c0 -91 76 -136 132 -136c22 0 71 8 71 86zM245 136c144 0 246 -65 246 -136s-102 -136 -246 -136s-245 65 -245 136s101 136 245 136z" fill="currentColor"/>
</g>
<g transform="translate(83.5407, 26.5322)">
<path transform="scale(0.0040, -0.0040)" d="M347 -26c0 102 -89 139 -133 139c-23 0 -70 -10 -70 -89c0 -91 76 -136 132 -136c22 0 71 8 71 86zM245 136c144 0 246 -65 246 -136s-102 -136 -246 -136s-245 65 -245 136s101 136 245 136z" fill="currentColor"/>
</g>
<g transform="translate(83.6059, 21.0322)">
<rect x="-0.0652" y="0.1862" width="0.1304" height="3.1471" ry="0.0402" fill="currentColor"/>
</g>
<g transform="translate(86.8452, 21.0322)">
<path transform="scale(0.0040, -0.0040)" d="M0 -46c0 91 116 182 217 182c63 0 109 -35 109 -90c0 -87 -110 -182 -220 -182c-67 0 -106 39 -106 90z" fill="currentColor"/>
</g>
<g transform="translate(86.9104, 21.0322)">
<rect x="-0.0652" y="0.1862" width="0.1304" height="3.1471" ry="0.0402" fill="currentColor"/>
</g>
<g transform="translate(90.1497, 20.5322)">
<path transform="scale(0.0040, -0.0040)" d="M0 -46c0 91 116 182 217 182c63 0 109 -35 109 -90c0 -87 -110 -182 -220 -182c-67 0 -106 39 -106 90z" fill="currentColor"/>
</g>
<g transform="translate(90.2149, 21.0322)">
<rect x="-0.0652" y="-0.3138" width="0.1304" height="3.3138" ry="0.0402" fill="currentColor"/>
</g>
<g transform="translate(93.4542, 20.0322)">
<path transform="scale(0.0040, -0.0040)" d="M0 -46c0 91 116 182 217 182c63 0 109 -35 109 -90c0 -87 -110 -182 -220 -182c-67 0 -106 39 -106 90z" fill="currentColor"/>
</g>
<g transform="translate(93.5194, 21.0322)">
<rect x="-0.0652" y="-0.8138" width="0.1304" height="3.3138" ry="0.0402" fill="currentColor"/>
</g>
<g transform="translate(104.5612, 21.0322)">
<rect x="-0.0652" y="0.1862" width="0.1304" height="3.1471" ry="0.0402" fill="currentColor"/>
</g>
<g transform="translate(104.4960, 21.0322)">
<path transform="scale(0.0040, -0.0040)" d="M0 -46c0 91 116 182 217 182c63 0 109 -35 109 -90c0 -87 -110 -182 -220 -182c-67 0 -106 39 -106 90z" fill="currentColor"/>
</g>
<g transform="translate(97.8870, 20.0322)">
<path transform="scale(0.0040, -0.0040)" d="M0 -46c0 91 116 182 217 182c63 0 109 -35 109 -90c0 -87 -110 -182 -220 -182c-67 0 -106 39 -106 90z" fill="currentColor"/>
</g>
<g transform="translate(17.0846, 25.5322)">
<rect x="0.0000" y="-6.5501" width="0.1605" height="13.1003" ry="0.0501" fill="currentColor"/>
</g>
<g transform="translate(97.8870, 29.0322)">
<path transform="scale(0.0040, -0.0040)" d="M347 -26c0 102 -89 139 -133 139c-23 0 -70 -10 -70 -89c0 -91 76 -136 132 -136c22 0 71 8 71 86zM245 136c144 0 246 -65 246 -136s-102 -136 -246 -136s-245 65 -245 136s101 136 245 136z" fill="currentColor"/>
</g>
<g transform="translate(97.8870, 28.0322)">
<path transform="scale(0.0040, -0.0040)" d="M347 -26c0 102 -89 139 -133 139c-23 0 -70 -10 -70 -89c0 -91 76 -136 132 -136c22 0 71 8 71 86zM245 136c144 0 246 -65 246 -136s-102 -136 -246 -136s-245 65 -245 136s101 136 245 136z" fill="currentColor"/>
</g>
<g transform="translate(97.8870, 26.5322)">
<path transform="scale(0.0040, -0.0040)" d="M347 -26c0 102 -89 139 -133 139c-23 0 -70 -10 -70 -89c0 -91 76 -136 132 -136c22 0 71 8 71 86zM245 136c144 0 246 -65 246 -136s-102 -136 -246 -136s-245 65 -245 136s101 136 245 136z" fill="currentColor"/>
</g>
<g transform="translate(16.7846, 25.5322)">
<path transform="scale(0.0040, -0.0040)" d="M-84 -360c0 252 -129 357 -129 360c0 21 129 93 129 360c0 246 -105 537 -105 807c0 339 183 474 189 474c9 0 15 -6 15 -15c0 -24 -132 -93 -132 -366c0 -243 99 -525 99 -792c0 -168 -39 -330 -171 -468c132 -138 171 -300 171 -468c0 -267 -99 -549 -99 -792
c0 -273 132 -342 132 -366c0 -9 -6 -15 -15 -15c-6 0 -189 135 -189 474c0 270 105 561 105 807z" fill="currentColor"/>
</g>
<g transform="translate(97.9522, 21.0322)">
<rect x="-0.0652" y="-0.8138" width="0.1304" height="3.3138" ry="0.0402" fill="currentColor"/>
</g>
<g transform="translate(8.8853, 26.2809)">
<text font-family="serif" font-size="2.2003" text-anchor="start" fill="currentColor">
<tspan>Piano</tspan>
</text>
</g>
<g transform="translate(101.1915, 20.5322)">
<path transform="scale(0.0040, -0.0040)" d="M0 -46c0 91 116 182 217 182c63 0 109 -35 109 -90c0 -87 -110 -182 -220 -182c-67 0 -106 39 -106 90z" fill="currentColor"/>
</g>
<g transform="translate(101.2567, 21.0322)">
<rect x="-0.0652" y="-0.3138" width="0.1304" height="3.3138" ry="0.0402" fill="currentColor"/>
</g>
<g transform="translate(30.9272, 42.0322)">
<rect x="0.0000" y="-2.0000" width="0.1905" height="4.0501" ry="0.0000" fill="currentColor"/>
</g>
<g transform="translate(8.5725, 44.0322)">
<line stroke-linejoin="round" stroke-linecap="round" stroke-width="0.1003" stroke="currentColor" x1="0.0501" y1="0" x2="102.8199" y2="0"/>
</g>
<g transform="translate(8.5725, 43.0322)">
<line stroke-linejoin="round" stroke-linecap="round" stroke-width="0.1003" stroke="currentColor" x1="0.0501" y1="0" x2="102.8199" y2="0"/>
</g>
<g transform="translate(8.5725, 42.0322)">
<line stroke-linejoin="round" stroke-linecap="round" stroke-width="0.1003" stroke="currentColor" x1="0.0501" y1="0" x2="102.8199" y2="0"/>
</g>
<g transform="translate(8.5725, 41.0322)">
<line stroke-linejoin="round" stroke-linecap="round" stroke-width="0.1003" stroke="currentColor" x1="0.0501" y1="0" x2="102.8199" y2="0"/>
</g>
<g transform="translate(8.5725, 40.0322)">
<line stroke-linejoin="round" stroke-linecap="round" stroke-width="0.1003" stroke="currentColor" x1="0.0501" y1="0" x2="102.8199" y2="0"/>
</g>
<g transform="translate(111.2520, 37.8021)">
<rect x="0.0000" y="6.2803" width="0.1905" height="4.9499" ry="0.0000" fill="currentColor"/>
</g>
<g transform="translate(110.7607, 37.8021)">
<rect x="0.0000" y="6.2803" width="0.1905" height="4.9499" ry="0.0000" fill="currentColor"/>
</g>
<g transform="translate(8.5725, 54.0322)">
<rect x="71.1495" y="-0.1001" width="2.0661" height="0.2003" ry="0.1001" fill="currentColor"/>
</g>
<g transform="translate(8.5725, 54.0322)">
<rect x="54.0245" y="-0.1001" width="2.0661" height="0.2003" ry="0.1001" fill="currentColor"/>
</g>
<g transform="translate(8.5725, 54.0322)">
<rect x="38.0688" y="-0.1001" width="2.0661" height="0.2003" ry="0.1001" fill="currentColor"/>
</g>
<g transform="translate(8.5725, 48.0322)">
<rect x="30.9780" y="-0.1001" width="2.0661" height="0.2003" ry="0.1001" fill="currentColor"/>
</g>
<g transform="translate(8.5725, 48.0322)">
<rect x="23.5018" y="-0.1001" width="2.0661" height="0.2003" ry="0.1001" fill="currentColor"/>
</g>
<g transform="translate(8.5725, 48.0322)">
<rect x="7.4129" y="-0.1001" width="2.9430" height="0.2003" ry="0.1001" fill="currentColor"/>
</g>
<g transform="translate(8.5725, 53.0322)">
<line stroke-linejoin="round" stroke-linecap="round" stroke-width="0.1003" stroke="currentColor" x1="0.0501" y1="0" x2="102.8199" y2="0"/>
</g>
<g transform="translate(8.5725, 52.0322)">
<line stroke-linejoin="round" stroke-linecap="round" stroke-width="0.1003" stroke="currentColor" x1="0.0501" y1="0" x2="102.8199" y2="0"/>
</g>
<g transform="translate(8.5725, 51.0322)">
<line stroke-linejoin="round" stroke-linecap="round" stroke-width="0.1003" stroke="currentColor" x1="0.0501" y1="0" x2="102.8199" y2="0"/>
</g>
<g transform="translate(8.5725, 50.0322)">
<line stroke-linejoin="round" stroke-linecap="round" stroke-width="0.1003" stroke="currentColor" x1="0.0501" y1="0" x2="102.8199" y2="0"/>
</g>
<g transform="translate(8.5725, 49.0322)">
<line stroke-linejoin="round" stroke-linecap="round" stroke-width="0.1003" stroke="currentColor" x1="0.0501" y1="0" x2="102.8199" y2="0"/>
</g>
<g transform="translate(111.2520, 51.0322)">
<rect x="0.0000" y="-2.0501" width="0.1905" height="4.0501" ry="0.0000" fill="currentColor"/>
</g>
<g transform="translate(110.7607, 51.0322)">
<rect x="0.0000" y="-2.0501" width="0.1905" height="4.0501" ry="0.0000" fill="currentColor"/>
</g>
<g transform="translate(111.2520, 42.0322)">
<rect x="0.0000" y="-2.0000" width="0.1905" height="4.0501" ry="0.0000" fill="currentColor"/>
</g>
<g transform="translate(110.7607, 42.0322)">
<rect x="0.0000" y="-2.0000" width="0.1905" height="4.0501" ry="0.0000" fill="currentColor"/>
</g>
<g transform="translate(95.9671, 37.8021)">
<rect x="0.0000" y="6.2803" width="0.1905" height="4.9499" ry="0.0000" fill="currentColor"/>
</g>
<g transform="translate(95.9671, 51.0322)">
<rect x="0.0000" y="-2.0501" width="0.1905" height="4.0501" ry="0.0000" fill="currentColor"/>
</g>
<g transform="translate(95.9671, 42.0322)">
<rect x="0.0000" y="-2.0000" width="0.1905" height="4.0501" ry="0.0000" fill="currentColor"/>
</g>
<g transform="translate(78.8064, 37.8021)">
<rect x="0.0000" y="6.2803" width="0.1905" height="4.9499" ry="0.0000" fill="currentColor"/>
</g>
<g transform="translate(78.8064, 51.0322)">
<rect x="0.0000" y="-2.0501" width="0.1905" height="4.0501" ry="0.0000" fill="currentColor"/>
</g>
<g transform="translate(78.8064, 42.0322)">
<rect x="0.0000" y="-2.0000" width="0.1905" height="4.0501" ry="0.0000" fill="currentColor"/>
</g>
<g transform="translate(61.6814, 37.8021)">
<rect x="0.0000" y="6.2803" width="0.1905" height="4.9499" ry="0.0000" fill="currentColor"/>
</g>
<g transform="translate(61.6814, 51.0322)">
<rect x="0.0000" y="-2.0501" width="0.1905" height="4.0501" ry="0.0000" fill="currentColor"/>
</g>
<g transform="translate(61.6814, 42.0322)">
<rect x="0.0000" y="-2.0000" width="0.1905" height="4.0501" ry="0.0000" fill="currentColor"/>
</g>
<g transform="translate(45.7257, 37.8021)">
<rect x="0.0000" y="6.2803" width="0.1905" height="4.9499" ry="0.0000" fill="currentColor"/>
</g>
<g transform="translate(45.2343, 37.8021)">
<rect x="0.0000" y="6.2803" width="0.1905" height="4.9499" ry="0.0000" fill="currentColor"/>
</g>
<g transform="translate(45.7257, 51.0322)">
<rect x="0.0000" y="-2.0501" width="0.1905" height="4.0501" ry="0.0000" fill="currentColor"/>
</g>
<g transform="translate(45.2343, 51.0322)">
<rect x="0.0000" y="-2.0501" width="0.1905" height="4.0501" ry="0.0000" fill="currentColor"/>
</g>
<g transform="translate(45.7257, 42.0322)">
<rect x="0.0000" y="-2.0000" width="0.1905" height="4.0501" ry="0.0000" fill="currentColor"/>
</g>
<g transform="translate(45.2343, 42.0322)">
<rect x="0.0000" y="-2.0000" width="0.1905" height="4.0501" ry="0.0000" fill="currentColor"/>
</g>
<g transform="translate(30.9272, 37.8021)">
<rect x="0.0000" y="6.2803" width="0.1905" height="4.9499" ry="0.0000" fill="currentColor"/>
</g>
<g transform="translate(30.9272, 51.0322)">
<rect x="0.0000" y="-2.0501" width="0.1905" height="4.0501" ry="0.0000" fill="currentColor"/>
</g>
<g transform="translate(105.4102, 44.5322)">
<path transform="scale(0.0040, -0.0040)" d="M72 -106c40 0 204 110 231 143c7 9 11 19 11 28c0 22 -18 41 -42 41c-40 0 -204 -110 -231 -143c-7 -9 -10 -19 -10 -28c0 -22 17 -41 41 -41zM0 -67c0 71 46 203 258 203c41 0 86 -10 86 -69c0 -71 -46 -203 -258 -203c-41 0 -86 10 -86 69z" fill="currentColor"/>
</g>
<g transform="translate(83.7261, 45.0322)">
<polygon stroke-linejoin="round" stroke-linecap="round" stroke-width="0.0803" fill="currentColor" stroke="currentColor" points="2.4956 -0.3897 2.4956 0.0100 0.0402 0.1998 0.0402 -0.1998"/>
</g>
<g transform="translate(16.4759, 43.0322)">
<path transform="scale(0.0040, -0.0040)" d="M0 -46c0 91 116 182 217 182c63 0 109 -35 109 -90c0 -87 -110 -182 -220 -182c-67 0 -106 39 -106 90z" fill="currentColor"/>
</g>
<g transform="translate(16.4759, 49.5322)">
<path transform="scale(0.0040, -0.0040)" d="M347 -26c0 102 -89 139 -133 139c-23 0 -70 -10 -70 -89c0 -91 76 -136 132 -136c22 0 71 8 71 86zM245 136c144 0 246 -65 246 -136s-102 -136 -246 -136s-245 65 -245 136s101 136 245 136z" fill="currentColor"/>
</g>
<g transform="translate(16.4759, 48.5322)">
<path transform="scale(0.0040, -0.0040)" d="M347 -26c0 102 -89 139 -133 139c-23 0 -70 -10 -70 -89c0 -91 76 -136 132 -136c22 0 71 8 71 86zM245 136c144 0 246 -65 246 -136s-102 -136 -246 -136s-245 65 -245 136s101 136 245 136z" fill="currentColor"/>
</g>
<g transform="translate(16.4759, 47.5322)">
<path transform="scale(0.0040, -0.0040)" d="M347 -26c0 102 -89 139 -133 139c-23 0 -70 -10 -70 -89c0 -91 76 -136 132 -136c22 0 71 8 71 86zM245 136c144 0 246 -65 246 -136s-102 -136 -246 -136s-245 65 -245 136s101 136 245 136z" fill="currentColor"/>
</g>
<g transform="translate(17.7149, 42.0322)">
<rect x="-0.0652" y="-2.5000" width="0.1304" height="3.3138" ry="0.0402" fill="currentColor"/>
</g>
<g transform="translate(66.6012, 45.0322)">
<polygon stroke-linejoin="round" stroke-linecap="round" stroke-width="0.0803" fill="currentColor" stroke="currentColor" points="2.4956 -0.3897 2.4956 0.0100 0.0402 0.1998 0.0402 -0.1998"/>
</g>
<g transform="translate(20.1175, 43.0322)">
<path transform="scale(0.0040, -0.0040)" d="M0 -46c0 91 116 182 217 182c63 0 109 -35 109 -90c0 -87 -110 -182 -220 -182c-67 0 -106 39 -106 90z" fill="currentColor"/>
</g>
<g transform="translate(21.3565, 42.0322)">
<rect x="-0.0652" y="-2.5000" width="0.1304" height="3.3138" ry="0.0402" fill="currentColor"/>
</g>
<g transform="translate(23.7590, 42.5322)">
<path transform="scale(0.0040, -0.0040)" d="M0 -46c0 91 116 182 217 182c63 0 109 -35 109 -90c0 -87 -110 -182 -220 -182c-67 0 -106 39 -106 90z" fill="currentColor"/>
</g>
<g transform="translate(24.9980, 42.0322)">
<rect x="-0.0652" y="-3.0000" width="0.1304" height="3.3138" ry="0.0402" fill="currentColor"/>
</g>
<g transform="translate(27.4188, 42.0322)">
<path transform="scale(0.0040, -0.0040)" d="M0 -46c0 91 116 182 217 182c63 0 109 -35 109 -90c0 -87 -110 -182 -220 -182c-67 0 -106 39 -106 90z" fill="currentColor"/>
</g>
<g transform="translate(27.4840, 42.0322)">
<rect x="-0.0652" y="0.1862" width="0.1304" height="3.1471" ry="0.0402" fill="currentColor"/>
</g>
<g transform="translate(32.4186, 42.5322)">
<path transform="scale(0.0040, -0.0040)" d="M0 -46c0 91 116 182 217 182c63 0 109 -35 109 -90c0 -87 -110 -182 -220 -182c-67 0 -106 39 -106 90z" fill="currentColor"/>
</g>
<g transform="translate(32.4186, 50.0322)">
<path transform="scale(0.0040, -0.0040)" d="M72 -106c40 0 204 110 231 143c7 9 11 19 11 28c0 22 -18 41 -42 41c-40 0 -204 -110 -231 -143c-7 -9 -10 -19 -10 -28c0 -22 17 -41 41 -41zM0 -67c0 71 46 203 258 203c41 0 86 -10 86 -69c0 -71 -46 -203 -258 -203c-41 0 -86 10 -86 69z" fill="currentColor"/>
</g>
<g transform="translate(32.4186, 49.0322)">
<path transform="scale(0.0040, -0.0040)" d="M72 -106c40 0 204 110 231 143c7 9 11 19 11 28c0 22 -18 41 -42 41c-40 0 -204 -110 -231 -143c-7 -9 -10 -19 -10 -28c0 -22 17 -41 41 -41zM0 -67c0 71 46 203 258 203c41 0 86 -10 86 -69c0 -71 -46 -203 -258 -203c-41 0 -86 10 -86 69z" fill="currentColor"/>
</g>
<g transform="translate(32.4186, 47.5322)">
<path transform="scale(0.0040, -0.0040)" d="M72 -106c40 0 204 110 231 143c7 9 11 19 11 28c0 22 -18 41 -42 41c-40 0 -204 -110 -231 -143c-7 -9 -10 -19 -10 -28c0 -22 17 -41 41 -41zM0 -67c0 71 46 203 258 203c41 0 86 -10 86 -69c0 -71 -46 -203 -258 -203c-41 0 -86 10 -86 69z" fill="currentColor"/>
</g>
<g transform="translate(34.1728, 42.5322)">
<path transform="scale(0.0040, -0.0040)" d="M0 0c0 31 25 56 56 56s56 -25 56 -56s-25 -56 -56 -56s-56 25 -56 56z" fill="currentColor"/>
</g>
<g transform="translate(33.6576, 42.0322)">
<rect x="-0.0652" y="-3.0000" width="0.1304" height="3.3138" ry="0.0402" fill="currentColor"/>
</g>
<g transform="translate(32.4838, 51.0322)">
<rect x="-0.0652" y="-3.2410" width="0.1304" height="5.7410" ry="0.0402" fill="currentColor"/>
</g>
<g transform="translate(37.0264, 43.0322)">
<path transform="scale(0.0040, -0.0040)" d="M0 -46c0 91 116 182 217 182c63 0 109 -35 109 -90c0 -87 -110 -182 -220 -182c-67 0 -106 39 -106 90z" fill="currentColor"/>
</g>
<g transform="translate(38.2654, 42.0322)">
<rect x="-0.0652" y="-2.5000" width="0.1304" height="3.3138" ry="0.0402" fill="currentColor"/>
</g>
<g transform="translate(38.3306, 39.5724)">
<path transform="scale(0.0040, -0.0040)" d="M0 0v-375h-16v375h16zM123 -729c0 10 42 87 42 196c0 103 -94 208 -165 283v250c0 -197 207 -336 207 -533c0 -71 -15 -141 -41 -207c-5 -8 -13 -12 -20 -12c-12 0 -23 9 -23 23z" fill="currentColor"/>
</g>
<g transform="translate(39.8948, 43.0322)">
<path transform="scale(0.0040, -0.0040)" d="M72 -106c40 0 204 110 231 143c7 9 11 19 11 28c0 22 -18 41 -42 41c-40 0 -204 -110 -231 -143c-7 -9 -10 -19 -10 -28c0 -22 17 -41 41 -41zM0 -67c0 71 46 203 258 203c41 0 86 -10 86 -69c0 -71 -46 -203 -258 -203c-41 0 -86 10 -86 69z" fill="currentColor"/>
</g>
<g transform="translate(39.8948, 49.5322)">
<path transform="scale(0.0040, -0.0040)" d="M72 -106c40 0 204 110 231 143c7 9 11 19 11 28c0 22 -18 41 -42 41c-40 0 -204 -110 -231 -143c-7 -9 -10 -19 -10 -28c0 -22 17 -41 41 -41zM0 -67c0 71 46 203 258 203c41 0 86 -10 86 -69c0 -71 -46 -203 -258 -203c-41 0 -86 10 -86 69z" fill="currentColor"/>
</g>
<g transform="translate(39.8948, 48.5322)">
<path transform="scale(0.0040, -0.0040)" d="M72 -106c40 0 204 110 231 143c7 9 11 19 11 28c0 22 -18 41 -42 41c-40 0 -204 -110 -231 -143c-7 -9 -10 -19 -10 -28c0 -22 17 -41 41 -41zM0 -67c0 71 46 203 258 203c41 0 86 -10 86 -69c0 -71 -46 -203 -258 -203c-41 0 -86 10 -86 69z" fill="currentColor"/>
</g>
<g transform="translate(39.8948, 47.5322)">
<path transform="scale(0.0040, -0.0040)" d="M72 -106c40 0 204 110 231 143c7 9 11 19 11 28c0 22 -18 41 -42 41c-40 0 -204 -110 -231 -143c-7 -9 -10 -19 -10 -28c0 -22 17 -41 41 -41zM0 -67c0 71 46 203 258 203c41 0 86 -10 86 -69c0 -71 -46 -203 -258 -203c-41 0 -86 10 -86 69z" fill="currentColor"/>
</g>
<g transform="translate(41.2070, 42.0322)">
<rect x="-0.0652" y="-2.5000" width="0.1304" height="3.2410" ry="0.0402" fill="currentColor"/>
</g>
<g transform="translate(39.9600, 51.0322)">
<rect x="-0.0652" y="-3.2410" width="0.1304" height="5.2410" ry="0.0402" fill="currentColor"/>
</g>
<g transform="translate(46.9856, 42.5322)">
<path transform="scale(0.0040, -0.0040)" d="M0 -46c0 91 116 182 217 182c63 0 109 -35 109 -90c0 -87 -110 -182 -220 -182c-67 0 -106 39 -106 90z" fill="currentColor"/>
</g>
<g transform="translate(7.7153, 38.9583)">
<text font-family="serif" font-size="1.7465" text-anchor="start" fill="currentColor">
<tspan>7</tspan>
</text>
</g>
<g transform="translate(46.9856, 54.5322)">
<path transform="scale(0.0040, -0.0040)" d="M72 -106c40 0 204 110 231 143c7 9 11 19 11 28c0 22 -18 41 -42 41c-40 0 -204 -110 -231 -143c-7 -9 -10 -19 -10 -28c0 -22 17 -41 41 -41zM0 -67c0 71 46 203 258 203c41 0 86 -10 86 -69c0 -71 -46 -203 -258 -203c-41 0 -86 10 -86 69z" fill="currentColor"/>
</g>
<g transform="translate(12.8759, 50.0322)">
<path transform="scale(0.0040, -0.0040)" d="M0 119c0 8 5 15 13 18l46 17v158c0 10 8 19 18 19s19 -9 19 -19v-145l83 31v158c0 10 9 19 19 19s18 -9 18 -19v-145l32 12c2 1 5 1 7 1c11 0 20 -9 20 -20v-60c0 -8 -5 -16 -13 -19l-46 -16v-160l32 11c2 1 5 1 7 1c11 0 20 -9 20 -20v-60c0 -8 -5 -15 -13 -18l-46 -17
v-158c0 -10 -8 -19 -18 -19s-19 9 -19 19v145l-83 -31v-158c0 -10 -9 -19 -19 -19s-18 9 -18 19v145l-32 -12c-2 -1 -5 -1 -7 -1c-11 0 -20 9 -20 20v60c0 8 5 16 13 19l46 16v160l-32 -11c-2 -1 -5 -1 -7 -1c-11 0 -20 9 -20 20v60zM179 95l-83 -30v-160l83 30v160z" fill="currentColor"/>
</g>
<g transform="translate(48.2246, 42.0322)">
<rect x="-0.0652" y="-3.0000" width="0.1304" height="3.3138" ry="0.0402" fill="currentColor"/>
</g>
<g transform="translate(48.2978, 51.0322)">
<rect x="-0.0652" y="-0.0000" width="0.1304" height="3.2410" ry="0.0402" fill="currentColor"/>
</g>
<g transform="translate(9.3725, 50.0322)">
<path transform="scale(0.0040, -0.0040)" d="M557 -125c0 28 23 51 51 51s51 -23 51 -51s-23 -51 -51 -51s-51 23 -51 51zM557 125c0 28 23 51 51 51s51 -23 51 -51s-23 -51 -51 -51s-51 23 -51 51zM232 263c172 0 293 -88 293 -251c0 -263 -263 -414 -516 -521c-3 -3 -6 -4 -9 -4c-7 0 -13 6 -13 13c0 3 1 6 4 9
c202 118 412 265 412 493c0 120 -63 235 -171 235c-74 0 -129 -54 -154 -126c11 5 22 8 34 8c55 0 100 -45 100 -100c0 -58 -44 -106 -100 -106c-60 0 -112 47 -112 106c0 133 102 244 232 244z" fill="currentColor"/>
</g>
<g transform="translate(50.6272, 42.5322)">
<path transform="scale(0.0040, -0.0040)" d="M0 -46c0 91 116 182 217 182c63 0 109 -35 109 -90c0 -87 -110 -182 -220 -182c-67 0 -106 39 -106 90z" fill="currentColor"/>
</g>
<g transform="translate(51.8662, 42.0322)">
<rect x="-0.0652" y="-3.0000" width="0.1304" height="3.3138" ry="0.0402" fill="currentColor"/>
</g>
<g transform="translate(54.2870, 42.0322)">
<path transform="scale(0.0040, -0.0040)" d="M0 -46c0 91 116 182 217 182c63 0 109 -35 109 -90c0 -87 -110 -182 -220 -182c-67 0 -106 39 -106 90z" fill="currentColor"/>
</g>
<g transform="translate(54.2870, 51.0322)">
<path transform="scale(0.0040, -0.0040)" d="M72 -106c40 0 204 110 231 143c7 9 11 19 11 28c0 22 -18 41 -42 41c-40 0 -204 -110 -231 -143c-7 -9 -10 -19 -10 -28c0 -22 17 -41 41 -41zM0 -67c0 71 46 203 258 203c41 0 86 -10 86 -69c0 -71 -46 -203 -258 -203c-41 0 -86 10 -86 69z" fill="currentColor"/>
</g>
<g transform="translate(54.2870, 49.5322)">
<path transform="scale(0.0040, -0.0040)" d="M72 -106c40 0 204 110 231 143c7 9 11 19 11 28c0 22 -18 41 -42 41c-40 0 -204 -110 -231 -143c-7 -9 -10 -19 -10 -28c0 -22 17 -41 41 -41zM0 -67c0 71 46 203 258 203c41 0 86 -10 86 -69c0 -71 -46 -203 -258 -203c-41 0 -86 10 -86 69z" fill="currentColor"/>
</g>
<g transform="translate(54.2870, 48.5322)">
<path transform="scale(0.0040, -0.0040)" d="M72 -106c40 0 204 110 231 143c7 9 11 19 11 28c0 22 -18 41 -42 41c-40 0 -204 -110 -231 -143c-7 -9 -10 -19 -10 -28c0 -22 17 -41 41 -41zM0 -67c0 71 46 203 258 203c41 0 86 -10 86 -69c0 -71 -46 -203 -258 -203c-41 0 -86 10 -86 69z" fill="currentColor"/>
</g>
<g transform="translate(54.3522, 42.0322)">
<rect x="-0.0652" y="0.1862" width="0.1304" height="3.1471" ry="0.0402" fill="currentColor"/>
</g>
<g transform="translate(54.3522, 51.0322)">
<rect x="-0.0652" y="-2.2410" width="0.1304" height="5.5743" ry="0.0402" fill="currentColor"/>
</g>
<g transform="translate(57.8389, 43.0322)">
<path transform="scale(0.0040, -0.0040)" d="M0 -46c0 91 116 182 217 182c63 0 109 -35 109 -90c0 -87 -110 -182 -220 -182c-67 0 -106 39 -106 90z" fill="currentColor"/>
</g>
<g transform="translate(59.0779, 42.0322)">
<rect x="-0.0652" y="-2.5000" width="0.1304" height="3.3138" ry="0.0402" fill="currentColor"/>
</g>
<g transform="translate(62.9414, 42.5322)">
<path transform="scale(0.0040, -0.0040)" d="M0 -46c0 91 116 182 217 182c63 0 109 -35 109 -90c0 -87 -110 -182 -220 -182c-67 0 -106 39 -106 90z" fill="currentColor"/>
</g>
<g transform="translate(62.9414, 54.5322)">
<path transform="scale(0.0040, -0.0040)" d="M72 -106c40 0 204 110 231 143c7 9 11 19 11 28c0 22 -18 41 -42 41c-40 0 -204 -110 -231 -143c-7 -9 -10 -19 -10 -28c0 -22 17 -41 41 -41zM0 -67c0 71 46 203 258 203c41 0 86 -10 86 -69c0 -71 -46 -203 -258 -203c-41 0 -86 10 -86 69z" fill="currentColor"/>
</g>
<g transform="translate(12.8759, 40.0322)">
<path transform="scale(0.0040, -0.0040)" d="M0 119c0 8 5 15 13 18l46 17v158c0 10 8 19 18 19s19 -9 19 -19v-145l83 31v158c0 10 9 19 19 19s18 -9 18 -19v-145l32 12c2 1 5 1 7 1c11 0 20 -9 20 -20v-60c0 -8 -5 -16 -13 -19l-46 -16v-160l32 11c2 1 5 1 7 1c11 0 20 -9 20 -20v-60c0 -8 -5 -15 -13 -18l-46 -17
v-158c0 -10 -8 -19 -18 -19s-19 9 -19 19v145l-83 -31v-158c0 -10 -9 -19 -19 -19s-18 9 -18 19v145l-32 -12c-2 -1 -5 -1 -7 -1c-11 0 -20 9 -20 20v60c0 8 5 16 13 19l46 16v160l-32 -11c-2 -1 -5 -1 -7 -1c-11 0 -20 9 -20 20v60zM179 95l-83 -30v-160l83 30v160z" fill="currentColor"/>
</g>
<g transform="translate(64.1804, 42.0322)">
<rect x="-0.0652" y="-3.0000" width="0.1304" height="3.3138" ry="0.0402" fill="currentColor"/>
</g>
<g transform="translate(9.3725, 43.0322)">
<path transform="scale(0.0040, -0.0040)" d="M266 -635h-6c-108 0 -195 88 -195 197c0 58 53 103 112 103c54 0 95 -47 95 -103c0 -52 -43 -95 -95 -95c-11 0 -21 2 -31 6c26 -39 68 -65 117 -65h4zM401 151c19 -89 48 -242 60 -354c76 27 112 94 112 163c0 89 -60 179 -172 191zM74 28c0 -112 98 -247 278 -247
c21 0 44 2 68 6c-7 64 -29 203 -63 364c-79 -8 -124 -61 -124 -119c0 -44 25 -91 81 -123c5 -5 7 -10 7 -15c0 -11 -10 -22 -22 -22c-15 0 -126 62 -126 187c0 88 58 174 160 197c-14 58 -29 117 -46 175c-107 -121 -213 -243 -213 -403zM357 1194c28 0 143 -206 143 -361
c0 -143 -86 -255 -180 -364c21 -68 39 -138 56 -207c5 0 10 1 14 1c155 0 255 -129 255 -262c0 -113 -74 -212 -180 -245c3 -35 5 -70 5 -105c0 -19 -1 -39 -2 -58c-7 -119 -88 -225 -202 -228l1 43c93 2 153 92 159 191c1 18 2 37 2 55c0 31 -1 61 -4 92
c-28 -5 -55 -8 -80 -8c-239 0 -342 217 -342 374c0 177 131 306 248 441c-29 96 -52 170 -52 346c0 189 144 295 159 295zM247 782c0 -55 12 -115 35 -190c82 100 147 202 147 326c0 40 -6 82 -21 127c-49 -24 -161 -97 -161 -263z" fill="currentColor"/>
</g>
<g transform="translate(64.2536, 51.0322)">
<rect x="-0.0652" y="-0.0000" width="0.1304" height="3.2410" ry="0.0402" fill="currentColor"/>
</g>
<g transform="translate(66.6012, 42.0322)">
<path transform="scale(0.0040, -0.0040)" d="M0 -46c0 91 116 182 217 182c63 0 109 -35 109 -90c0 -87 -110 -182 -220 -182c-67 0 -106 39 -106 90z" fill="currentColor"/>
</g>
<g transform="translate(66.6663, 42.0322)">
<rect x="-0.0652" y="0.1862" width="0.1304" height="2.8089" ry="0.0402" fill="currentColor"/>
</g>
<g transform="translate(69.0066, 41.5322)">
<path transform="scale(0.0040, -0.0040)" d="M0 -46c0 91 116 182 217 182c63 0 109 -35 109 -90c0 -87 -110 -182 -220 -182c-67 0 -106 39 -106 90z" fill="currentColor"/>
</g>
<g transform="translate(69.0717, 42.0322)">
<rect x="-0.0652" y="-0.3138" width="0.1304" height="3.1288" ry="0.0402" fill="currentColor"/>
</g>
<g transform="translate(71.4120, 42.0322)">
<path transform="scale(0.0040, -0.0040)" d="M0 -46c0 91 116 182 217 182c63 0 109 -35 109 -90c0 -87 -110 -182 -220 -182c-67 0 -106 39 -106 90z" fill="currentColor"/>
</g>
<g transform="translate(71.4120, 51.0322)">
<path transform="scale(0.0040, -0.0040)" d="M72 -106c40 0 204 110 231 143c7 9 11 19 11 28c0 22 -18 41 -42 41c-40 0 -204 -110 -231 -143c-7 -9 -10 -19 -10 -28c0 -22 17 -41 41 -41zM0 -67c0 71 46 203 258 203c41 0 86 -10 86 -69c0 -71 -46 -203 -258 -203c-41 0 -86 10 -86 69z" fill="currentColor"/>
</g>
<g transform="translate(71.4120, 49.5322)">
<path transform="scale(0.0040, -0.0040)" d="M72 -106c40 0 204 110 231 143c7 9 11 19 11 28c0 22 -18 41 -42 41c-40 0 -204 -110 -231 -143c-7 -9 -10 -19 -10 -28c0 -22 17 -41 41 -41zM0 -67c0 71 46 203 258 203c41 0 86 -10 86 -69c0 -71 -46 -203 -258 -203c-41 0 -86 10 -86 69z" fill="currentColor"/>
</g>
<g transform="translate(71.4120, 48.5322)">
<path transform="scale(0.0040, -0.0040)" d="M72 -106c40 0 204 110 231 143c7 9 11 19 11 28c0 22 -18 41 -42 41c-40 0 -204 -110 -231 -143c-7 -9 -10 -19 -10 -28c0 -22 17 -41 41 -41zM0 -67c0 71 46 203 258 203c41 0 86 -10 86 -69c0 -71 -46 -203 -258 -203c-41 0 -86 10 -86 69z" fill="currentColor"/>
</g>
<g transform="translate(71.4771, 42.0322)">
<rect x="-0.0652" y="0.1862" width="0.1304" height="3.1471" ry="0.0402" fill="currentColor"/>
</g>
<g transform="translate(71.4771, 51.0322)">
<rect x="-0.0652" y="-2.2410" width="0.1304" height="5.5743" ry="0.0402" fill="currentColor"/>
</g>
<g transform="translate(74.9639, 43.0322)">
<path transform="scale(0.0040, -0.0040)" d="M0 -46c0 91 116 182 217 182c63 0 109 -35 109 -90c0 -87 -110 -182 -220 -182c-67 0 -106 39 -106 90z" fill="currentColor"/>
</g>
<g transform="translate(76.2029, 42.0322)">
<rect x="-0.0652" y="-2.5000" width="0.1304" height="3.3138" ry="0.0402" fill="currentColor"/>
</g>
<g transform="translate(80.0664, 42.5322)">
<path transform="scale(0.0040, -0.0040)" d="M0 -46c0 91 116 182 217 182c63 0 109 -35 109 -90c0 -87 -110 -182 -220 -182c-67 0 -106 39 -106 90z" fill="currentColor"/>
</g>
<g transform="translate(105.4754, 51.0322)">
<rect x="-0.0652" y="-1.7410" width="0.1304" height="5.0743" ry="0.0402" fill="currentColor"/>
</g>
<g transform="translate(80.0664, 54.5322)">
<path transform="scale(0.0040, -0.0040)" d="M72 -106c40 0 204 110 231 143c7 9 11 19 11 28c0 22 -18 41 -42 41c-40 0 -204 -110 -231 -143c-7 -9 -10 -19 -10 -28c0 -22 17 -41 41 -41zM0 -67c0 71 46 203 258 203c41 0 86 -10 86 -69c0 -71 -46 -203 -258 -203c-41 0 -86 10 -86 69z" fill="currentColor"/>
</g>
<g transform="translate(81.3054, 42.0322)">
<rect x="-0.0652" y="-3.0000" width="0.1304" height="3.3138" ry="0.0402" fill="currentColor"/>
</g>
<g transform="translate(81.3786, 51.0322)">
<rect x="-0.0652" y="-0.0000" width="0.1304" height="3.2410" ry="0.0402" fill="currentColor"/>
</g>
<g transform="translate(83.7261, 42.0322)">
<path transform="scale(0.0040, -0.0040)" d="M0 -46c0 91 116 182 217 182c63 0 109 -35 109 -90c0 -87 -110 -182 -220 -182c-67 0 -106 39 -106 90z" fill="currentColor"/>
</g>
<g transform="translate(83.7913, 42.0322)">
<rect x="-0.0652" y="0.1862" width="0.1304" height="2.8089" ry="0.0402" fill="currentColor"/>
</g>
<g transform="translate(86.1315, 41.5322)">
<path transform="scale(0.0040, -0.0040)" d="M0 -46c0 91 116 182 217 182c63 0 109 -35 109 -90c0 -87 -110 -182 -220 -182c-67 0 -106 39 -106 90z" fill="currentColor"/>
</g>
<g transform="translate(86.1967, 42.0322)">
<rect x="-0.0652" y="-0.3138" width="0.1304" height="3.1288" ry="0.0402" fill="currentColor"/>
</g>
<g transform="translate(88.5369, 42.0322)">
<path transform="scale(0.0040, -0.0040)" d="M0 -46c0 91 116 182 217 182c63 0 109 -35 109 -90c0 -87 -110 -182 -220 -182c-67 0 -106 39 -106 90z" fill="currentColor"/>
</g>
<g transform="translate(88.5369, 51.0322)">
<path transform="scale(0.0040, -0.0040)" d="M72 -106c40 0 204 110 231 143c7 9 11 19 11 28c0 22 -18 41 -42 41c-40 0 -204 -110 -231 -143c-7 -9 -10 -19 -10 -28c0 -22 17 -41 41 -41zM0 -67c0 71 46 203 258 203c41 0 86 -10 86 -69c0 -71 -46 -203 -258 -203c-41 0 -86 10 -86 69z" fill="currentColor"/>
</g>
<g transform="translate(88.5369, 49.5322)">
<path transform="scale(0.0040, -0.0040)" d="M72 -106c40 0 204 110 231 143c7 9 11 19 11 28c0 22 -18 41 -42 41c-40 0 -204 -110 -231 -143c-7 -9 -10 -19 -10 -28c0 -22 17 -41 41 -41zM0 -67c0 71 46 203 258 203c41 0 86 -10 86 -69c0 -71 -46 -203 -258 -203c-41 0 -86 10 -86 69z" fill="currentColor"/>
</g>
<g transform="translate(88.5369, 48.5322)">
<path transform="scale(0.0040, -0.0040)" d="M72 -106c40 0 204 110 231 143c7 9 11 19 11 28c0 22 -18 41 -42 41c-40 0 -204 -110 -231 -143c-7 -9 -10 -19 -10 -28c0 -22 17 -41 41 -41zM0 -67c0 71 46 203 258 203c41 0 86 -10 86 -69c0 -71 -46 -203 -258 -203c-41 0 -86 10 -86 69z" fill="currentColor"/>
</g>
<g transform="translate(88.6021, 42.0322)">
<rect x="-0.0652" y="0.1862" width="0.1304" height="3.1471" ry="0.0402" fill="currentColor"/>
</g>
<g transform="translate(88.6021, 51.0322)">
<rect x="-0.0652" y="-2.2410" width="0.1304" height="5.5743" ry="0.0402" fill="currentColor"/>
</g>
<g transform="translate(106.7224, 42.0322)">
<rect x="-0.0652" y="-1.0000" width="0.1304" height="3.2410" ry="0.0402" fill="currentColor"/>
</g>
<g transform="translate(92.1603, 42.5322)">
<path transform="scale(0.0040, -0.0040)" d="M0 -46c0 91 116 182 217 182c63 0 109 -35 109 -90c0 -87 -110 -182 -220 -182c-67 0 -106 39 -106 90z" fill="currentColor"/>
</g>
<g transform="translate(93.3993, 42.0322)">
<rect x="-0.0652" y="-3.0000" width="0.1304" height="3.3138" ry="0.0402" fill="currentColor"/>
</g>
<g transform="translate(105.4102, 49.0322)">
<path transform="scale(0.0040, -0.0040)" d="M72 -106c40 0 204 110 231 143c7 9 11 19 11 28c0 22 -18 41 -42 41c-40 0 -204 -110 -231 -143c-7 -9 -10 -19 -10 -28c0 -22 17 -41 41 -41zM0 -67c0 71 46 203 258 203c41 0 86 -10 86 -69c0 -71 -46 -203 -258 -203c-41 0 -86 10 -86 69z" fill="currentColor"/>
</g>
<g transform="translate(105.4102, 50.0322)">
<path transform="scale(0.0040, -0.0040)" d="M72 -106c40 0 204 110 231 143c7 9 11 19 11 28c0 22 -18 41 -42 41c-40 0 -204 -110 -231 -143c-7 -9 -10 -19 -10 -28c0 -22 17 -41 41 -41zM0 -67c0 71 46 203 258 203c41 0 86 -10 86 -69c0 -71 -46 -203 -258 -203c-41 0 -86 10 -86 69z" fill="currentColor"/>
</g>
<g transform="translate(98.3771, 43.0322)">
<path transform="scale(0.0040, -0.0040)" d="M0 -46c0 91 116 182 217 182c63 0 109 -35 109 -90c0 -87 -110 -182 -220 -182c-67 0 -106 39 -106 90z" fill="currentColor"/>
</g>
<g transform="translate(8.5121, 46.5322)">
<rect x="0.0000" y="-6.5501" width="0.1605" height="13.1003" ry="0.0501" fill="currentColor"/>
</g>
<g transform="translate(98.3771, 51.5322)">
<path transform="scale(0.0040, -0.0040)" d="M72 -106c40 0 204 110 231 143c7 9 11 19 11 28c0 22 -18 41 -42 41c-40 0 -204 -110 -231 -143c-7 -9 -10 -19 -10 -28c0 -22 17 -41 41 -41zM0 -67c0 71 46 203 258 203c41 0 86 -10 86 -69c0 -71 -46 -203 -258 -203c-41 0 -86 10 -86 69z" fill="currentColor"/>
</g>
<g transform="translate(8.2121, 46.5322)">
<path transform="scale(0.0040, -0.0040)" d="M-84 -360c0 252 -129 357 -129 360c0 21 129 93 129 360c0 246 -105 537 -105 807c0 339 183 474 189 474c9 0 15 -6 15 -15c0 -24 -132 -93 -132 -366c0 -243 99 -525 99 -792c0 -168 -39 -330 -171 -468c132 -138 171 -300 171 -468c0 -267 -99 -549 -99 -792
c0 -273 132 -342 132 -366c0 -9 -6 -15 -15 -15c-6 0 -189 135 -189 474c0 270 105 561 105 807z" fill="currentColor"/>
</g>
<g transform="translate(99.6161, 42.0322)">
<rect x="-0.0652" y="-2.5000" width="0.1304" height="3.3138" ry="0.0402" fill="currentColor"/>
</g>
<g transform="translate(99.6893, 51.0322)">
<rect x="-0.0652" y="-3.0000" width="0.1304" height="3.2410" ry="0.0402" fill="currentColor"/>
</g>
<g transform="translate(96.9271, 51.5322)">
<path transform="scale(0.0040, -0.0040)" d="M0 119c0 8 5 15 13 18l46 17v158c0 10 8 19 18 19s19 -9 19 -19v-145l83 31v158c0 10 9 19 19 19s18 -9 18 -19v-145l32 12c2 1 5 1 7 1c11 0 20 -9 20 -20v-60c0 -8 -5 -16 -13 -19l-46 -16v-160l32 11c2 1 5 1 7 1c11 0 20 -9 20 -20v-60c0 -8 -5 -15 -13 -18l-46 -17
v-158c0 -10 -8 -19 -18 -19s-19 9 -19 19v145l-83 -31v-158c0 -10 -9 -19 -19 -19s-18 9 -18 19v145l-32 -12c-2 -1 -5 -1 -7 -1c-11 0 -20 9 -20 20v60c0 8 5 16 13 19l46 16v160l-32 -11c-2 -1 -5 -1 -7 -1c-11 0 -20 9 -20 20v60zM179 95l-83 -30v-160l83 30v160z" fill="currentColor"/>
</g>
<g transform="translate(3.1246, 47.2455)">
<text font-family="serif" font-size="2.2003" text-anchor="start" fill="currentColor">
<tspan>Pno.</tspan>
</text>
</g>
<g transform="translate(105.4102, 51.0322)">
<path transform="scale(0.0040, -0.0040)" d="M72 -106c40 0 204 110 231 143c7 9 11 19 11 28c0 22 -18 41 -42 41c-40 0 -204 -110 -231 -143c-7 -9 -10 -19 -10 -28c0 -22 17 -41 41 -41zM0 -67c0 71 46 203 258 203c41 0 86 -10 86 -69c0 -71 -46 -203 -258 -203c-41 0 -86 10 -86 69z" fill="currentColor"/>
</g>
<g transform="translate(102.0186, 42.5322)">
<path transform="scale(0.0040, -0.0040)" d="M0 -46c0 91 116 182 217 182c63 0 109 -35 109 -90c0 -87 -110 -182 -220 -182c-67 0 -106 39 -106 90z" fill="currentColor"/>
</g>
<g transform="translate(103.2576, 42.0322)">
<rect x="-0.0652" y="-3.0000" width="0.1304" height="3.3138" ry="0.0402" fill="currentColor"/>
</g>
<g transform="translate(35.7672, 63.0322)">
<rect x="0.0000" y="-2.0000" width="0.1905" height="4.0501" ry="0.0000" fill="currentColor"/>
</g>
<g transform="translate(8.5725, 65.0322)">
<line stroke-linejoin="round" stroke-linecap="round" stroke-width="0.1003" stroke="currentColor" x1="0.0501" y1="0" x2="102.8199" y2="0"/>
</g>
<g transform="translate(8.5725, 64.0322)">
<line stroke-linejoin="round" stroke-linecap="round" stroke-width="0.1003" stroke="currentColor" x1="0.0501" y1="0" x2="102.8199" y2="0"/>
</g>
<g transform="translate(8.5725, 63.0322)">
<line stroke-linejoin="round" stroke-linecap="round" stroke-width="0.1003" stroke="currentColor" x1="0.0501" y1="0" x2="102.8199" y2="0"/>
</g>
<g transform="translate(8.5725, 62.0322)">
<line stroke-linejoin="round" stroke-linecap="round" stroke-width="0.1003" stroke="currentColor" x1="0.0501" y1="0" x2="102.8199" y2="0"/>
</g>
<g transform="translate(8.5725, 61.0322)">
<line stroke-linejoin="round" stroke-linecap="round" stroke-width="0.1003" stroke="currentColor" x1="0.0501" y1="0" x2="102.8199" y2="0"/>
</g>
<g transform="translate(57.1588, 58.7816)">
<rect x="0.0000" y="6.3007" width="0.1905" height="4.9499" ry="0.0000" fill="currentColor"/>
</g>
<g transform="translate(8.5725, 69.0322)">
<rect x="90.7093" y="-0.1001" width="2.9430" height="0.2003" ry="0.1001" fill="currentColor"/>
</g>
<g transform="translate(8.5725, 69.0322)">
<rect x="80.8261" y="-0.1001" width="2.0661" height="0.2003" ry="0.1001" fill="currentColor"/>
</g>
<g transform="translate(8.5725, 69.0322)">
<rect x="71.0274" y="-0.1001" width="2.0661" height="0.2003" ry="0.1001" fill="currentColor"/>
</g>
<g transform="translate(8.5725, 69.0322)">
<rect x="49.6824" y="-0.1001" width="2.9430" height="0.2003" ry="0.1001" fill="currentColor"/>
</g>
<g transform="translate(8.5725, 69.0322)">
<rect x="28.4529" y="-0.1001" width="2.9430" height="0.2003" ry="0.1001" fill="currentColor"/>
</g>
<g transform="translate(8.5725, 69.0322)">
<rect x="7.4129" y="-0.1001" width="2.9430" height="0.2003" ry="0.1001" fill="currentColor"/>
</g>
<g transform="translate(8.5725, 74.0322)">
<line stroke-linejoin="round" stroke-linecap="round" stroke-width="0.1003" stroke="currentColor" x1="0.0501" y1="0" x2="102.8199" y2="0"/>
</g>
<g transform="translate(8.5725, 73.0322)">
<line stroke-linejoin="round" stroke-linecap="round" stroke-width="0.1003" stroke="currentColor" x1="0.0501" y1="0" x2="102.8199" y2="0"/>
</g>
<g transform="translate(8.5725, 72.0322)">
<line stroke-linejoin="round" stroke-linecap="round" stroke-width="0.1003" stroke="currentColor" x1="0.0501" y1="0" x2="102.8199" y2="0"/>
</g>
<g transform="translate(8.5725, 71.0322)">
<line stroke-linejoin="round" stroke-linecap="round" stroke-width="0.1003" stroke="currentColor" x1="0.0501" y1="0" x2="102.8199" y2="0"/>
</g>
<g transform="translate(8.5725, 70.0322)">
<line stroke-linejoin="round" stroke-linecap="round" stroke-width="0.1003" stroke="currentColor" x1="0.0501" y1="0" x2="102.8199" y2="0"/>
</g>
<g transform="translate(110.8409, 58.7816)">
<rect x="0.0000" y="6.3007" width="0.6017" height="4.9499" ry="0.0000" fill="currentColor"/>
</g>
<g transform="translate(110.3495, 58.7816)">
<rect x="0.0000" y="6.3007" width="0.1905" height="4.9499" ry="0.0000" fill="currentColor"/>
</g>
<g transform="translate(110.8409, 72.0322)">
<rect x="0.0000" y="-2.0501" width="0.6017" height="4.0501" ry="0.0000" fill="currentColor"/>
</g>
<g transform="translate(110.3495, 72.0322)">
<rect x="0.0000" y="-2.0501" width="0.1905" height="4.0501" ry="0.0000" fill="currentColor"/>
</g>
<g transform="translate(110.8409, 63.0322)">
<rect x="0.0000" y="-2.0000" width="0.6017" height="4.0501" ry="0.0000" fill="currentColor"/>
</g>
<g transform="translate(110.3495, 63.0322)">
<rect x="0.0000" y="-2.0000" width="0.1905" height="4.0501" ry="0.0000" fill="currentColor"/>
</g>
<g transform="translate(97.1857, 58.7816)">
<rect x="0.0000" y="6.3007" width="0.1905" height="4.9499" ry="0.0000" fill="currentColor"/>
</g>
<g transform="translate(97.1857, 72.0322)">
<rect x="0.0000" y="-2.0501" width="0.1905" height="4.0501" ry="0.0000" fill="currentColor"/>
</g>
<g transform="translate(97.1857, 63.0322)">
<rect x="0.0000" y="-2.0000" width="0.1905" height="4.0501" ry="0.0000" fill="currentColor"/>
</g>
<g transform="translate(78.1263, 58.7816)">
<rect x="0.0000" y="6.3007" width="0.1905" height="4.9499" ry="0.0000" fill="currentColor"/>
</g>
<g transform="translate(78.1263, 72.0322)">
<rect x="0.0000" y="-2.0501" width="0.1905" height="4.0501" ry="0.0000" fill="currentColor"/>
</g>
<g transform="translate(78.1263, 63.0322)">
<rect x="0.0000" y="-2.0000" width="0.1905" height="4.0501" ry="0.0000" fill="currentColor"/>
</g>
<g transform="translate(57.1588, 72.0322)">
<rect x="0.0000" y="-2.0501" width="0.1905" height="4.0501" ry="0.0000" fill="currentColor"/>
</g>
<g transform="translate(57.1588, 63.0322)">
<rect x="0.0000" y="-2.0000" width="0.1905" height="4.0501" ry="0.0000" fill="currentColor"/>
</g>
<g transform="translate(35.7672, 58.7816)">
<rect x="0.0000" y="6.3007" width="0.1905" height="4.9499" ry="0.0000" fill="currentColor"/>
</g>
<g transform="translate(35.7672, 72.0322)">
<rect x="0.0000" y="-2.0501" width="0.1905" height="4.0501" ry="0.0000" fill="currentColor"/>
</g>
<g transform="translate(3.1246, 68.2455)">
<text font-family="serif" font-size="2.2003" text-anchor="start" fill="currentColor">
<tspan>Pno.</tspan>
</text>
</g>
<g transform="translate(16.4759, 63.0322)">
<path transform="scale(0.0040, -0.0040)" d="M0 -46c0 91 116 182 217 182c63 0 109 -35 109 -90c0 -87 -110 -182 -220 -182c-67 0 -106 39 -106 90z" fill="currentColor"/>
</g>
<g transform="translate(16.4759, 70.5322)">
<path transform="scale(0.0040, -0.0040)" d="M347 -26c0 102 -89 139 -133 139c-23 0 -70 -10 -70 -89c0 -91 76 -136 132 -136c22 0 71 8 71 86zM245 136c144 0 246 -65 246 -136s-102 -136 -246 -136s-245 65 -245 136s101 136 245 136z" fill="currentColor"/>
</g>
<g transform="translate(16.4759, 69.5322)">
<path transform="scale(0.0040, -0.0040)" d="M347 -26c0 102 -89 139 -133 139c-23 0 -70 -10 -70 -89c0 -91 76 -136 132 -136c22 0 71 8 71 86zM245 136c144 0 246 -65 246 -136s-102 -136 -246 -136s-245 65 -245 136s101 136 245 136z" fill="currentColor"/>
</g>
<g transform="translate(16.4759, 68.5322)">
<path transform="scale(0.0040, -0.0040)" d="M347 -26c0 102 -89 139 -133 139c-23 0 -70 -10 -70 -89c0 -91 76 -136 132 -136c22 0 71 8 71 86zM245 136c144 0 246 -65 246 -136s-102 -136 -246 -136s-245 65 -245 136s101 136 245 136z" fill="currentColor"/>
</g>
<g transform="translate(16.5411, 63.0322)">
<rect x="-0.0652" y="0.1862" width="0.1304" height="3.1471" ry="0.0402" fill="currentColor"/>
</g>
<g transform="translate(21.3499, 63.0322)">
<path transform="scale(0.0040, -0.0040)" d="M0 -46c0 91 116 182 217 182c63 0 109 -35 109 -90c0 -87 -110 -182 -220 -182c-67 0 -106 39 -106 90z" fill="currentColor"/>
</g>
<g transform="translate(21.4150, 63.0322)">
<rect x="-0.0652" y="0.1862" width="0.1304" height="3.1471" ry="0.0402" fill="currentColor"/>
</g>
<g transform="translate(89.7430, 72.0322)">
<path stroke-width="0.0802" stroke-linejoin="round" stroke-linecap="round" stroke="currentColor" fill="currentColor" d="M0.8887 -4.5000C2.1195 -5.4390 9.5795 -5.4390 10.8103 -4.5000L10.8103 -4.5000C9.5795 -5.3186 2.1195 -5.3186 0.8887 -4.5000z"/>
</g>
<g transform="translate(26.2238, 62.5322)">
<path transform="scale(0.0040, -0.0040)" d="M0 -46c0 91 116 182 217 182c63 0 109 -35 109 -90c0 -87 -110 -182 -220 -182c-67 0 -106 39 -106 90z" fill="currentColor"/>
</g>
<g transform="translate(26.2890, 63.0322)">
<rect x="-0.0652" y="-0.3138" width="0.1304" height="3.3138" ry="0.0402" fill="currentColor"/>
</g>
<g transform="translate(89.7430, 72.0322)">
<path stroke-width="0.0802" stroke-linejoin="round" stroke-linecap="round" stroke="currentColor" fill="currentColor" d="M1.5774 -3.0000C2.7194 -3.9152 8.6874 -3.9152 9.8293 -3.0000L9.8293 -3.0000C8.6874 -3.7949 2.7194 -3.7949 1.5774 -3.0000z"/>
</g>
<g transform="translate(31.0978, 62.0322)">
<path transform="scale(0.0040, -0.0040)" d="M0 -46c0 91 116 182 217 182c63 0 109 -35 109 -90c0 -87 -110 -182 -220 -182c-67 0 -106 39 -106 90z" fill="currentColor"/>
</g>
<g transform="translate(31.1630, 63.0322)">
<rect x="-0.0652" y="-0.8138" width="0.1304" height="3.3138" ry="0.0402" fill="currentColor"/>
</g>
<g transform="translate(89.7430, 72.0322)">
<path stroke-width="0.0802" stroke-linejoin="round" stroke-linecap="round" stroke="currentColor" fill="currentColor" d="M0.8887 -0.3626C2.1195 0.5764 9.5795 0.5764 10.8103 -0.3626L10.8103 -0.3626C9.5795 0.4561 2.1195 0.4561 0.8887 -0.3626z"/>
</g>
<g transform="translate(89.7430, 63.0322)">
<path stroke-width="0.0802" stroke-linejoin="round" stroke-linecap="round" stroke="currentColor" fill="currentColor" d="M0.8887 1.7500C2.1195 2.6890 9.5795 2.6890 10.8103 1.7500L10.8103 1.7500C9.5795 2.5686 2.1195 2.5686 0.8887 1.7500z"/>
</g>
<g transform="translate(37.5159, 62.0322)">
<path transform="scale(0.0040, -0.0040)" d="M0 -46c0 91 116 182 217 182c63 0 109 -35 109 -90c0 -87 -110 -182 -220 -182c-67 0 -106 39 -106 90z" fill="currentColor"/>
</g>
<g transform="translate(6.8580, 59.9617)">
<text font-family="serif" font-size="1.7465" text-anchor="start" fill="currentColor">
<tspan>13</tspan>
</text>
</g>
<g transform="translate(37.5159, 71.0322)">
<path transform="scale(0.0040, -0.0040)" d="M347 -26c0 102 -89 139 -133 139c-23 0 -70 -10 -70 -89c0 -91 76 -136 132 -136c22 0 71 8 71 86zM245 136c144 0 246 -65 246 -136s-102 -136 -246 -136s-245 65 -245 136s101 136 245 136z" fill="currentColor"/>
</g>
<g transform="translate(37.5159, 70.0322)">
<path transform="scale(0.0040, -0.0040)" d="M347 -26c0 102 -89 139 -133 139c-23 0 -70 -10 -70 -89c0 -91 76 -136 132 -136c22 0 71 8 71 86zM245 136c144 0 246 -65 246 -136s-102 -136 -246 -136s-245 65 -245 136s101 136 245 136z" fill="currentColor"/>
</g>
<g transform="translate(37.5159, 68.5322)">
<path transform="scale(0.0040, -0.0040)" d="M347 -26c0 102 -89 139 -133 139c-23 0 -70 -10 -70 -89c0 -91 76 -136 132 -136c22 0 71 8 71 86zM245 136c144 0 246 -65 246 -136s-102 -136 -246 -136s-245 65 -245 136s101 136 245 136z" fill="currentColor"/>
</g>
<g transform="translate(12.8759, 71.0322)">
<path transform="scale(0.0040, -0.0040)" d="M0 119c0 8 5 15 13 18l46 17v158c0 10 8 19 18 19s19 -9 19 -19v-145l83 31v158c0 10 9 19 19 19s18 -9 18 -19v-145l32 12c2 1 5 1 7 1c11 0 20 -9 20 -20v-60c0 -8 -5 -16 -13 -19l-46 -16v-160l32 11c2 1 5 1 7 1c11 0 20 -9 20 -20v-60c0 -8 -5 -15 -13 -18l-46 -17
v-158c0 -10 -8 -19 -18 -19s-19 9 -19 19v145l-83 -31v-158c0 -10 -9 -19 -19 -19s-18 9 -18 19v145l-32 -12c-2 -1 -5 -1 -7 -1c-11 0 -20 9 -20 20v60c0 8 5 16 13 19l46 16v160l-32 -11c-2 -1 -5 -1 -7 -1c-11 0 -20 9 -20 20v60zM179 95l-83 -30v-160l83 30v160z" fill="currentColor"/>
</g>
<g transform="translate(37.5811, 63.0322)">
<rect x="-0.0652" y="-0.8138" width="0.1304" height="3.3138" ry="0.0402" fill="currentColor"/>
</g>
<g transform="translate(9.3725, 71.0322)">
<path transform="scale(0.0040, -0.0040)" d="M557 -125c0 28 23 51 51 51s51 -23 51 -51s-23 -51 -51 -51s-51 23 -51 51zM557 125c0 28 23 51 51 51s51 -23 51 -51s-23 -51 -51 -51s-51 23 -51 51zM232 263c172 0 293 -88 293 -251c0 -263 -263 -414 -516 -521c-3 -3 -6 -4 -9 -4c-7 0 -13 6 -13 13c0 3 1 6 4 9
c202 118 412 265 412 493c0 120 -63 235 -171 235c-74 0 -129 -54 -154 -126c11 5 22 8 34 8c55 0 100 -45 100 -100c0 -58 -44 -106 -100 -106c-60 0 -112 47 -112 106c0 133 102 244 232 244z" fill="currentColor"/>
</g>
<g transform="translate(42.3899, 62.5322)">
<path transform="scale(0.0040, -0.0040)" d="M0 -46c0 91 116 182 217 182c63 0 109 -35 109 -90c0 -87 -110 -182 -220 -182c-67 0 -106 39 -106 90z" fill="currentColor"/>
</g>
<g transform="translate(42.4551, 63.0322)">
<rect x="-0.0652" y="-0.3138" width="0.1304" height="3.3138" ry="0.0402" fill="currentColor"/>
</g>
<g transform="translate(47.2638, 63.0322)">
<path transform="scale(0.0040, -0.0040)" d="M0 -46c0 91 116 182 217 182c63 0 109 -35 109 -90c0 -87 -110 -182 -220 -182c-67 0 -106 39 -106 90z" fill="currentColor"/>
</g>
<g transform="translate(47.3290, 63.0322)">
<rect x="-0.0652" y="0.1862" width="0.1304" height="3.1471" ry="0.0402" fill="currentColor"/>
</g>
<g transform="translate(52.1196, 63.5322)">
<path transform="scale(0.0040, -0.0040)" d="M0 -46c0 91 116 182 217 182c63 0 109 -35 109 -90c0 -87 -110 -182 -220 -182c-67 0 -106 39 -106 90z" fill="currentColor"/>
</g>
<g transform="translate(53.3586, 63.0322)">
<rect x="-0.0652" y="-3.0000" width="0.1304" height="3.3138" ry="0.0402" fill="currentColor"/>
</g>
<g transform="translate(58.7454, 64.0322)">
<path transform="scale(0.0040, -0.0040)" d="M0 -46c0 91 116 182 217 182c63 0 109 -35 109 -90c0 -87 -110 -182 -220 -182c-67 0 -106 39 -106 90z" fill="currentColor"/>
</g>
<g transform="translate(58.7454, 70.5322)">
<path transform="scale(0.0040, -0.0040)" d="M347 -26c0 102 -89 139 -133 139c-23 0 -70 -10 -70 -89c0 -91 76 -136 132 -136c22 0 71 8 71 86zM245 136c144 0 246 -65 246 -136s-102 -136 -246 -136s-245 65 -245 136s101 136 245 136z" fill="currentColor"/>
</g>
<g transform="translate(58.7454, 69.5322)">
<path transform="scale(0.0040, -0.0040)" d="M347 -26c0 102 -89 139 -133 139c-23 0 -70 -10 -70 -89c0 -91 76 -136 132 -136c22 0 71 8 71 86zM245 136c144 0 246 -65 246 -136s-102 -136 -246 -136s-245 65 -245 136s101 136 245 136z" fill="currentColor"/>
</g>
<g transform="translate(58.7454, 68.5322)">
<path transform="scale(0.0040, -0.0040)" d="M347 -26c0 102 -89 139 -133 139c-23 0 -70 -10 -70 -89c0 -91 76 -136 132 -136c22 0 71 8 71 86zM245 136c144 0 246 -65 246 -136s-102 -136 -246 -136s-245 65 -245 136s101 136 245 136z" fill="currentColor"/>
</g>
<g transform="translate(12.8759, 61.0322)">
<path transform="scale(0.0040, -0.0040)" d="M0 119c0 8 5 15 13 18l46 17v158c0 10 8 19 18 19s19 -9 19 -19v-145l83 31v158c0 10 9 19 19 19s18 -9 18 -19v-145l32 12c2 1 5 1 7 1c11 0 20 -9 20 -20v-60c0 -8 -5 -16 -13 -19l-46 -16v-160l32 11c2 1 5 1 7 1c11 0 20 -9 20 -20v-60c0 -8 -5 -15 -13 -18l-46 -17
v-158c0 -10 -8 -19 -18 -19s-19 9 -19 19v145l-83 -31v-158c0 -10 -9 -19 -19 -19s-18 9 -18 19v145l-32 -12c-2 -1 -5 -1 -7 -1c-11 0 -20 9 -20 20v60c0 8 5 16 13 19l46 16v160l-32 -11c-2 -1 -5 -1 -7 -1c-11 0 -20 9 -20 20v60zM179 95l-83 -30v-160l83 30v160z" fill="currentColor"/>
</g>
<g transform="translate(59.9844, 63.0322)">
<rect x="-0.0652" y="-2.5000" width="0.1304" height="3.3138" ry="0.0402" fill="currentColor"/>
</g>
<g transform="translate(9.3725, 64.0322)">
<path transform="scale(0.0040, -0.0040)" d="M266 -635h-6c-108 0 -195 88 -195 197c0 58 53 103 112 103c54 0 95 -47 95 -103c0 -52 -43 -95 -95 -95c-11 0 -21 2 -31 6c26 -39 68 -65 117 -65h4zM401 151c19 -89 48 -242 60 -354c76 27 112 94 112 163c0 89 -60 179 -172 191zM74 28c0 -112 98 -247 278 -247
c21 0 44 2 68 6c-7 64 -29 203 -63 364c-79 -8 -124 -61 -124 -119c0 -44 25 -91 81 -123c5 -5 7 -10 7 -15c0 -11 -10 -22 -22 -22c-15 0 -126 62 -126 187c0 88 58 174 160 197c-14 58 -29 117 -46 175c-107 -121 -213 -243 -213 -403zM357 1194c28 0 143 -206 143 -361
c0 -143 -86 -255 -180 -364c21 -68 39 -138 56 -207c5 0 10 1 14 1c155 0 255 -129 255 -262c0 -113 -74 -212 -180 -245c3 -35 5 -70 5 -105c0 -19 -1 -39 -2 -58c-7 -119 -88 -225 -202 -228l1 43c93 2 153 92 159 191c1 18 2 37 2 55c0 31 -1 61 -4 92
c-28 -5 -55 -8 -80 -8c-239 0 -342 217 -342 374c0 177 131 306 248 441c-29 96 -52 170 -52 346c0 189 144 295 159 295zM247 782c0 -55 12 -115 35 -190c82 100 147 202 147 326c0 40 -6 82 -21 127c-49 -24 -161 -97 -161 -263z" fill="currentColor"/>
</g>
<g transform="translate(63.6193, 64.0322)">
<path transform="scale(0.0040, -0.0040)" d="M0 -46c0 91 116 182 217 182c63 0 109 -35 109 -90c0 -87 -110 -182 -220 -182c-67 0 -106 39 -106 90z" fill="currentColor"/>
</g>
<g transform="translate(68.4933, 63.5322)">
<path transform="scale(0.0040, -0.0040)" d="M0 -46c0 91 116 182 217 182c63 0 109 -35 109 -90c0 -87 -110 -182 -220 -182c-67 0 -106 39 -106 90z" fill="currentColor"/>
</g>
<g transform="translate(69.7323, 63.0322)">
<rect x="-0.0652" y="-3.0000" width="0.1304" height="3.3138" ry="0.0402" fill="currentColor"/>
</g>
<g transform="translate(73.3855, 63.0322)">
<path transform="scale(0.0040, -0.0040)" d="M0 -46c0 91 116 182 217 182c63 0 109 -35 109 -90c0 -87 -110 -182 -220 -182c-67 0 -106 39 -106 90z" fill="currentColor"/>
</g>
<g transform="translate(73.4506, 63.0322)">
<rect x="-0.0652" y="0.1862" width="0.1304" height="3.1471" ry="0.0402" fill="currentColor"/>
</g>
<g transform="translate(79.9443, 63.5322)">
<path transform="scale(0.0040, -0.0040)" d="M0 -46c0 91 116 182 217 182c63 0 109 -35 109 -90c0 -87 -110 -182 -220 -182c-67 0 -106 39 -106 90z" fill="currentColor"/>
</g>
<g transform="translate(79.9443, 71.0322)">
<path transform="scale(0.0040, -0.0040)" d="M72 -106c40 0 204 110 231 143c7 9 11 19 11 28c0 22 -18 41 -42 41c-40 0 -204 -110 -231 -143c-7 -9 -10 -19 -10 -28c0 -22 17 -41 41 -41zM0 -67c0 71 46 203 258 203c41 0 86 -10 86 -69c0 -71 -46 -203 -258 -203c-41 0 -86 10 -86 69z" fill="currentColor"/>
</g>
<g transform="translate(79.9443, 70.0322)">
<path transform="scale(0.0040, -0.0040)" d="M72 -106c40 0 204 110 231 143c7 9 11 19 11 28c0 22 -18 41 -42 41c-40 0 -204 -110 -231 -143c-7 -9 -10 -19 -10 -28c0 -22 17 -41 41 -41zM0 -67c0 71 46 203 258 203c41 0 86 -10 86 -69c0 -71 -46 -203 -258 -203c-41 0 -86 10 -86 69z" fill="currentColor"/>
</g>
<g transform="translate(79.9443, 68.5322)">
<path transform="scale(0.0040, -0.0040)" d="M72 -106c40 0 204 110 231 143c7 9 11 19 11 28c0 22 -18 41 -42 41c-40 0 -204 -110 -231 -143c-7 -9 -10 -19 -10 -28c0 -22 17 -41 41 -41zM0 -67c0 71 46 203 258 203c41 0 86 -10 86 -69c0 -71 -46 -203 -258 -203c-41 0 -86 10 -86 69z" fill="currentColor"/>
</g>
<g transform="translate(81.6985, 63.5322)">
<path transform="scale(0.0040, -0.0040)" d="M0 0c0 31 25 56 56 56s56 -25 56 -56s-25 -56 -56 -56s-56 25 -56 56z" fill="currentColor"/>
</g>
<g transform="translate(81.1833, 63.0322)">
<rect x="-0.0652" y="-3.0000" width="0.1304" height="3.3138" ry="0.0402" fill="currentColor"/>
</g>
<g transform="translate(80.0094, 72.0322)">
<rect x="-0.0652" y="-3.2410" width="0.1304" height="5.7410" ry="0.0402" fill="currentColor"/>
</g>
<g transform="translate(86.2939, 64.0322)">
<path transform="scale(0.0040, -0.0040)" d="M0 -46c0 91 116 182 217 182c63 0 109 -35 109 -90c0 -87 -110 -182 -220 -182c-67 0 -106 39 -106 90z" fill="currentColor"/>
</g>
<g transform="translate(87.5329, 63.0322)">
<rect x="-0.0652" y="-2.5000" width="0.1304" height="3.3138" ry="0.0402" fill="currentColor"/>
</g>
<g transform="translate(87.5981, 60.5724)">
<path transform="scale(0.0040, -0.0040)" d="M0 0v-375h-16v375h16zM123 -729c0 10 42 87 42 196c0 103 -94 208 -165 283v250c0 -197 207 -336 207 -533c0 -71 -15 -141 -41 -207c-5 -8 -13 -12 -20 -12c-12 0 -23 9 -23 23z" fill="currentColor"/>
</g>
<g transform="translate(89.7430, 64.0322)">
<path transform="scale(0.0040, -0.0040)" d="M72 -106c40 0 204 110 231 143c7 9 11 19 11 28c0 22 -18 41 -42 41c-40 0 -204 -110 -231 -143c-7 -9 -10 -19 -10 -28c0 -22 17 -41 41 -41zM0 -67c0 71 46 203 258 203c41 0 86 -10 86 -69c0 -71 -46 -203 -258 -203c-41 0 -86 10 -86 69z" fill="currentColor"/>
</g>
<g transform="translate(89.7430, 70.5322)">
<path transform="scale(0.0040, -0.0040)" d="M72 -106c40 0 204 110 231 143c7 9 11 19 11 28c0 22 -18 41 -42 41c-40 0 -204 -110 -231 -143c-7 -9 -10 -19 -10 -28c0 -22 17 -41 41 -41zM0 -67c0 71 46 203 258 203c41 0 86 -10 86 -69c0 -71 -46 -203 -258 -203c-41 0 -86 10 -86 69z" fill="currentColor"/>
</g>
<g transform="translate(89.7430, 69.5322)">
<path transform="scale(0.0040, -0.0040)" d="M72 -106c40 0 204 110 231 143c7 9 11 19 11 28c0 22 -18 41 -42 41c-40 0 -204 -110 -231 -143c-7 -9 -10 -19 -10 -28c0 -22 17 -41 41 -41zM0 -67c0 71 46 203 258 203c41 0 86 -10 86 -69c0 -71 -46 -203 -258 -203c-41 0 -86 10 -86 69z" fill="currentColor"/>
</g>
<g transform="translate(89.7430, 68.5322)">
<path transform="scale(0.0040, -0.0040)" d="M72 -106c40 0 204 110 231 143c7 9 11 19 11 28c0 22 -18 41 -42 41c-40 0 -204 -110 -231 -143c-7 -9 -10 -19 -10 -28c0 -22 17 -41 41 -41zM0 -67c0 71 46 203 258 203c41 0 86 -10 86 -69c0 -71 -46 -203 -258 -203c-41 0 -86 10 -86 69z" fill="currentColor"/>
</g>
<g transform="translate(91.0552, 63.0322)">
<rect x="-0.0652" y="-2.5000" width="0.1304" height="3.2410" ry="0.0402" fill="currentColor"/>
</g>
<g transform="translate(89.8081, 72.0322)">
<rect x="-0.0652" y="-3.2410" width="0.1304" height="5.2410" ry="0.0402" fill="currentColor"/>
</g>
<g transform="translate(99.7723, 64.0322)">
<path transform="scale(0.0040, -0.0040)" d="M347 -26c0 102 -89 139 -133 139c-23 0 -70 -10 -70 -89c0 -91 76 -136 132 -136c22 0 71 8 71 86zM245 136c144 0 246 -65 246 -136s-102 -136 -246 -136s-245 65 -245 136s101 136 245 136z" fill="currentColor"/>
</g>
<g transform="translate(99.7723, 70.5322)">
<path transform="scale(0.0040, -0.0040)" d="M347 -26c0 102 -89 139 -133 139c-23 0 -70 -10 -70 -89c0 -91 76 -136 132 -136c22 0 71 8 71 86zM245 136c144 0 246 -65 246 -136s-102 -136 -246 -136s-245 65 -245 136s101 136 245 136z" fill="currentColor"/>
</g>
<g transform="translate(99.7723, 69.5322)">
<path transform="scale(0.0040, -0.0040)" d="M347 -26c0 102 -89 139 -133 139c-23 0 -70 -10 -70 -89c0 -91 76 -136 132 -136c22 0 71 8 71 86zM245 136c144 0 246 -65 246 -136s-102 -136 -246 -136s-245 65 -245 136s101 136 245 136z" fill="currentColor"/>
</g>
<g transform="translate(99.7723, 68.5322)">
<path transform="scale(0.0040, -0.0040)" d="M347 -26c0 102 -89 139 -133 139c-23 0 -70 -10 -70 -89c0 -91 76 -136 132 -136c22 0 71 8 71 86zM245 136c144 0 246 -65 246 -136s-102 -136 -246 -136s-245 65 -245 136s101 136 245 136z" fill="currentColor"/>
</g>
<g transform="translate(8.5121, 67.5322)">
<rect x="0.0000" y="-6.5501" width="0.1605" height="13.1003" ry="0.0501" fill="currentColor"/>
</g>
<g transform="translate(8.2121, 67.5322)">
<path transform="scale(0.0040, -0.0040)" d="M-84 -360c0 252 -129 357 -129 360c0 21 129 93 129 360c0 246 -105 537 -105 807c0 339 183 474 189 474c9 0 15 -6 15 -15c0 -24 -132 -93 -132 -366c0 -243 99 -525 99 -792c0 -168 -39 -330 -171 -468c132 -138 171 -300 171 -468c0 -267 -99 -549 -99 -792
c0 -273 132 -342 132 -366c0 -9 -6 -15 -15 -15c-6 0 -189 135 -189 474c0 270 105 561 105 807z" fill="currentColor"/>
</g>
<g transform="translate(64.8583, 63.0322)">
<rect x="-0.0652" y="-2.5000" width="0.1304" height="3.3138" ry="0.0402" fill="currentColor"/>
</g>
<g transform="translate(52.3437, 163.5458)">
<a xlink:href="https://lilypond.org">
<rect x="0.0000" y="-0.4748" width="15.3276" height="2.0024" fill="none" stroke="none" stroke-width="0.0"/>
</a>
</g>
<g transform="translate(52.3437, 163.5458)">
<text font-family="serif" font-size="2.2003" text-anchor="start" fill="currentColor">
<tspan>LilyPond v2.26.0</tspan>
</text>
</g>
</svg>
